<svg width="146.366669" height="153.406738" viewBox="0 0 146.367 153.407" fill="none" xmlns="http://www.w3.org/2000/svg" xmlns:xlink="http://www.w3.org/1999/xlink">
	<desc>
			Created with Pixso.
	</desc>
	<defs/>
	<path id="Vector" d="M57.29 19.59C57.1 21.29 57.67 22.62 58.99 23.57C59.03 24.2 59.22 24.76 59.56 25.27C59.43 26.63 59.8 27.76 60.7 28.67C60.7 28.86 60.7 29.05 60.7 29.24C60.61 31.06 61.18 32.58 62.4 33.78C64.71 36.32 66.6 39.15 68.07 42.29C68.03 43.15 68.41 43.72 69.21 43.99C71.63 48.78 74.84 53.04 78.85 56.75C87.3 63.41 95.81 69.94 104.38 76.33C104.19 76.71 104 77.08 103.81 77.46C100.45 79.12 97.8 81.58 95.87 84.84C95.07 85.1 94.69 85.67 94.74 86.54C94.78 87.4 94.4 87.97 93.6 88.24C92.51 88.4 91.57 88.21 90.76 87.67C89.26 86.65 87.56 86.08 85.66 85.97C85.39 85.17 84.82 84.8 83.96 84.84C83.55 84.32 82.99 84.13 82.25 84.27C82.08 85.72 82.27 87.05 82.82 88.24C82.65 89.88 82.84 91.39 83.39 92.78C83.39 93.16 83.39 93.54 83.39 93.91C83.81 99.39 84 104.87 83.96 110.37C83.96 110.56 83.96 110.74 83.96 110.93C83.37 112.9 83 114.98 82.82 117.17C82.51 120.86 81.76 124.46 80.55 127.95C80.77 129.33 81.15 130.66 81.69 131.92C82.19 135.14 83.14 138.16 84.52 141C85.57 144.32 86.13 147.73 86.23 151.21C85.58 152.19 84.64 152.56 83.39 152.35C82.75 151.98 82 151.79 81.12 151.78C79.77 151.7 78.63 152.08 77.72 152.92C74.71 153.45 71.68 153.54 68.64 153.2C68.11 151.85 67.92 150.43 68.07 148.94C66.18 148.94 64.29 148.94 62.4 148.94C62.34 147.48 62.72 146.16 63.53 144.97C65.41 145.08 66.92 144.51 68.07 143.27C68.97 142.34 69.35 141.2 69.21 139.87C65.41 141.58 61.63 143.28 57.86 144.97C54.91 145.34 52.08 145.9 49.35 146.67C43.44 147 37.67 146.24 32.05 144.41C30.85 146.28 29.44 148.08 27.79 149.79C26.17 150.62 24.46 150.81 22.69 150.36C17 148.37 11.52 145.91 6.23 142.99C5.18 142.32 4.61 141.37 4.53 140.15C5.35 138.48 6.29 136.87 7.37 135.33C8.2 133.87 8.77 132.26 9.07 130.51C10.7 130.4 12.21 130.12 13.61 129.66C15.33 129.35 16.08 128.31 15.88 126.53C15.53 124.1 14.96 121.73 14.18 119.44C14.08 117.61 13.7 115.91 13.04 114.34C13.04 114.15 13.04 113.96 13.04 113.77C12.65 109.05 12.46 104.32 12.47 99.59C12.47 98.45 12.47 97.32 12.47 96.18C14.22 97.12 15.54 96.74 16.45 95.05C17.24 94.78 17.62 94.21 17.58 93.35C20.92 92.91 23.38 91.21 24.96 88.24C26.36 88.1 27.49 87.53 28.36 86.54C28.55 86.54 28.74 86.54 28.93 86.54C31.56 89.65 34.11 92.87 36.59 96.18C36.96 97.13 36.96 98.07 36.59 99.02C36.2 99.45 35.73 99.64 35.17 99.59C32.16 99.98 29.13 100.17 26.09 100.15C25.9 100.15 25.71 100.15 25.52 100.15C24.61 99.26 23.48 98.88 22.12 99.02C20.77 98.14 19.25 97.76 17.58 97.88C17.87 101.11 18.25 104.33 18.71 107.53C19.19 111.05 20.33 114.26 22.12 117.17C22.69 118.31 23.25 119.44 23.82 120.58C25.31 123.92 27.1 127.14 29.21 130.22C30.22 131.52 31.45 132.47 32.9 133.06C33.52 133.66 34.28 134.13 35.17 134.48C37.92 134.94 40.57 134.84 43.11 134.19C54.12 131.13 61.11 124.13 64.1 113.2C64.54 112.77 64.82 112.2 64.95 111.5C65.33 105.07 65.33 98.64 64.95 92.21C64.71 89.63 64.24 87.17 63.53 84.84C63.43 83.01 63.05 81.3 62.4 79.73C62.19 77.23 61.44 74.96 60.13 72.92C56.76 64.83 51.66 58.02 44.81 52.5C49.36 50.42 51.82 46.83 52.19 41.72C52.24 39.7 51.76 37.81 50.77 36.05C49.05 34.23 47.25 32.53 45.38 30.94C44.73 29.97 43.79 29.59 42.54 29.81C41.4 29 40.08 28.62 38.57 28.67C36.2 28.31 34.31 27.08 32.9 24.98C31.04 23.78 29.15 22.74 27.22 21.86C24.68 21.21 22.03 21.12 19.28 21.58C18.97 21.8 18.78 22.08 18.71 22.43C15.78 22.63 13.41 23.95 11.62 26.4C10.71 28.29 9.86 30.18 9.07 32.08C8.7 33 8.51 34.04 8.5 35.2C8.42 36.98 8.8 38.59 9.64 40.02C9.74 41.36 9.93 42.68 10.21 43.99C10.21 44.75 9.83 45.12 9.07 45.12C8.2 45.08 7.64 45.46 7.37 46.26C6.81 46.16 6.43 46.35 6.23 46.83C2.03 40.56 0.52 33.56 1.7 25.84C2.5 24.69 2.88 23.37 2.83 21.86C3.51 20.2 4.08 18.5 4.53 16.76C5.33 16.49 5.71 15.92 5.67 15.06C13.06 2.23 24.03 -2.41 38.57 1.16C45.71 3.95 51.29 8.58 55.31 15.06C56.13 16.52 56.79 18.03 57.29 19.59Z" fill="#FDAA7F" fill-opacity="1.000000" fill-rule="evenodd"/>
	<path id="Vector" d="M27.22 21.86C24.35 21.74 21.52 21.93 18.71 22.43C18.78 22.08 18.97 21.8 19.28 21.58C22.03 21.12 24.68 21.21 27.22 21.86Z" fill="#FED3BC" fill-opacity="1.000000" fill-rule="evenodd"/>
	<path id="Vector" d="M57.29 19.59C58.18 20.73 58.75 22.06 58.99 23.57C57.67 22.62 57.1 21.29 57.29 19.59Z" fill="#EEC2A8" fill-opacity="1.000000" fill-rule="evenodd"/>
	<path id="Vector" d="M27.22 21.86C29.15 22.74 31.04 23.78 32.9 24.98C34.31 27.08 36.2 28.31 38.57 28.67C39.57 29.13 40.52 29.7 41.41 30.37C40.83 31.04 40.08 31.42 39.14 31.51C38.27 31.47 37.7 31.85 37.44 32.64C36.42 32.87 35.48 33.24 34.6 33.78C33.13 33.76 32 34.32 31.2 35.48C30.82 35.48 30.44 35.48 30.06 35.48C28.98 35.65 28.04 36.03 27.22 36.61C27.22 36.8 27.22 36.99 27.22 37.18C22.56 38.76 18.02 40.65 13.61 42.85C12.74 42.81 12.18 43.19 11.91 43.99C11.53 43.99 11.15 43.99 10.77 43.99C10.82 42.49 10.45 41.16 9.64 40.02C9.22 37.39 9.03 34.74 9.07 32.08C9.86 30.18 10.71 28.29 11.62 26.4C13.41 23.95 15.78 22.63 18.71 22.43C21.52 21.93 24.35 21.74 27.22 21.86Z" fill="#FBFAFA" fill-opacity="1.000000" fill-rule="evenodd"/>
	<path id="Vector" d="M38.57 28.67C40.08 28.62 41.4 29 42.54 29.81C42.35 30.28 41.97 30.47 41.41 30.37C40.52 29.7 39.57 29.13 38.57 28.67Z" fill="#EFBFA6" fill-opacity="1.000000" fill-rule="evenodd"/>
	<path id="Vector" d="M42.54 29.81C43.79 29.59 44.73 29.97 45.38 30.94C45.74 35.08 44.41 38.48 41.41 41.15C38.7 39.02 36.43 36.56 34.6 33.78C35.48 33.24 36.42 32.87 37.44 32.64C38.3 32.68 38.87 32.31 39.14 31.51C40.08 31.42 40.83 31.04 41.41 30.37C41.97 30.47 42.35 30.28 42.54 29.81Z" fill="#292A28" fill-opacity="1.000000" fill-rule="evenodd"/>
	<path id="Vector" d="M45.38 30.94C47.25 32.53 49.05 34.23 50.77 36.05C51.76 37.81 52.24 39.7 52.19 41.72C51.82 46.83 49.36 50.42 44.81 52.5C51.66 58.02 56.76 64.83 60.13 72.92C60.56 75.34 61.31 77.61 62.4 79.73C63.05 81.3 63.43 83.01 63.53 84.84C64.75 94.27 64.94 103.73 64.1 113.2C61.11 124.13 54.12 131.13 43.11 134.19C39.62 134.38 36.21 134 32.9 133.06C31.45 132.47 30.22 131.52 29.21 130.22C27.1 127.14 25.3 123.92 23.82 120.58C24.69 115.46 24.32 110.36 22.69 105.26C25.53 105.35 28.37 105.26 31.2 104.98C32 103.42 31.81 102 30.63 100.72C32.29 100.69 33.8 100.31 35.17 99.59C35.73 99.64 36.2 99.45 36.59 99.02C36.96 98.07 36.96 97.13 36.59 96.18C34.11 92.87 31.56 89.65 28.93 86.54C29.09 85.27 28.9 84.14 28.36 83.13C28.17 81.81 27.41 81.05 26.09 80.87C25.14 80.87 24.2 80.87 23.25 80.87C22.07 78.68 20.75 76.6 19.28 74.62C19.99 70.46 21.13 66.48 22.69 62.71C23.51 62.07 24.07 61.22 24.39 60.16C25.64 60.05 26.78 59.77 27.79 59.31C29.71 57.39 31.41 55.31 32.9 53.07C33.95 50.45 34.89 47.8 35.73 45.12C37.2 45.15 38.33 44.58 39.14 43.42C39.52 43.42 39.71 43.23 39.71 42.85C40.84 42.85 41.41 42.29 41.41 41.15C44.41 38.48 45.74 35.08 45.38 30.94Z" fill="#FEFDFD" fill-opacity="1.000000" fill-rule="evenodd"/>
	<path id="Vector" d="M39.14 31.51C38.87 32.31 38.3 32.68 37.44 32.64C37.7 31.85 38.27 31.47 39.14 31.51Z" fill="#626362" fill-opacity="1.000000" fill-rule="evenodd"/>
	<path id="Vector" d="M60.7 29.24C61.47 30.62 62.04 32.13 62.4 33.78C61.18 32.58 60.61 31.06 60.7 29.24Z" fill="#ECC4AB" fill-opacity="1.000000" fill-rule="evenodd"/>
	<path id="Vector" d="M34.6 33.78C36.43 36.56 38.7 39.02 41.41 41.15C41.41 42.29 40.84 42.85 39.71 42.85C37.36 39.74 34.52 37.29 31.2 35.48C32 34.32 33.13 33.76 34.6 33.78Z" fill="#3C3D3C" fill-opacity="1.000000" fill-rule="evenodd"/>
	<path id="Vector" d="M9.07 32.08C9.03 34.74 9.22 37.39 9.64 40.02C8.8 38.59 8.42 36.98 8.5 35.2C8.51 34.04 8.7 33 9.07 32.08Z" fill="#FEC8AC" fill-opacity="1.000000" fill-rule="evenodd"/>
	<path id="Vector" d="M30.06 35.48C30.44 35.48 30.82 35.48 31.2 35.48C33.65 38.32 36.3 40.96 39.14 43.42C38.33 44.58 37.2 45.15 35.73 45.12C35.8 44.77 35.99 44.49 36.3 44.27C33.65 42.38 31.38 40.11 29.49 37.47C28.76 37.19 28 37.09 27.22 37.18C27.22 36.99 27.22 36.8 27.22 36.61C28.47 36.83 29.42 36.45 30.06 35.48Z" fill="#3B3C3B" fill-opacity="1.000000" fill-rule="evenodd"/>
	<path id="Vector" d="M31.2 35.48C34.52 37.29 37.36 39.74 39.71 42.85C39.71 43.23 39.52 43.42 39.14 43.42C36.3 40.96 33.65 38.32 31.2 35.48Z" fill="#272727" fill-opacity="1.000000" fill-rule="evenodd"/>
	<path id="Vector" d="M30.06 35.48C29.42 36.45 28.47 36.83 27.22 36.61C28.04 36.03 28.98 35.65 30.06 35.48Z" fill="#848484" fill-opacity="1.000000" fill-rule="evenodd"/>
	<path id="Vector" d="M27.22 37.18C28 37.09 28.76 37.19 29.49 37.47C31.38 40.11 33.65 42.38 36.3 44.27C35.99 44.49 35.8 44.77 35.73 45.12C34.98 45.12 34.22 45.12 33.47 45.12C32.56 44.23 31.42 43.85 30.06 43.99C29.12 43.99 28.17 43.99 27.22 43.99C25.63 43.72 24.49 44.29 23.82 45.69C23.19 46.88 22.81 48.21 22.69 49.66C22.31 49.66 22.12 49.85 22.12 50.23C21.61 50.58 21.05 50.77 20.42 50.8C19.55 50.76 18.98 51.13 18.71 51.93C17.96 51.93 17.2 51.93 16.45 51.93C13.46 52.19 10.81 51.44 8.5 49.66C7.76 48.73 7.01 47.79 6.23 46.83C6.43 46.35 6.81 46.16 7.37 46.26C8.23 46.3 8.8 45.92 9.07 45.12C9.83 45.12 10.21 44.75 10.21 43.99C10.39 43.99 10.58 43.99 10.77 43.99C11.15 43.99 11.53 43.99 11.91 43.99C12.77 44.03 13.34 43.65 13.61 42.85C18.02 40.65 22.56 38.76 27.22 37.18Z" fill="#242523" fill-opacity="1.000000" fill-rule="evenodd"/>
	<path id="Vector" d="M9.64 40.02C10.45 41.16 10.82 42.49 10.77 43.99C10.58 43.99 10.39 43.99 10.21 43.99C9.93 42.68 9.74 41.36 9.64 40.02Z" fill="#FDC9AD" fill-opacity="1.000000" fill-rule="evenodd"/>
	<path id="Vector" d="M13.61 42.85C13.34 43.65 12.77 44.03 11.91 43.99C12.18 43.19 12.74 42.81 13.61 42.85Z" fill="#6B6C6B" fill-opacity="1.000000" fill-rule="evenodd"/>
	<path id="Vector" d="M27.22 43.99C26.11 44.55 24.98 45.12 23.82 45.69C24.49 44.29 25.63 43.72 27.22 43.99Z" fill="#9F6F56" fill-opacity="1.000000" fill-rule="evenodd"/>
	<path id="Vector" d="M27.22 43.99C28.17 43.99 29.12 43.99 30.06 43.99C30.97 44.88 32.1 45.26 33.47 45.12C33.77 45.83 33.96 46.59 34.03 47.39C33.53 49.27 33.16 51.16 32.9 53.07C31.41 55.31 29.71 57.39 27.79 59.31C26.66 59.31 25.52 59.31 24.39 59.31C24.52 58.57 24.33 58.01 23.82 57.61C23.5 54.95 23.12 52.3 22.69 49.66C22.81 48.21 23.19 46.88 23.82 45.69C24.98 45.12 26.11 44.55 27.22 43.99Z" fill="#FCA97E" fill-opacity="1.000000" fill-rule="evenodd"/>
	<path id="Vector" d="M30.06 43.99C31.42 43.85 32.56 44.23 33.47 45.12C32.1 45.26 30.97 44.88 30.06 43.99Z" fill="#6F5241" fill-opacity="1.000000" fill-rule="evenodd"/>
	<path id="Vector" d="M9.07 45.12C8.8 45.92 8.23 46.3 7.37 46.26C7.64 45.46 8.2 45.08 9.07 45.12Z" fill="#745544" fill-opacity="1.000000" fill-rule="evenodd"/>
	<path id="Vector" d="M33.47 45.12C34.22 45.12 34.98 45.12 35.73 45.12C34.89 47.8 33.95 50.45 32.9 53.07C33.16 51.16 33.53 49.27 34.03 47.39C33.96 46.59 33.77 45.83 33.47 45.12Z" fill="#E8C7B5" fill-opacity="1.000000" fill-rule="evenodd"/>
	<path id="Vector" d="M22.69 49.66C23.12 52.3 23.5 54.95 23.82 57.61C22.89 55.3 22.32 52.84 22.12 50.23C22.12 49.85 22.31 49.66 22.69 49.66Z" fill="#DFD4CA" fill-opacity="1.000000" fill-rule="evenodd"/>
	<path id="Vector" d="M19.85 59.31C20.98 59.31 22.12 59.31 23.25 59.31C23.24 60.48 23.05 61.61 22.69 62.71C21.13 66.48 19.99 70.46 19.28 74.62C20.75 76.6 22.07 78.68 23.25 80.87C20.9 81.04 18.44 81.13 15.88 81.15C15 81.93 14.25 82.78 13.61 83.7C12.7 84.15 12.32 84.9 12.47 85.97C11.34 87.86 10.21 89.75 9.07 91.64C5.04 89.21 2.1 85.81 0.28 81.43C-0.18 79.81 -0.08 78.29 0.56 76.89C1.36 76.63 1.74 76.06 1.7 75.19C5.19 67.86 10.87 63.04 18.71 60.73C19.21 60.32 19.59 59.85 19.85 59.31Z" fill="#FCAA7F" fill-opacity="1.000000" fill-rule="evenodd"/>
	<path id="Vector" d="M23.82 57.61C24.33 58.01 24.52 58.57 24.39 59.31C25.52 59.31 26.66 59.31 27.79 59.31C26.78 59.77 25.64 60.05 24.39 60.16C24.07 61.22 23.51 62.07 22.69 62.71C23.05 61.61 23.24 60.48 23.25 59.31C22.12 59.31 20.98 59.31 19.85 59.31C21.36 59.07 22.68 58.5 23.82 57.61Z" fill="#F7C3A7" fill-opacity="1.000000" fill-rule="evenodd"/>
	<path id="Vector" d="M123.67 63.28C127.45 66.87 131.23 70.46 135.02 74.06C132.23 75.4 130.15 74.74 128.78 72.07C128.21 71.88 127.64 71.69 127.07 71.5C125.03 69.18 122.76 67.19 120.27 65.55C120.95 64.1 122.09 63.35 123.67 63.28Z" fill="#3C3D3D" fill-opacity="1.000000" fill-rule="evenodd"/>
	<path id="Vector" d="M120.27 65.55C123.32 69.46 126.72 73.14 130.48 76.61C126.61 80.86 122.73 85.11 118.85 89.38C118.51 91.19 118.61 92.98 119.13 94.76C118.9 96.08 118.43 97.31 117.71 98.45C115.4 98.91 113.03 99.19 110.62 99.3C107.1 103.01 103.79 106.89 100.69 110.93C99.88 112.04 98.84 112.79 97.57 113.2C93.73 110.05 89.76 107.02 85.66 104.13C85.16 104.59 84.97 105.16 85.09 105.83C84.9 105.83 84.71 105.83 84.52 105.83C84.52 104.88 84.52 103.94 84.52 102.99C87.22 99.29 90.06 95.7 93.03 92.21C93.03 92.97 93.03 93.72 93.03 94.48C94 94.57 94.94 94.48 95.87 94.2C97.38 92.58 98.52 90.79 99.27 88.81C99.95 89.53 100.9 89.91 102.11 89.94C103.17 89.94 104.12 89.75 104.95 89.38C106.01 88.9 107.15 88.71 108.35 88.81C109.9 88.99 111.22 88.62 112.32 87.67C113.22 87.39 113.51 86.82 113.17 85.97C111.47 84.51 109.86 83 108.35 81.43C108.16 80.96 107.78 80.77 107.22 80.87C109.45 79.12 110.49 76.85 110.34 74.06C109.96 74.48 109.48 74.67 108.92 74.62C111.01 72.54 113.28 70.65 115.73 68.95C117.39 68.05 118.9 66.91 120.27 65.55Z" fill="#3A3A3A" fill-opacity="1.000000" fill-rule="evenodd"/>
	<path id="Vector" d="M123.67 63.28C122.09 63.35 120.95 64.1 120.27 65.55C118.9 66.91 117.39 68.05 115.73 68.95C117.5 66.89 119.39 64.91 121.4 62.99C122.29 62.56 123.04 62.66 123.67 63.28Z" fill="#596163" fill-opacity="1.000000" fill-rule="evenodd"/>
	<path id="Vector" d="M120.27 65.55C122.76 67.19 125.03 69.18 127.07 71.5C127.64 71.69 128.21 71.88 128.78 72.07C130.15 74.74 132.23 75.4 135.02 74.06C135.53 74.46 135.72 75.03 135.58 75.76C131.06 80.75 126.24 85.48 121.12 89.94C120.92 91.54 121.21 93.06 121.97 94.48C120.65 100.25 117.06 102.8 111.19 102.14C107.68 104.73 104.74 107.85 102.39 111.5C102.02 112.45 102.02 113.39 102.39 114.34C106.37 117.93 110.34 121.52 114.31 125.12C114.58 125.65 114.68 126.22 114.59 126.82C112.52 129.17 110.63 128.98 108.92 126.25C108.49 125.25 107.73 124.68 106.65 124.55C103.93 122.11 101.28 119.56 98.71 116.89C97.76 116.7 96.82 116.51 95.87 116.32C92.35 112.71 88.76 109.21 85.09 105.83C84.97 105.16 85.16 104.59 85.66 104.13C89.76 107.02 93.73 110.05 97.57 113.2C98.84 112.8 99.88 112.04 100.69 110.93C103.79 106.89 107.1 103.01 110.62 99.3C113.03 99.19 115.4 98.91 117.71 98.45C118.43 97.31 118.9 96.08 119.13 94.76C118.61 92.98 118.51 91.19 118.85 89.38C122.73 85.11 126.61 80.86 130.48 76.61C126.72 73.14 123.32 69.46 120.27 65.55Z" fill="#252626" fill-opacity="1.000000" fill-rule="evenodd"/>
	<path id="Vector" d="M107.22 80.87C106.65 81.05 106.27 81.43 106.08 82C103.61 83.34 101.72 85.23 100.41 87.67C99.84 87.86 99.46 88.24 99.27 88.81C98.52 90.79 97.38 92.58 95.87 94.2C94.94 94.48 94 94.57 93.03 94.48C93.03 93.72 93.03 92.97 93.03 92.21C93.44 90.93 93.63 89.6 93.6 88.24C94.4 87.97 94.78 87.4 94.74 86.54C95.53 86.27 95.91 85.7 95.87 84.84C97.8 81.58 100.45 79.12 103.81 77.46C104.68 77.5 105.25 77.12 105.52 76.33C106.51 75.53 107.65 74.96 108.92 74.62C109.48 74.67 109.96 74.48 110.34 74.06C110.49 76.85 109.45 79.12 107.22 80.87Z" fill="#282726" fill-opacity="1.000000" fill-rule="evenodd"/>
	<path id="Vector" d="M60.13 72.92C61.44 74.96 62.19 77.23 62.4 79.73C61.31 77.61 60.56 75.34 60.13 72.92Z" fill="#FFD8C4" fill-opacity="1.000000" fill-rule="evenodd"/>
	<path id="Vector" d="M1.7 75.19C1.74 76.06 1.36 76.63 0.56 76.89C0.52 76.03 0.9 75.46 1.7 75.19Z" fill="#E9C8B3" fill-opacity="1.000000" fill-rule="evenodd"/>
	<path id="Vector" d="M104.38 76.33C104.76 76.33 105.14 76.33 105.52 76.33C105.25 77.12 104.68 77.5 103.81 77.46C104 77.08 104.19 76.71 104.38 76.33Z" fill="#71655E" fill-opacity="1.000000" fill-rule="evenodd"/>
	<path id="Vector" d="M135.58 75.76C135.91 76.76 136.38 77.7 137 78.6C140.09 81.29 143.11 84.13 146.08 87.11C146.46 87.67 146.46 88.24 146.08 88.81C144.54 90.63 143.12 92.52 141.82 94.48C141.03 94.75 140.65 95.32 140.69 96.18C138.18 98.5 136.1 101.15 134.45 104.13C133.26 104.74 132.51 105.69 132.18 106.96C126.11 113.41 120.24 120.03 114.59 126.82C114.68 126.22 114.58 125.65 114.31 125.12C110.34 121.52 106.37 117.93 102.39 114.34C102.02 113.39 102.02 112.45 102.39 111.5C104.74 107.85 107.68 104.73 111.19 102.14C117.06 102.8 120.65 100.25 121.97 94.48C121.21 93.06 120.92 91.54 121.12 89.94C126.24 85.48 131.06 80.75 135.58 75.76Z" fill="#3B3B3B" fill-opacity="1.000000" fill-rule="evenodd"/>
	<path id="Vector" d="M26.09 80.87C27.41 81.05 28.17 81.81 28.36 83.13C27.41 82.57 26.66 81.81 26.09 80.87Z" fill="#B3B3B3" fill-opacity="1.000000" fill-rule="evenodd"/>
	<path id="Vector" d="M23.25 80.87C24.2 80.87 25.14 80.87 26.09 80.87C26.66 81.81 27.41 82.57 28.36 83.13C28.9 84.14 29.09 85.27 28.93 86.54C28.74 86.54 28.55 86.54 28.36 86.54C26.96 86.68 25.82 87.25 24.96 88.24C23.38 91.21 20.92 92.91 17.58 93.35C16.78 93.61 16.4 94.18 16.45 95.05C15.54 96.74 14.22 97.12 12.47 96.18C11.11 94.82 9.97 93.31 9.07 91.64C10.21 89.75 11.34 87.86 12.47 85.97C13.14 85.4 13.52 84.64 13.61 83.7C14.25 82.78 15 81.93 15.88 81.15C18.44 81.13 20.9 81.04 23.25 80.87Z" fill="#2F2D2B" fill-opacity="1.000000" fill-rule="evenodd"/>
	<path id="Vector" d="M107.22 80.87C107.78 80.77 108.16 80.96 108.35 81.43C107.6 81.62 106.84 81.81 106.08 82C106.27 81.43 106.65 81.05 107.22 80.87Z" fill="#9E7057" fill-opacity="1.000000" fill-rule="evenodd"/>
	<path id="Vector" d="M108.35 81.43C109.86 83 111.47 84.51 113.17 85.97C113.51 86.82 113.22 87.39 112.32 87.67C110.87 87.8 109.54 88.18 108.35 88.81C107.15 88.71 106.01 88.9 104.95 89.38C103.24 89.47 101.53 89.37 99.84 89.09C100.27 88.71 100.46 88.24 100.41 87.67C101.72 85.23 103.61 83.34 106.08 82C106.84 81.81 107.6 81.62 108.35 81.43Z" fill="#F4A47A" fill-opacity="1.000000" fill-rule="evenodd"/>
	<path id="Vector" d="M20.98 83.7C23.34 85.98 23.15 88.16 20.42 90.23C19.24 90.68 18.1 90.59 17.01 89.94C17.78 88.99 18.54 88.04 19.28 87.11C19.53 85.78 20.1 84.64 20.98 83.7Z" fill="#EDEDED" fill-opacity="1.000000" fill-rule="evenodd"/>
	<path id="Vector" d="M20.98 83.7C20.1 84.64 19.53 85.78 19.28 87.11C18.99 82.58 18.52 82.58 17.86 87.11C17.29 87.78 16.62 88.35 15.88 88.81C13.89 85.62 14.74 83.54 18.43 82.57C19.5 82.58 20.35 82.96 20.98 83.7Z" fill="#D9D9D9" fill-opacity="1.000000" fill-rule="evenodd"/>
	<path id="Vector" d="M13.61 83.7C13.52 84.64 13.14 85.4 12.47 85.97C12.32 84.9 12.7 84.15 13.61 83.7Z" fill="#9B6D54" fill-opacity="1.000000" fill-rule="evenodd"/>
	<path id="Vector" d="M83.96 84.84C82.93 85.64 82.55 86.78 82.82 88.24C82.27 87.05 82.08 85.72 82.25 84.27C82.99 84.13 83.55 84.32 83.96 84.84Z" fill="#EEC0A4" fill-opacity="1.000000" fill-rule="evenodd"/>
	<path id="Vector" d="M85.66 85.97C87.56 86.08 89.26 86.65 90.76 87.67C88.83 87.66 87.12 87.09 85.66 85.97Z" fill="#EFC0A5" fill-opacity="1.000000" fill-rule="evenodd"/>
	<path id="Vector" d="M95.87 84.84C95.91 85.7 95.53 86.27 94.74 86.54C94.69 85.67 95.07 85.1 95.87 84.84Z" fill="#8A624D" fill-opacity="1.000000" fill-rule="evenodd"/>
	<path id="Vector" d="M28.36 86.54C27.49 87.53 26.36 88.1 24.96 88.24C25.82 87.25 26.96 86.68 28.36 86.54Z" fill="#946952" fill-opacity="1.000000" fill-rule="evenodd"/>
	<path id="Vector" d="M112.32 87.67C111.22 88.62 109.9 88.99 108.35 88.81C109.54 88.18 110.87 87.8 112.32 87.67Z" fill="#7C6051" fill-opacity="1.000000" fill-rule="evenodd"/>
	<path id="Vector" d="M100.41 87.67C100.46 88.24 100.27 88.71 99.84 89.09C101.53 89.37 103.24 89.47 104.95 89.38C104.12 89.75 103.17 89.94 102.11 89.94C100.9 89.91 99.95 89.53 99.27 88.81C99.46 88.24 99.84 87.86 100.41 87.67Z" fill="#A9785E" fill-opacity="1.000000" fill-rule="evenodd"/>
	<path id="Vector" d="M113.46 92.78C116.29 92.67 117.23 93.9 116.29 96.47C113.03 97.11 112.08 95.88 113.46 92.78Z" fill="#232423" fill-opacity="1.000000" fill-rule="evenodd"/>
	<path id="Vector" d="M17.58 93.35C17.62 94.21 17.24 94.78 16.45 95.05C16.4 94.18 16.78 93.61 17.58 93.35Z" fill="#9F7056" fill-opacity="1.000000" fill-rule="evenodd"/>
	<path id="Vector" d="M22.12 99.02C23.03 99.91 24.16 100.29 25.52 100.15C25.71 100.15 25.9 100.15 26.09 100.15C27.48 100.71 28.99 100.9 30.63 100.72C31.81 102 32 103.42 31.2 104.98C28.37 105.26 25.53 105.35 22.69 105.26C24.32 110.36 24.69 115.46 23.82 120.58C23.25 119.44 22.69 118.31 22.12 117.17C21.19 113.83 20.06 110.62 18.71 107.53C18.25 104.33 17.87 101.11 17.58 97.88C19.25 97.76 20.77 98.14 22.12 99.02Z" fill="#CEF2FC" fill-opacity="1.000000" fill-rule="evenodd"/>
	<path id="Vector" d="M22.12 99.02C23.48 98.88 24.61 99.26 25.52 100.15C24.16 100.29 23.03 99.91 22.12 99.02Z" fill="#EAC7B2" fill-opacity="1.000000" fill-rule="evenodd"/>
	<path id="Vector" d="M35.17 99.59C33.8 100.31 32.29 100.69 30.63 100.72C28.99 100.9 27.48 100.71 26.09 100.15C29.13 100.17 32.16 99.98 35.17 99.59Z" fill="#F6DECF" fill-opacity="1.000000" fill-rule="evenodd"/>
	<path id="Vector" d="M63.53 84.84C64.24 87.17 64.71 89.63 64.95 92.21C65.33 98.64 65.33 105.07 64.95 111.5C64.82 112.2 64.54 112.77 64.1 113.2C64.94 103.73 64.75 94.27 63.53 84.84Z" fill="#FFDAC7" fill-opacity="1.000000" fill-rule="evenodd"/>
	<path id="Vector" d="M18.71 107.53C20.06 110.62 21.19 113.83 22.12 117.17C20.33 114.26 19.19 111.05 18.71 107.53Z" fill="#EBC5AE" fill-opacity="1.000000" fill-rule="evenodd"/>
	<path id="Vector" d="M32.9 133.06C36.21 134 39.62 134.38 43.11 134.19C40.57 134.84 37.92 134.94 35.17 134.48C34.28 134.13 33.52 133.66 32.9 133.06Z" fill="#FED8C3" fill-opacity="1.000000" fill-rule="evenodd"/>
	<path id="Vector" d="M68.07 143.27C66.92 144.51 65.41 145.08 63.53 144.97C64.87 144.07 66.38 143.5 68.07 143.27Z" fill="#F0BEA2" fill-opacity="1.000000" fill-rule="evenodd"/>
</svg>
