<svg width="135.130676" height="163.123718" viewBox="0 0 135.131 163.124" fill="none" xmlns="http://www.w3.org/2000/svg" xmlns:xlink="http://www.w3.org/1999/xlink">
	<desc>
			Created with Pixso.
	</desc>
	<defs/>
	<path id="Vector" d="M70.45 0.48C83.23 3.47 90.9 11.47 93.46 24.48C93.38 29.05 93.46 33.62 93.71 38.19C93.8 39.59 94.04 40.9 94.44 42.11C94.28 44.33 94.45 46.45 94.93 48.47C95.25 52.81 95.74 57.05 96.4 61.2C97.2 63.55 97.69 66 97.87 68.55C98.3 72.57 98.95 76.49 99.83 80.3C99.79 82.12 99.95 83.92 100.32 85.69C100.37 92.06 100.2 98.43 99.83 104.79C98.87 111.86 97.16 118.72 94.69 125.35C91.87 130.86 87.71 134.94 82.2 137.6C80.29 138.07 78.5 138.72 76.81 139.55C75.51 139.51 74.37 139.84 73.38 140.53C73.22 140.53 73.06 140.53 72.89 140.53C70.32 140.71 67.87 141.2 65.55 142C64.02 142.1 62.55 142.43 61.14 142.98C58.27 143.25 55.49 143.74 52.82 144.45C49.39 144.26 45.96 144.09 42.53 143.96C41.12 144.11 39.82 143.95 38.62 143.47C37.56 143.03 36.42 142.7 35.19 142.49C34.09 142.02 32.95 141.7 31.76 141.51C25.3 138.24 20.16 133.5 16.34 127.31C14.79 124.39 13.4 121.45 12.17 118.5C11.77 115.25 11.6 111.99 11.68 108.7C12.37 107.48 12.86 106.17 13.15 104.79C13.53 104.41 13.77 103.92 13.89 103.32C14.51 106.8 16.55 108.6 20.01 108.7C19.17 110.31 18.68 112.02 18.54 113.85C19.24 117.25 20.14 120.59 21.23 123.88C21.89 124.54 22.54 124.54 23.19 123.88C23.76 120.97 24.17 118.03 24.42 115.07C25.86 115.62 27.25 116.27 28.58 117.03C30.43 116.46 32.31 116.22 34.21 116.29C34.89 116.92 35.38 117.65 35.68 118.5C36.81 120.67 38.6 121.49 41.07 120.95C41.14 121.78 41.06 122.59 40.82 123.39C38.92 126.25 37.53 129.35 36.66 132.7C36.67 133.45 37 134.02 37.64 134.41C39 134.68 40.31 135.09 41.56 135.64C41.93 136.01 42.42 136.26 43.02 136.37C46.87 136.77 50.62 136.69 54.29 136.13C55.21 135.84 55.7 135.19 55.76 134.17C54.63 130.47 53.82 126.72 53.31 122.9C54.88 123.06 56.35 122.89 57.71 122.42C59.81 121.61 61.44 120.22 62.61 118.25C63.59 117.95 64.4 118.2 65.06 118.99C65.66 119.94 66.47 120.68 67.51 121.19C69.46 121.44 71.42 121.52 73.38 121.44C73.38 124.86 73.38 128.29 73.38 131.72C74.72 131.3 76.02 130.73 77.3 130C79.98 127.99 82.26 125.63 84.16 122.9C84.54 119.28 85.36 115.69 86.61 112.13C86.61 111.97 86.61 111.81 86.61 111.64C87.17 106.5 87.25 101.28 86.85 95.97C86.67 95 86.26 94.18 85.63 93.52C84.97 91.28 83.5 90.55 81.22 91.32C80.63 91.83 80.14 92.4 79.75 93.03C76.17 94.99 72.58 96.95 68.98 98.91C67.05 99.4 65.09 99.56 63.1 99.4C63.24 96.08 64.05 92.98 65.55 90.1C69.12 82.17 72.63 74.18 76.08 66.1C76.4 64.96 76.4 63.82 76.08 62.67C74.53 61.25 72.9 59.94 71.18 58.76C70.88 56.75 71.78 55.53 73.87 55.08C78.07 54.63 81.91 53.24 85.38 50.92C86.28 49.85 86.85 48.63 87.1 47.25C86.35 43.88 85.13 40.7 83.42 37.7C81.16 35.08 78.79 32.63 76.32 30.36C76.15 28.19 75.49 26.23 74.36 24.48C74.05 22.94 73.24 21.72 71.92 20.81C62.23 14.65 53.17 15.38 44.74 23.01C42.81 27.08 40.93 31.16 39.11 35.25C38.23 35.89 37.41 36.62 36.66 37.46C36.19 37.69 35.7 37.77 35.19 37.7C34.18 28.84 35.73 20.51 39.84 12.73C42.9 8.69 46.57 5.34 50.86 2.69C53.34 1.5 55.95 0.76 58.69 0.48C62.61 -0.17 66.53 -0.17 70.45 0.48Z" fill="#FDAA7F" fill-opacity="1.000000" fill-rule="evenodd"/>
	<path id="Vector" d="M74.36 24.48C74.73 26.57 75.39 28.53 76.32 30.36C78.79 32.63 81.16 35.08 83.42 37.7C85.13 40.7 86.35 43.88 87.1 47.25C86.85 48.63 86.28 49.85 85.38 50.92C81.91 53.24 78.07 54.63 73.87 55.08C71.78 55.53 70.88 56.75 71.18 58.76C72.9 59.94 74.53 61.25 76.08 62.67C76.4 63.82 76.4 64.96 76.08 66.1C72.63 74.18 69.12 82.17 65.55 90.1C63.75 90.1 61.96 90.1 60.16 90.1C60.16 89.93 60.16 89.77 60.16 89.61C59.98 87.36 59.49 85.24 58.69 83.24C58.48 81.19 57.99 79.24 57.22 77.36C57.27 76.07 56.94 74.92 56.25 73.94C56.25 73.12 56.25 72.3 56.25 71.49C55.31 71.35 54.49 71.51 53.8 71.98C50.42 72.62 46.99 72.62 43.51 71.98C43.51 71.81 43.51 71.65 43.51 71.49C43.31 67.84 43.64 64.25 44.49 60.72C44.91 60.21 45.4 59.81 45.96 59.49C47.26 59.25 48.56 59.17 49.88 59.25C49.32 56.99 47.85 55.6 45.47 55.08C44.34 54.84 43.2 54.76 42.04 54.84C42.04 54.68 42.04 54.51 42.04 54.35C43.02 54.35 44 54.35 44.98 54.35C43.7 51.13 42.15 48.03 40.33 45.05C39.29 41.87 38.88 38.6 39.11 35.25C40.93 31.16 42.81 27.08 44.74 23.01C53.17 15.38 62.23 14.65 71.92 20.81C73.24 21.72 74.05 22.94 74.36 24.48Z" fill="#FDFCFC" fill-opacity="1.000000" fill-rule="evenodd"/>
	<path id="Vector" d="M49.39 30.84C47.93 29.59 46.29 29.27 44.49 29.87C44.8 29.16 45.38 28.83 46.21 28.89C47.13 29.03 48.03 29.28 48.9 29.62C49.27 29.95 49.43 30.36 49.39 30.84Z" fill="#A3CDFD" fill-opacity="1.000000" fill-rule="evenodd"/>
	<path id="Vector" d="M49.39 30.84C50.15 31.97 50.47 33.28 50.37 34.76C50.45 39.18 48.32 41.05 44 40.39C42.77 39.22 42.28 37.75 42.53 35.99C42.56 34.24 42.8 32.52 43.27 30.84C43.62 30.41 44.02 30.09 44.49 29.87C46.29 29.27 47.93 29.59 49.39 30.84Z" fill="#1E80FB" fill-opacity="1.000000" fill-rule="evenodd"/>
	<path id="Vector" d="M74.36 24.48C75.49 26.23 76.15 28.19 76.32 30.36C75.39 28.53 74.73 26.57 74.36 24.48Z" fill="#FFDAC7" fill-opacity="1.000000" fill-rule="evenodd"/>
	<path id="Vector" d="M66.04 40.15C65.79 37.25 66.12 34.48 67.02 31.82C68.02 31.33 69 30.84 69.96 30.36C70.55 29.73 71.2 29.73 71.92 30.36C75.87 33.17 76.36 36.51 73.38 40.39C71.4 41.54 69.28 41.87 67.02 41.37C66.59 41.03 66.26 40.62 66.04 40.15Z" fill="#177FFB" fill-opacity="1.000000" fill-rule="evenodd"/>
	<path id="Vector" d="M69.96 30.36C69 30.84 68.02 31.33 67.02 31.82C67.6 30.61 68.58 30.12 69.96 30.36Z" fill="#71AFFC" fill-opacity="1.000000" fill-rule="evenodd"/>
	<path id="Vector" d="M67.02 31.82C66.12 34.48 65.79 37.25 66.04 40.15C65.48 37.79 65.39 35.34 65.79 32.8C66.14 32.37 66.55 32.05 67.02 31.82Z" fill="#A3CEFD" fill-opacity="1.000000" fill-rule="evenodd"/>
	<path id="Vector" d="M62.61 51.41C60.01 53.68 57.56 56.13 55.27 58.76C54.29 59.44 53.39 59.27 52.57 58.27C52.44 55.75 51.95 53.3 51.1 50.92C50.78 48.15 50.78 45.37 51.1 42.6C51.35 42.35 51.59 42.11 51.84 41.86C55.06 41.3 58.16 41.63 61.14 42.84C63.77 45.37 64.26 48.22 62.61 51.41Z" fill="#FEAB80" fill-opacity="1.000000" fill-rule="evenodd"/>
	<path id="Vector" d="M96.4 43.09C99.06 44.5 101.67 46.05 104.23 47.74C106.76 49.62 108.97 51.82 110.85 54.35C114.27 59.41 117.7 64.47 121.13 69.53C122.94 72.51 124.49 75.61 125.78 78.83C125.74 79.58 126.07 80.07 126.76 80.3C127.78 81.38 128.27 82.68 128.23 84.22C128.19 84.97 128.52 85.46 129.21 85.69C129.95 87.08 130.44 88.55 130.68 90.1C130.13 92.67 130.05 95.28 130.43 97.93C133.75 108.18 133.09 118.14 128.47 127.8C128.08 129.46 127.59 131.1 127 132.7C121.57 136.82 116.43 141.31 111.58 146.16C100.19 152.68 87.94 156.44 74.85 157.43C59.98 157.5 45.13 157.09 30.29 156.2C30.29 156.69 30.29 157.18 30.29 157.67C21.42 155.36 13.91 150.79 7.77 143.96C7.48 142.86 6.83 142.04 5.81 141.51C-2.18 130.58 -1.94 119.81 6.54 109.19C7.54 108.03 8.68 107.05 9.97 106.26C10.87 105.1 11.45 103.79 11.68 102.34C12.01 101.36 12.34 100.38 12.66 99.4C13.12 101.15 13.28 102.94 13.15 104.79C12.86 106.17 12.37 107.48 11.68 108.7C11.06 111.74 11.06 114.84 11.68 118.01C10.94 118.01 10.37 118.34 9.97 118.99C9.94 123.96 11.58 128.37 14.87 132.21C19.3 137.56 24.93 140.67 31.76 141.51C32.95 141.7 34.09 142.02 35.19 142.49C35.24 142.79 35.41 143.04 35.68 143.23C36.65 143.47 37.62 143.55 38.62 143.47C39.82 143.95 41.12 144.11 42.53 143.96C45.85 144.73 49.28 145.06 52.82 144.94C57.86 146.8 63.08 147.37 68.49 146.65C74 145.45 79.39 143.82 84.65 141.76C91.53 138.47 95.86 133.16 97.62 125.84C98.36 124.46 99.42 123.39 100.81 122.66C104.69 122.16 108.45 121.26 112.07 119.97C112.63 119.03 112.71 118.05 112.31 117.03C109.41 112.77 107.78 108.03 107.42 102.83C107.41 92.93 106.43 83.14 104.48 73.45C103.35 68.83 101.15 64.83 97.87 61.45C97.4 61.21 96.91 61.13 96.4 61.2C96.45 56.83 95.96 52.59 94.93 48.47C94.85 46.51 94.93 44.55 95.18 42.6C95.5 42.97 95.91 43.13 96.4 43.09Z" fill="#1B4DB7" fill-opacity="1.000000" fill-rule="evenodd"/>
	<path id="Vector" d="M94.44 42.11C95.36 41.97 96.01 42.3 96.4 43.09C95.91 43.13 95.5 42.97 95.18 42.6C94.93 44.55 94.85 46.51 94.93 48.47C94.45 46.45 94.28 44.33 94.44 42.11Z" fill="#787DB0" fill-opacity="1.000000" fill-rule="evenodd"/>
	<path id="Vector" d="M94.93 48.47C95.96 52.59 96.45 56.83 96.4 61.2C95.74 57.05 95.25 52.81 94.93 48.47Z" fill="#A98694" fill-opacity="1.000000" fill-rule="evenodd"/>
	<path id="Vector" d="M42.04 54.35C42.04 54.51 42.04 54.68 42.04 54.84C41.49 56.51 40.83 58.14 40.09 59.74C39.4 59.97 39.07 60.46 39.11 61.2C37.56 64.31 35.76 67.24 33.72 70.02C33.31 70.19 33.15 70.51 33.23 71C30.24 71.11 27.3 70.79 24.42 70.02C24.42 69.86 24.42 69.69 24.42 69.53C26.48 67.54 28.19 65.26 29.56 62.67C32.49 59.3 35.84 56.44 39.6 54.1C40.52 53.72 41.34 53.8 42.04 54.35Z" fill="#2852B6" fill-opacity="1.000000" fill-rule="evenodd"/>
	<path id="Vector" d="M42.04 54.84C43.2 54.76 44.34 54.84 45.47 55.08C47.85 55.6 49.32 56.99 49.88 59.25C48.56 59.17 47.26 59.25 45.96 59.49C45.4 59.81 44.91 60.21 44.49 60.72C43.64 64.25 43.31 67.84 43.51 71.49C41.31 71.35 39.11 71.19 36.9 71C35.63 70.98 34.56 70.66 33.72 70.02C35.76 67.24 37.56 64.31 39.11 61.2C39.8 60.97 40.12 60.48 40.09 59.74C40.83 58.14 41.49 56.51 42.04 54.84Z" fill="#FAAA82" fill-opacity="1.000000" fill-rule="evenodd"/>
	<path id="Vector" d="M62.61 51.41C61.72 54.82 59.84 57.59 56.98 59.74C56.45 59.28 55.88 58.95 55.27 58.76C57.56 56.13 60.01 53.68 62.61 51.41Z" fill="#FEECD8" fill-opacity="1.000000" fill-rule="evenodd"/>
	<path id="Vector" d="M40.09 59.74C40.12 60.48 39.8 60.97 39.11 61.2C39.07 60.46 39.4 59.97 40.09 59.74Z" fill="#8C799C" fill-opacity="1.000000" fill-rule="evenodd"/>
	<path id="Vector" d="M96.4 61.2C96.91 61.13 97.4 61.21 97.87 61.45C101.15 64.83 103.35 68.83 104.48 73.45C106.43 83.14 107.41 92.93 107.42 102.83C107.78 108.03 109.41 112.77 112.31 117.03C112.71 118.05 112.63 119.03 112.07 119.97C108.45 121.26 104.69 122.16 100.81 122.66C99.42 123.39 98.36 124.46 97.62 125.84C95.86 133.16 91.53 138.47 84.65 141.76C79.39 143.82 74 145.45 68.49 146.65C63.08 147.37 57.86 146.8 52.82 144.94C52.82 144.78 52.82 144.61 52.82 144.45C55.76 144.53 58.53 144.04 61.14 142.98C62.55 142.43 64.02 142.1 65.55 142C68.19 142.19 70.64 141.7 72.89 140.53C73.06 140.53 73.22 140.53 73.38 140.53C74.68 140.58 75.83 140.25 76.81 139.55C78.87 139.47 80.67 138.81 82.2 137.6C87.71 134.94 91.87 130.86 94.69 125.35C97.16 118.72 98.87 111.86 99.83 104.79C100.55 100.98 100.87 97.06 100.81 93.03C100.81 90.5 100.64 88.05 100.32 85.69C99.95 83.92 99.79 82.12 99.83 80.3C99.69 76.23 99.04 72.31 97.87 68.55C97.69 66 97.2 63.55 96.4 61.2Z" fill="#123080" fill-opacity="1.000000" fill-rule="evenodd"/>
	<path id="Vector" d="M10.22 67.57C12.38 68.29 14.66 68.62 17.07 68.55C17.77 69.02 18.58 69.18 19.52 69.04C20.99 69.86 22.62 70.19 24.42 70.02C27.3 70.79 30.24 71.11 33.23 71C36.54 71.81 39.97 72.13 43.51 71.98C46.99 72.62 50.42 72.62 53.8 71.98C54.45 71.98 55.1 71.98 55.76 71.98C55.62 72.76 55.79 73.41 56.25 73.94C56.2 75.24 56.53 76.38 57.22 77.36C57.99 79.24 58.48 81.19 58.69 83.24C58.61 84.56 58.7 85.86 58.94 87.16C58.99 88.21 59.4 89.03 60.16 89.61C60.16 89.77 60.16 89.93 60.16 90.1C59.92 94.99 60.65 99.72 62.37 104.3C62.68 108.06 62.6 111.82 62.12 115.56C60.33 115.56 58.53 115.56 56.74 115.56C56.41 115.56 56.08 115.56 55.76 115.56C53.42 114.88 50.97 114.55 48.41 114.58C38.83 113.04 29.36 111.08 20.01 108.7C16.55 108.6 14.51 106.8 13.89 103.32C13.77 103.92 13.53 104.41 13.15 104.79C13.28 102.94 13.12 101.15 12.66 99.4C12.47 97.82 11.82 96.52 10.71 95.48C8.81 86.77 6.69 78.12 4.34 69.53C4.35 68.78 4.68 68.21 5.32 67.82C6.94 67.57 8.58 67.49 10.22 67.57Z" fill="#404040" fill-opacity="1.000000" fill-rule="evenodd"/>
	<path id="Vector" d="M33.72 70.02C34.56 70.66 35.63 70.98 36.9 71C39.11 71.19 41.31 71.35 43.51 71.49C43.51 71.65 43.51 71.81 43.51 71.98C39.97 72.13 36.54 71.81 33.23 71C33.15 70.51 33.31 70.19 33.72 70.02Z" fill="#A77A64" fill-opacity="1.000000" fill-rule="evenodd"/>
	<path id="Vector" d="M53.8 71.98C54.49 71.51 55.31 71.35 56.25 71.49C56.25 72.3 56.25 73.12 56.25 73.94C55.79 73.41 55.62 72.76 55.76 71.98C55.1 71.98 54.45 71.98 53.8 71.98Z" fill="#959595" fill-opacity="1.000000" fill-rule="evenodd"/>
	<path id="Vector" d="M97.87 68.55C99.04 72.31 99.69 76.23 99.83 80.3C98.95 76.49 98.3 72.57 97.87 68.55Z" fill="#8A6E7E" fill-opacity="1.000000" fill-rule="evenodd"/>
	<path id="Vector" d="M56.25 73.94C56.94 74.92 57.27 76.07 57.22 77.36C56.53 76.38 56.2 75.24 56.25 73.94Z" fill="#989898" fill-opacity="1.000000" fill-rule="evenodd"/>
	<path id="Vector" d="M58.69 83.24C59.49 85.24 59.98 87.36 60.16 89.61C59.4 89.03 58.99 88.21 58.94 87.16C58.7 85.86 58.61 84.56 58.69 83.24Z" fill="#7E7E7E" fill-opacity="1.000000" fill-rule="evenodd"/>
	<path id="Vector" d="M60.16 90.1C61.96 90.1 63.75 90.1 65.55 90.1C64.05 92.98 63.24 96.08 63.1 99.4C65.09 99.56 67.05 99.4 68.98 98.91C72.58 96.95 76.17 94.99 79.75 93.03C79.4 95.37 78.5 97.49 77.06 99.4C72.92 104.69 68.59 109.83 64.08 114.83C61.71 116.12 59.26 116.37 56.74 115.56C58.53 115.56 60.33 115.56 62.12 115.56C62.6 111.82 62.68 108.06 62.37 104.3C60.65 99.72 59.92 94.99 60.16 90.1Z" fill="#6A6A68" fill-opacity="1.000000" fill-rule="evenodd"/>
	<path id="Vector" d="M85.63 93.52C85.63 94.01 85.63 94.5 85.63 94.99C79.33 102.5 73.37 110.33 67.75 118.5C67.02 119.64 66.13 119.8 65.06 118.99C64.4 118.2 63.59 117.95 62.61 118.25C61.44 120.22 59.81 121.61 57.71 122.42C53.93 122.61 50.34 121.88 46.94 120.21C43.19 119.52 39.44 118.95 35.68 118.5C35.38 117.65 34.89 116.92 34.21 116.29C32.31 116.22 30.43 116.46 28.58 117.03C27.25 116.27 25.86 115.62 24.42 115.07C24.17 118.03 23.76 120.97 23.19 123.88C22.54 124.54 21.89 124.54 21.23 123.88C20.14 120.59 19.24 117.25 18.54 113.85C18.68 112.02 19.17 110.31 20.01 108.7C29.36 111.08 38.83 113.04 48.41 114.58C50.75 115.26 53.19 115.59 55.76 115.56C56.08 115.56 56.41 115.56 56.74 115.56C59.26 116.37 61.71 116.12 64.08 114.83C68.59 109.83 72.92 104.69 77.06 99.4C78.5 97.49 79.4 95.37 79.75 93.03C80.14 92.4 80.63 91.83 81.22 91.32C83.5 90.55 84.97 91.28 85.63 93.52Z" fill="#C9EEF8" fill-opacity="1.000000" fill-rule="evenodd"/>
	<path id="Vector" d="M130.68 90.1C131.61 90.82 132.18 91.8 132.39 93.03C132.56 94.69 132.8 96.32 133.13 97.93C133.26 100.36 133.75 102.64 134.59 104.79C134.59 105.11 134.59 105.44 134.59 105.77C135.05 112.44 135.21 119.14 135.08 125.84C134.92 126.17 134.76 126.5 134.59 126.82C133.72 128.29 133.23 129.92 133.13 131.72C132.36 132.7 131.87 133.85 131.66 135.15C129.05 139.32 125.94 143.15 122.35 146.65C118.76 149.27 115.17 151.88 111.58 154.49C108.53 155.75 105.59 157.13 102.77 158.65C100.48 158.92 98.36 159.58 96.4 160.61C95.1 160.57 93.96 160.89 92.97 161.59C92.19 161.46 91.54 161.62 91.01 162.08C88.48 162.29 86.03 162.62 83.67 163.06C72.16 163.22 60.73 163.06 49.39 162.57C48.33 162.12 47.19 161.8 45.96 161.59C40.57 160.91 35.35 159.6 30.29 157.67C30.29 157.18 30.29 156.69 30.29 156.2C45.13 157.09 59.98 157.5 74.85 157.43C87.94 156.44 100.19 152.68 111.58 146.16C116.43 141.31 121.57 136.82 127 132.7C127.59 131.1 128.08 129.46 128.47 127.8C133.09 118.14 133.75 108.18 130.43 97.93C130.05 95.28 130.13 92.67 130.68 90.1Z" fill="#0E3182" fill-opacity="1.000000" fill-rule="evenodd"/>
	<path id="Vector" d="M100.32 85.69C100.64 88.05 100.81 90.5 100.81 93.03C100.87 97.06 100.55 100.98 99.83 104.79C100.2 98.43 100.37 92.06 100.32 85.69Z" fill="#96757E" fill-opacity="1.000000" fill-rule="evenodd"/>
	<path id="Vector" d="M85.63 94.99C85.86 95.47 86.11 95.96 86.36 96.46C86.61 101.52 86.69 106.58 86.61 111.64C86.61 111.81 86.61 111.97 86.61 112.13C84.6 115.4 83.78 118.99 84.16 122.9C82.26 125.63 79.98 127.99 77.3 130C76.02 130.73 74.72 131.3 73.38 131.72C73.38 128.29 73.38 124.86 73.38 121.44C71.42 121.52 69.46 121.44 67.51 121.19C66.47 120.68 65.66 119.94 65.06 118.99C66.13 119.8 67.02 119.64 67.75 118.5C73.37 110.33 79.33 102.5 85.63 94.99Z" fill="#FEFDFD" fill-opacity="1.000000" fill-rule="evenodd"/>
	<path id="Vector" d="M10.71 95.48C11.82 96.52 12.47 97.82 12.66 99.4C12.34 100.38 12.01 101.36 11.68 102.34C11.87 99.96 11.55 97.67 10.71 95.48Z" fill="#425F93" fill-opacity="1.000000" fill-rule="evenodd"/>
	<path id="Vector" d="M85.63 93.52C86.26 94.18 86.67 95 86.85 95.97C87.25 101.28 87.17 106.5 86.61 111.64C86.69 106.58 86.61 101.52 86.36 96.46C86.11 95.96 85.86 95.47 85.63 94.99C85.63 94.5 85.63 94.01 85.63 93.52Z" fill="#FFE3D5" fill-opacity="1.000000" fill-rule="evenodd"/>
	<path id="Vector" d="M123.82 112.13C124.64 112.13 125.45 112.13 126.27 112.13C126.4 113.25 126.23 114.32 125.78 115.31C123.9 116.54 121.86 117.28 119.66 117.52C117.38 117.93 116.64 117.12 117.46 115.07C119.57 113.93 121.69 112.95 123.82 112.13Z" fill="#0B3084" fill-opacity="1.000000" fill-rule="evenodd"/>
	<path id="Vector" d="M86.61 112.13C85.36 115.69 84.54 119.28 84.16 122.9C83.78 118.99 84.6 115.4 86.61 112.13Z" fill="#FFD4BE" fill-opacity="1.000000" fill-rule="evenodd"/>
	<path id="Vector" d="M48.41 114.58C50.97 114.55 53.42 114.88 55.76 115.56C53.19 115.59 50.75 115.26 48.41 114.58Z" fill="#8BA1A8" fill-opacity="1.000000" fill-rule="evenodd"/>
	<path id="Vector" d="M11.68 108.7C11.6 111.99 11.77 115.25 12.17 118.5C11.85 118.5 11.68 118.33 11.68 118.01C11.06 114.84 11.06 111.74 11.68 108.7Z" fill="#7F7197" fill-opacity="1.000000" fill-rule="evenodd"/>
	<path id="Vector" d="M11.68 118.01C11.68 118.33 11.85 118.5 12.17 118.5C13.4 121.45 14.79 124.39 16.34 127.31C20.16 133.5 25.3 138.24 31.76 141.51C24.93 140.67 19.3 137.56 14.87 132.21C11.58 128.37 9.94 123.96 9.97 118.99C10.37 118.34 10.94 118.01 11.68 118.01Z" fill="#203481" fill-opacity="1.000000" fill-rule="evenodd"/>
	<path id="Vector" d="M35.68 118.5C39.44 118.95 43.19 119.52 46.94 120.21C50.34 121.88 53.93 122.61 57.71 122.42C56.35 122.89 54.88 123.06 53.31 122.9C53.82 126.72 54.63 130.47 55.76 134.17C55.7 135.19 55.21 135.84 54.29 136.13C50.03 136.23 45.78 136.07 41.56 135.64C40.31 135.09 39 134.68 37.64 134.41C37 134.02 36.67 133.45 36.66 132.7C37.53 129.35 38.92 126.25 40.82 123.39C41.06 122.59 41.14 121.78 41.07 120.95C38.6 121.49 36.81 120.67 35.68 118.5Z" fill="#FEFBFA" fill-opacity="1.000000" fill-rule="evenodd"/>
	<path id="Vector" d="M118.92 120.46C123.57 120.4 125.53 122.61 124.8 127.07C123.43 127.52 122.36 127.11 121.62 125.84C120.37 124.2 119.47 122.4 118.92 120.46Z" fill="#0B3082" fill-opacity="1.000000" fill-rule="evenodd"/>
	<path id="Vector" d="M41.56 135.64C45.78 136.07 50.03 136.23 54.29 136.13C50.62 136.69 46.87 136.77 43.02 136.37C42.42 136.26 41.93 136.01 41.56 135.64Z" fill="#FED0B7" fill-opacity="1.000000" fill-rule="evenodd"/>
	<path id="Vector" d="M82.2 137.6C80.67 138.81 78.87 139.47 76.81 139.55C78.5 138.72 80.29 138.07 82.2 137.6Z" fill="#5F567F" fill-opacity="1.000000" fill-rule="evenodd"/>
	<path id="Vector" d="M76.81 139.55C75.83 140.25 74.68 140.58 73.38 140.53C74.37 139.84 75.51 139.51 76.81 139.55Z" fill="#645A7F" fill-opacity="1.000000" fill-rule="evenodd"/>
	<path id="Vector" d="M72.89 140.53C70.64 141.7 68.19 142.19 65.55 142C67.87 141.2 70.32 140.71 72.89 140.53Z" fill="#5A537F" fill-opacity="1.000000" fill-rule="evenodd"/>
	<path id="Vector" d="M35.19 142.49C36.42 142.7 37.56 143.03 38.62 143.47C37.62 143.55 36.65 143.47 35.68 143.23C35.41 143.04 35.24 142.79 35.19 142.49Z" fill="#6E6CA3" fill-opacity="1.000000" fill-rule="evenodd"/>
	<path id="Vector" d="M61.14 142.98C58.53 144.04 55.76 144.53 52.82 144.45C55.49 143.74 58.27 143.25 61.14 142.98Z" fill="#665B7F" fill-opacity="1.000000" fill-rule="evenodd"/>
	<path id="Vector" d="M42.53 143.96C45.96 144.09 49.39 144.26 52.82 144.45C52.82 144.61 52.82 144.78 52.82 144.94C49.28 145.06 45.85 144.73 42.53 143.96Z" fill="#6B6BA2" fill-opacity="1.000000" fill-rule="evenodd"/>
</svg>
