<svg width="126.162781" height="134.500000" viewBox="0 0 126.163 134.5" fill="none" xmlns="http://www.w3.org/2000/svg" xmlns:xlink="http://www.w3.org/1999/xlink">
	<desc>
			Created with Pixso.
	</desc>
	<defs/>
	<path id="Vector" d="M71.95 0.03C79.14 0.81 84.5 4.32 88.01 10.58C87.98 11.28 88.28 11.74 88.93 11.96C89.31 12.12 89.47 12.42 89.39 12.88C89.36 13.58 89.66 14.04 90.31 14.26C90.31 14.56 90.31 14.87 90.31 15.17C90.6 16.5 91.05 17.73 91.68 18.84C92.4 23.05 92.25 27.18 91.22 31.24C90.6 32.35 90.14 33.58 89.85 34.91C88.87 36.85 87.88 38.84 86.86 40.87C86.51 41.74 86.58 42.5 87.09 43.17C100.02 43.37 113.02 43.37 126.1 43.17C126.33 44.68 125.87 45.9 124.73 46.84C123.22 48.36 121.54 49.66 119.68 50.74C117.44 51.4 115.29 52.32 113.25 53.49C107.18 56.91 101.06 60.2 94.9 63.36C93.02 63.77 91.33 64.53 89.85 65.66C88.01 65.9 86.48 66.67 85.26 67.95C84.61 68.17 84.31 68.63 84.34 69.33C83.7 69.54 83.39 70 83.42 70.7C82.78 70.92 82.47 71.38 82.5 72.08C81.78 72.82 81.48 73.73 81.59 74.83C80.71 76.55 80.1 78.38 79.75 80.34C79.75 80.49 79.75 80.65 79.75 80.8C79.1 81.72 78.79 82.8 78.83 84.01C78.25 87.51 77.26 90.88 75.85 94.11C74.12 97.12 72.51 100.18 71.03 103.29C70.39 103.51 70.08 103.96 70.11 104.66C68.82 106.03 67.75 107.56 66.9 109.25C66.26 109.47 65.95 109.93 65.98 110.63C65.6 110.79 65.45 111.09 65.52 111.55C64.88 111.77 64.57 112.22 64.61 112.93C64.22 113.08 64.07 113.39 64.15 113.84C63.5 114.06 63.2 114.52 63.23 115.22C61.71 117.2 60.18 119.19 58.64 121.19C57.26 122.16 56.95 123.38 57.72 124.86C58.09 125.57 58.24 126.33 58.18 127.15C58.64 128.67 59.1 130.2 59.56 131.74C59.47 132.24 59.32 132.7 59.1 133.12C57.11 133.04 55.12 133.12 53.13 133.35C52.41 133.63 51.8 134.01 51.3 134.5C50.07 134.34 48.85 134.19 47.63 134.04C45.88 133.59 44.05 133.43 42.12 133.58C42.12 132.81 42.12 132.05 42.12 131.28C42.75 130.16 43.21 128.94 43.5 127.61C44.21 126.49 44.67 125.26 44.87 123.94C38.96 122.44 33.45 120.06 28.35 116.83C25.67 114.53 23.07 112.16 20.55 109.71C20.28 109.42 19.89 109.27 19.4 109.25C18.01 109.44 16.71 109.75 15.5 110.17C13.39 110.07 11.4 110.38 9.53 111.09C9.38 111.09 9.23 111.09 9.08 111.09C6.89 111.22 4.75 111.06 2.65 110.63C2.52 109.76 2.21 108.99 1.73 108.34C1.84 107.24 1.54 106.32 0.82 105.58C0.05 103.82 -0.18 101.98 0.13 100.08C1.16 98.47 2.08 96.78 2.88 95.03C3.21 94.77 3.6 94.62 4.03 94.57C4.98 95.23 6.05 95.53 7.24 95.49C7.46 96.13 7.92 96.44 8.62 96.4C8.77 96.4 8.92 96.4 9.08 96.4C10 97.12 11.07 97.58 12.29 97.78C13.02 98.5 13.94 98.81 15.04 98.7C15.5 98.7 15.96 98.7 16.42 98.7C16.9 95.42 17.2 92.05 17.34 88.6C17.6 87.48 17.9 86.41 18.25 85.39C18.91 84.46 19.21 83.39 19.17 82.18C19.48 81.11 19.78 80.04 20.09 78.96C20.89 78.26 21.35 77.34 21.47 76.21C21.54 75.45 21.85 74.84 22.39 74.37C23.03 74.16 23.34 73.7 23.3 73C25.06 69.11 27.35 65.59 30.19 62.44C31.14 61.95 31.76 61.18 32.02 60.15C32.98 59.65 33.59 58.89 33.86 57.85C33.86 57.7 33.86 57.55 33.86 57.39C34.49 56.24 34.33 55.17 33.4 54.18C32.96 52.69 32.35 51.32 31.56 50.05C31.43 49.18 31.12 48.41 30.65 47.76C30.51 46.88 30.2 46.12 29.73 45.46C29.46 43.88 28.85 42.5 27.89 41.33C26.58 31.59 25.81 21.8 25.6 11.96C26.34 10.73 26.65 9.36 26.52 7.83C27.76 7.15 28.75 7.45 29.5 8.75C30.95 10.57 32.09 12.56 32.94 14.71C32.91 15.41 33.21 15.87 33.86 16.09C35.76 19.89 37.67 23.71 39.59 27.56C42.67 30.41 45.81 33.17 49 35.82C49.53 37.06 49.99 37.21 50.38 36.28C50.26 35.14 49.8 34.22 49 33.53C48.85 32.61 48.7 31.69 48.54 30.78C48.4 29.01 48.1 27.32 47.63 25.73C47.63 23.74 47.63 21.75 47.63 19.76C48.5 18.05 49.11 16.21 49.46 14.26C49.77 13.49 50.07 12.73 50.38 11.96C51.03 11.74 51.33 11.28 51.3 10.58C51.94 10.37 52.25 9.91 52.22 9.21C55.01 4.37 59.14 1.46 64.61 0.49C67.03 0.07 69.47 -0.08 71.95 0.03Z" fill="#FDAB7F" fill-opacity="1.000000" fill-rule="evenodd"/>
	<path id="Vector" d="M76.54 11.96C73.06 10.95 69.54 10.8 65.98 11.5C66.03 11.22 66.19 10.99 66.44 10.81C69.2 10.51 71.95 10.51 74.7 10.81C75.54 10.9 76.15 11.29 76.54 11.96Z" fill="#FED0B8" fill-opacity="1.000000" fill-rule="evenodd"/>
	<path id="Vector" d="M76.54 11.96C78.48 12.67 80.01 13.9 81.13 15.63C81.09 16.33 81.4 16.79 82.05 17.01C82 18.23 82.31 19.3 82.96 20.22C83.66 22.38 84.5 24.52 85.49 26.65C85.86 29.03 85.79 31.32 85.26 33.53C84.69 34.32 84.38 35.23 84.34 36.28C83.35 38.73 81.82 40.71 79.75 42.25C80.35 43.42 80.81 44.64 81.13 45.92C81.02 47.02 81.32 47.94 82.05 48.67C82.77 52.69 82.61 56.67 81.59 60.61C81.02 61.39 80.71 62.31 80.67 63.36C79.49 65.47 78.11 67.45 76.54 69.33C76.04 70.76 75.74 72.29 75.62 73.92C75.62 74.68 75.62 75.45 75.62 76.21C74.81 77.59 74.35 79.12 74.24 80.8C74.24 80.95 74.24 81.11 74.24 81.26C73.59 82.18 73.29 83.25 73.33 84.47C70.29 94.48 64.32 102.36 55.43 108.11C54.15 108.36 52.93 108.75 51.76 109.25C47.48 109.79 43.2 109.79 38.91 109.25C37.63 108.94 36.41 108.48 35.24 107.88C35.02 107.23 34.56 106.93 33.86 106.96C29.89 105.13 26.98 102.23 25.14 98.24C25 97.37 24.7 96.6 24.22 95.94C23.78 92.77 23.63 89.56 23.76 86.31C24.48 85.57 24.79 84.65 24.68 83.55C24.68 83.4 24.68 83.25 24.68 83.09C25.33 82.17 25.64 81.1 25.6 79.88C26.76 76.48 28.29 73.26 30.19 70.24C30.83 70.03 31.14 69.57 31.1 68.87C33.92 63.83 37.67 59.55 42.35 56.02C44.05 51.53 46.35 47.4 49.23 43.63C50.67 41.81 52.43 40.43 54.51 39.5C54.19 39.03 53.89 38.57 53.59 38.12C53.39 36.9 52.93 35.83 52.22 34.91C52.22 34.3 52.22 33.68 52.22 33.07C52.18 30.72 52.49 28.43 53.13 26.19C54.16 24.59 55.08 22.91 55.89 21.14C56.69 20.44 57.15 19.52 57.26 18.39C58.51 16.14 60.19 14.23 62.31 12.65C63.47 12.03 64.69 11.65 65.98 11.5C69.54 10.8 73.06 10.95 76.54 11.96Z" fill="#FEFEFD" fill-opacity="1.000000" fill-rule="evenodd"/>
	<path id="Vector" d="M26.52 7.83C26.65 9.36 26.34 10.73 25.6 11.96C25.68 10.48 25.98 9.1 26.52 7.83Z" fill="#E4CFC0" fill-opacity="1.000000" fill-rule="evenodd"/>
	<path id="Vector" d="M88.01 10.58C88.66 10.8 88.96 11.26 88.93 11.96C88.28 11.74 87.98 11.28 88.01 10.58Z" fill="#EEC1A7" fill-opacity="1.000000" fill-rule="evenodd"/>
	<path id="Vector" d="M89.39 12.88C90.03 13.1 90.34 13.55 90.31 14.26C89.66 14.04 89.36 13.58 89.39 12.88Z" fill="#E4D0C2" fill-opacity="1.000000" fill-rule="evenodd"/>
	<path id="Vector" d="M32.94 14.71C33.59 14.93 33.89 15.39 33.86 16.09C33.21 15.87 32.91 15.41 32.94 14.71Z" fill="#E8C9B5" fill-opacity="1.000000" fill-rule="evenodd"/>
	<path id="Vector" d="M90.31 15.17C91.3 16.14 91.75 17.37 91.68 18.84C91.05 17.73 90.6 16.5 90.31 15.17Z" fill="#E2D3C7" fill-opacity="1.000000" fill-rule="evenodd"/>
	<path id="Vector" d="M81.13 15.63C81.77 15.85 82.08 16.31 82.05 17.01C81.4 16.79 81.09 16.33 81.13 15.63Z" fill="#FED5BF" fill-opacity="1.000000" fill-rule="evenodd"/>
	<path id="Vector" d="M82.05 17.01C82.7 17.93 83.01 19 82.96 20.22C82.31 19.3 82 18.23 82.05 17.01Z" fill="#FFD9C6" fill-opacity="1.000000" fill-rule="evenodd"/>
	<path id="Vector" d="M57.26 18.39C57.15 19.52 56.69 20.44 55.89 21.14C56 20.01 56.46 19.09 57.26 18.39Z" fill="#FED2BB" fill-opacity="1.000000" fill-rule="evenodd"/>
	<path id="Vector" d="M58.18 24.35C60.86 23.89 63.07 24.66 64.84 26.65C65.06 27.24 65.14 27.85 65.07 28.48C63.41 28.34 61.88 27.81 60.48 26.88C58.85 26.55 57.24 26.62 55.66 27.11C55.08 26.94 54.93 26.64 55.2 26.19C56.12 25.38 57.12 24.77 58.18 24.35Z" fill="#D1F4FF" fill-opacity="1.000000" fill-rule="evenodd"/>
	<path id="Vector" d="M74.7 25.27C77.02 25.25 79.32 25.48 81.59 25.96C82.2 26.42 82.81 26.88 83.42 27.33C79.87 27.46 76.35 27.84 72.87 28.48C73.08 27.2 73.69 26.12 74.7 25.27Z" fill="#D0F4FF" fill-opacity="1.000000" fill-rule="evenodd"/>
	<path id="Vector" d="M47.63 25.73C48.1 27.32 48.4 29.01 48.54 30.78C47.76 29.24 47.45 27.56 47.63 25.73Z" fill="#E6CBB9" fill-opacity="1.000000" fill-rule="evenodd"/>
	<path id="Vector" d="M68.74 31.69C67.63 31.67 66.56 31.82 65.52 32.15C65.9 31.47 66.51 31.16 67.36 31.24C67.92 31.24 68.38 31.4 68.74 31.69Z" fill="#FEC9AD" fill-opacity="1.000000" fill-rule="evenodd"/>
	<path id="Vector" d="M53.13 26.19C52.49 28.43 52.18 30.72 52.22 33.07C51.69 31.48 51.61 29.79 51.99 28.02C52.08 27.19 52.46 26.58 53.13 26.19Z" fill="#FEE0D0" fill-opacity="1.000000" fill-rule="evenodd"/>
	<path id="Vector" d="M68.74 31.69C70.59 32.4 72.12 33.55 73.33 35.14C72.61 36.94 71.38 38.24 69.65 39.04C68.28 39.65 66.9 39.65 65.52 39.04C64.24 37.53 62.87 36.07 61.39 34.68C62.5 33.36 63.87 32.52 65.52 32.15C66.56 31.82 67.63 31.67 68.74 31.69Z" fill="#FEAC81" fill-opacity="1.000000" fill-rule="evenodd"/>
	<path id="Vector" d="M85.26 33.53C85.37 34.63 85.06 35.55 84.34 36.28C84.38 35.23 84.69 34.32 85.26 33.53Z" fill="#FED4BE" fill-opacity="1.000000" fill-rule="evenodd"/>
	<path id="Vector" d="M52.22 34.91C52.93 35.83 53.39 36.9 53.59 38.12C52.52 37.35 52.06 36.28 52.22 34.91Z" fill="#FEC3A5" fill-opacity="1.000000" fill-rule="evenodd"/>
	<path id="Vector" d="M65.52 39.04C66.9 39.65 68.28 39.65 69.65 39.04C69.2 39.74 68.51 40.04 67.59 39.96C66.67 40.04 65.98 39.74 65.52 39.04Z" fill="#FFDCCA" fill-opacity="1.000000" fill-rule="evenodd"/>
	<path id="Vector" d="M81.13 45.92C81.85 46.66 82.16 47.57 82.05 48.67C81.32 47.94 81.02 47.02 81.13 45.92Z" fill="#FED8C4" fill-opacity="1.000000" fill-rule="evenodd"/>
	<path id="Vector" d="M33.4 54.18C34.33 55.17 34.49 56.24 33.86 57.39C33.63 56.34 33.48 55.27 33.4 54.18Z" fill="#DDD9D1" fill-opacity="1.000000" fill-rule="evenodd"/>
	<path id="Vector" d="M33.86 57.85C33.59 58.89 32.98 59.65 32.02 60.15C32.29 59.12 32.9 58.35 33.86 57.85Z" fill="#F0BEA2" fill-opacity="1.000000" fill-rule="evenodd"/>
	<path id="Vector" d="M32.02 60.15C31.76 61.18 31.14 61.94 30.19 62.44C30.45 61.41 31.06 60.65 32.02 60.15Z" fill="#F0BEA1" fill-opacity="1.000000" fill-rule="evenodd"/>
	<path id="Vector" d="M81.59 60.61C81.7 61.71 81.39 62.63 80.67 63.36C80.71 62.31 81.02 61.39 81.59 60.61Z" fill="#FED3BD" fill-opacity="1.000000" fill-rule="evenodd"/>
	<path id="Vector" d="M31.1 68.87C31.14 69.57 30.83 70.03 30.19 70.24C30.15 69.54 30.46 69.08 31.1 68.87Z" fill="#FED7C2" fill-opacity="1.000000" fill-rule="evenodd"/>
	<path id="Vector" d="M76.54 69.33C76.7 71.01 76.39 72.54 75.62 73.92C75.74 72.29 76.04 70.76 76.54 69.33Z" fill="#FED8C4" fill-opacity="1.000000" fill-rule="evenodd"/>
	<path id="Vector" d="M23.3 73C23.34 73.7 23.03 74.16 22.39 74.37C22.35 73.67 22.66 73.22 23.3 73Z" fill="#E9C9B5" fill-opacity="1.000000" fill-rule="evenodd"/>
	<path id="Vector" d="M21.47 76.21C21.35 77.34 20.89 78.26 20.09 78.96C20.21 77.83 20.67 76.91 21.47 76.21Z" fill="#E4D0C2" fill-opacity="1.000000" fill-rule="evenodd"/>
	<path id="Vector" d="M75.62 76.21C75.52 77.89 75.06 79.42 74.24 80.8C74.35 79.12 74.81 77.59 75.62 76.21Z" fill="#FECBB1" fill-opacity="1.000000" fill-rule="evenodd"/>
	<path id="Vector" d="M25.6 79.88C25.64 81.1 25.33 82.17 24.68 83.09C24.64 81.88 24.94 80.81 25.6 79.88Z" fill="#FED3BD" fill-opacity="1.000000" fill-rule="evenodd"/>
	<path id="Vector" d="M74.24 81.26C74.29 82.48 73.98 83.55 73.33 84.47C73.29 83.25 73.59 82.18 74.24 81.26Z" fill="#FED2BB" fill-opacity="1.000000" fill-rule="evenodd"/>
	<path id="Vector" d="M19.17 82.18C19.21 83.39 18.91 84.46 18.25 85.39C18.21 84.17 18.52 83.1 19.17 82.18Z" fill="#F0BEA1" fill-opacity="1.000000" fill-rule="evenodd"/>
	<path id="Vector" d="M24.68 83.55C24.79 84.65 24.48 85.57 23.76 86.31C23.65 85.21 23.96 84.29 24.68 83.55Z" fill="#FECEB5" fill-opacity="1.000000" fill-rule="evenodd"/>
	<path id="Vector" d="M17.34 88.6C17.2 92.05 16.9 95.42 16.42 98.7C16.34 96.09 16.42 93.49 16.65 90.9C16.74 90.03 16.97 89.27 17.34 88.6Z" fill="#E4CFBF" fill-opacity="1.000000" fill-rule="evenodd"/>
	<path id="Vector" d="M7.24 95.49C7.94 95.45 8.4 95.76 8.62 96.4C7.92 96.44 7.46 96.13 7.24 95.49Z" fill="#E8CAB6" fill-opacity="1.000000" fill-rule="evenodd"/>
	<path id="Vector" d="M9.08 96.4C10.35 96.25 11.34 96.71 12.06 97.78C10.93 97.58 9.93 97.12 9.08 96.4Z" fill="#E1D5CA" fill-opacity="1.000000" fill-rule="evenodd"/>
	<path id="Vector" d="M24.22 95.94C24.7 96.6 25 97.37 25.14 98.24C24.35 97.72 24.05 96.95 24.22 95.94Z" fill="#FECFB7" fill-opacity="1.000000" fill-rule="evenodd"/>
	<path id="Vector" d="M12.29 97.78C13.39 97.67 14.31 97.98 15.04 98.7C13.94 98.81 13.02 98.5 12.29 97.78Z" fill="#E7CBB9" fill-opacity="1.000000" fill-rule="evenodd"/>
	<path id="Vector" d="M0.82 105.58C1.54 106.32 1.84 107.24 1.73 108.34C1.01 107.6 0.7 106.68 0.82 105.58Z" fill="#DCDCD6" fill-opacity="1.000000" fill-rule="evenodd"/>
	<path id="Vector" d="M33.86 106.96C34.56 106.93 35.02 107.23 35.24 107.88C34.53 107.91 34.08 107.6 33.86 106.96Z" fill="#FECFB6" fill-opacity="1.000000" fill-rule="evenodd"/>
	<path id="Vector" d="M20.55 109.71C18.89 110.05 17.21 110.21 15.5 110.17C16.71 109.75 18.01 109.44 19.4 109.25C19.89 109.27 20.28 109.42 20.55 109.71Z" fill="#E3D1C3" fill-opacity="1.000000" fill-rule="evenodd"/>
	<path id="Vector" d="M38.91 109.25C43.2 109.79 47.48 109.79 51.76 109.25C51.71 109.54 51.55 109.77 51.3 109.94C49.54 110.02 47.78 110.1 46.02 110.17C43.53 110.27 41.16 109.97 38.91 109.25Z" fill="#FFD7C2" fill-opacity="1.000000" fill-rule="evenodd"/>
	<path id="Vector" d="M15.5 110.17C13.63 110.89 11.65 111.19 9.53 111.09C11.4 110.38 13.39 110.07 15.5 110.17Z" fill="#DFD7CE" fill-opacity="1.000000" fill-rule="evenodd"/>
	<path id="Vector" d="M2.65 110.63C4.75 111.06 6.89 111.22 9.08 111.09C8.09 111.39 7.02 111.55 5.86 111.55C4.59 111.54 3.52 111.23 2.65 110.63Z" fill="#DFD6CD" fill-opacity="1.000000" fill-rule="evenodd"/>
</svg>
