<svg width="232" height="252" viewBox="0 0 232 252" fill="none" xmlns="http://www.w3.org/2000/svg">
<path d="M191.371 245.49L200.047 250.912C200.601 251.258 201.24 251.441 201.892 251.441H226.033C227.913 251.441 229.454 249.948 229.512 248.068L231.956 168.624C231.984 167.709 231.651 166.819 231.028 166.149L199.231 131.906C198.634 131.263 198.302 130.417 198.302 129.538V27.9322C198.302 27.4609 198.215 26.9997 198.006 26.5772C193.43 17.3194 172.199 0 120.536 0C68.9839 0 46.0916 17.2453 40.571 26.5176C40.2983 26.9756 40.1718 27.495 40.1585 28.0279L37.6213 129.515C37.599 130.407 37.2345 131.257 36.6032 131.888L2.29059 166.201C1.65266 166.839 1.2874 167.7 1.27184 168.602L0.0227819 241.047C0.0081053 241.899 0.305988 242.726 0.860052 243.372L6.73489 250.226C7.39603 250.997 8.36121 251.441 9.37711 251.441H37.6227C38.4368 251.441 39.2252 251.156 39.8506 250.635L45.6913 245.767C46.3167 245.246 47.105 244.961 47.9191 244.961H189.527C190.179 244.961 190.818 245.144 191.371 245.49Z" fill="#FDD8A4"/>
<path d="M35.232 166.89L53.1396 143.866L62.7822 133.152C63.4934 132.361 64.8044 132.865 64.8044 133.928V168.091C64.8044 168.351 64.7177 168.602 64.5579 168.806L41.7213 197.986C41.5616 198.191 41.4748 198.442 41.4748 198.701V239.296C41.4748 239.603 41.5971 239.898 41.8146 240.116L45.761 244.062C46.2433 244.545 46.2074 245.337 45.6834 245.774L39.8744 250.615C39.3446 251.056 38.5491 250.941 38.1666 250.367L33.8991 243.966C33.7683 243.77 33.7004 243.538 33.7044 243.303L34.9878 167.582C34.9921 167.331 35.0778 167.088 35.232 166.89Z" fill="#FAA32B" fill-opacity="0.5"/>
<path d="M204.544 166.89L186.637 143.866L176.994 133.152C176.283 132.361 174.972 132.865 174.972 133.928V168.091C174.972 168.351 175.059 168.602 175.219 168.806L198.055 197.986C198.215 198.191 198.302 198.442 198.302 198.701V239.296C198.302 239.603 198.179 239.898 197.962 240.116L194.015 244.062C193.533 244.545 193.569 245.337 194.093 245.774L199.902 250.615C200.432 251.056 201.227 250.941 201.61 250.367L205.877 243.966C206.008 243.77 206.076 243.538 206.072 243.303L204.789 167.582C204.784 167.331 204.699 167.088 204.544 166.89Z" fill="#FAA32B" fill-opacity="0.5"/>
<path d="M172.38 58.3241C173.412 41.8045 153.969 28.1979 143.993 23.3907C143.906 23.3489 143.818 23.3202 143.724 23.3013L132.179 20.9923C131.5 20.8565 130.854 21.3421 130.796 22.0321L123.202 111.894C123.158 112.407 123.459 112.888 123.94 113.073L179.526 134.55C179.916 134.7 180.356 134.63 180.679 134.366L193.384 123.971C193.928 123.526 193.954 122.702 193.438 122.223L176.268 106.279C172.812 102.391 165.899 94.0962 165.899 92.0224C165.899 89.4303 171.084 79.0616 172.38 58.3241Z" fill="#FAA32B" fill-opacity="0.5"/>
<path d="M81.6538 102.391C91.5563 96.2021 84.9084 92.7714 84.2907 88.712C84.2358 88.351 84.0704 88.0063 83.7873 87.7758C73.9557 79.7743 76.5473 60.6827 81.6538 45.3633C86.8381 29.8102 106.279 22.0337 121.833 22.0337C137.386 22.0337 156.827 28.5141 163.307 47.9555C169.788 67.3968 160.715 81.6538 156.827 88.1342C152.939 94.6147 159.419 102.391 162.011 104.983C164.078 107.05 187.767 121.301 199.476 128.241C199.559 128.29 199.633 128.348 199.701 128.416L209.627 138.342C209.844 138.559 209.967 138.855 209.967 139.162V152.665C209.967 152.845 209.925 153.022 209.843 153.183C208.466 155.873 205.206 161.297 202.19 163.307C199.225 165.284 195.239 164.277 193.376 163.431C193.204 163.352 193.06 163.227 192.95 163.073L187.339 155.218C186.956 154.682 186.204 154.569 185.714 155.009C181.794 158.529 176.322 166.345 180.157 174.972C184.102 183.85 174.285 198.905 168.112 206.301C167.643 206.864 167.792 207.714 168.416 208.099C173.541 211.258 177.099 214.94 178.984 217.364C179.537 218.076 179.012 219.212 178.235 219.669C174.371 221.942 169.266 229.852 166.484 234.825C166.161 235.402 165.425 235.599 164.812 235.35C160.287 233.514 152.878 234.857 147.93 236.289C146.922 236.581 145.3 235.341 145.087 234.314C144.347 230.749 142.064 225.047 140.441 221.37C140.186 220.792 139.516 220.533 138.93 220.768C135.387 222.184 128.365 224.587 121.833 225.52C115.22 226.464 106.672 224.612 102.263 223.295C101.625 223.104 100.948 223.468 100.772 224.111L97.5295 236.001C97.3542 236.644 96.6758 237.005 96.0297 236.844C90.1077 235.364 80.9933 236.233 76.1641 237.015C75.5942 237.107 75.0385 236.773 74.7392 236.28C72.911 233.264 67.0513 229.065 63.8288 227.018C63.6209 226.886 63.4547 226.694 63.3838 226.458C61.869 221.421 68.9751 212.441 73.2942 207.968C73.6411 207.609 73.7283 207.076 73.4966 206.634C72.2434 204.242 69.0351 198.44 63.5085 189.229C57.5465 179.293 59.0439 163.008 60.7 155.204C60.8192 154.642 60.5202 154.082 60.004 153.831C53.9618 150.893 49.3745 143.252 51.8437 130.905C54.4359 117.944 74.9684 106.57 81.6538 102.391Z" fill="#7B74DA"/>
<path d="M127.017 209.966C151.82 209.966 162.374 190.222 164.582 180.254C164.597 180.187 164.605 180.122 164.607 180.053L165.886 145.518C165.895 145.286 165.837 145.063 165.715 144.866C161.331 137.798 152.665 121.961 151.642 112.76C150.346 101.095 138.681 98.5027 137.385 98.5027C136.089 98.5027 134.793 94.6145 139.978 94.6145C145.162 94.6145 151.642 93.3184 154.235 89.4301C156.827 85.5418 155.531 80.3575 151.642 77.7653C148.556 75.7075 147.766 68.3745 147.754 64.8847C147.754 64.8299 147.75 64.7787 147.743 64.7244C146.443 55.6406 143.79 40.1787 117.944 40.1787C92.0223 40.1787 93.3183 63.5083 93.3183 66.1005C93.3183 68.118 90.0471 72.7525 88.2783 74.9915C88.183 75.1122 88.1102 75.2549 88.0696 75.4032C84.1658 89.6436 98.3572 94.1264 106.127 94.6056C106.23 94.6119 106.329 94.6301 106.426 94.6663C107.664 95.1312 108.676 96.2089 103.687 97.2066C98.7154 98.201 94.9357 103.248 93.4909 105.946C93.3752 106.162 93.3416 106.407 93.3724 106.65C93.727 109.449 93.392 115.584 89.4301 120.536C84.2457 127.017 85.5418 130.905 85.5418 132.201C85.5418 133.497 90.7262 136.089 94.6144 147.754C97.3649 156.006 95.5891 160.812 93.9464 162.71C93.609 163.1 93.0348 163.095 92.6223 162.785L88.134 159.419C83.4095 156.584 78.3262 157.84 75.8268 159.066C75.4195 159.265 75.2057 159.717 75.2586 160.168C79.3034 194.635 96.1332 209.966 127.017 209.966Z" fill="#FCF9F7"/>
<path d="M147.754 132.201H152.938L202.19 128.313H206.078L203.486 149.05L193.117 158.123C193.117 160.283 194.154 164.603 198.302 164.603L195.709 180.157H191.821H163.307L156.827 173.676L147.754 132.201Z" fill="#FF9E18"/>
<path d="M150.269 120.634C147.028 124.761 147.369 129.145 148.294 131.833C148.572 132.638 149.523 132.426 150.36 132.267C151.698 132.012 151.91 136.089 152.939 136.089C154.235 136.089 155.531 137.386 158.123 138.682C160.715 139.978 163.307 139.978 164.603 137.386C165.899 134.793 167.196 137.386 168.492 138.682C169.788 139.978 172.38 141.274 174.972 137.386C177.564 133.497 176.668 138.682 180.156 141.274C183.645 143.866 185.341 141.274 186.637 138.682C187.933 136.089 190.525 141.274 193.117 141.274C195.71 141.274 193.117 136.089 198.302 136.089C203.486 136.089 204.782 129.609 204.782 125.721C204.782 121.832 199.598 121.832 198.302 119.24C197.006 116.648 195.71 106.279 191.821 106.279C187.933 106.279 186.637 102.391 180.156 98.503C173.676 94.6147 167.196 97.2069 167.196 101.095C167.196 104.983 158.123 107.576 156.827 112.76C155.537 117.919 154.247 112.811 150.404 120.422C150.367 120.495 150.32 120.57 150.269 120.634Z" fill="#F9DDA8"/>
<path fill-rule="evenodd" clip-rule="evenodd" d="M171.322 102.391C173.836 104.283 176.454 106.098 179.124 107.861C180.006 113.123 180.265 118.411 179.928 123.751C186.642 123.025 189.337 125.85 188.067 132.253C186.331 130.542 184.853 128.624 183.661 126.472C181.431 125.85 179.565 124.684 178.062 122.947C178.036 120.018 177.465 117.218 176.351 114.6C177.128 112.371 177.31 110.116 176.869 107.809C173.11 107.887 171.27 106.072 171.322 102.391Z" fill="#FDB284"/>
<path fill-rule="evenodd" clip-rule="evenodd" d="M182.468 110.946C185.008 111.153 187.523 111.568 190.011 112.242C192.007 113.642 191.852 114.523 189.571 114.886C187.653 113.875 185.657 113.071 183.583 112.501C182.805 112.216 182.442 111.698 182.468 110.946Z" fill="#FDB485"/>
<path fill-rule="evenodd" clip-rule="evenodd" d="M168.833 112.941C171.918 114.108 173.629 116.415 173.966 119.837C169.663 119.474 167.952 117.193 168.833 112.941Z" fill="#FDB284"/>
<path fill-rule="evenodd" clip-rule="evenodd" d="M169.196 131.086C169.015 130.62 168.652 130.361 168.082 130.309C167.174 131.086 166.267 131.812 165.386 132.512C163.416 129.816 161.083 127.509 158.335 125.565C157.661 122.973 158.594 121.236 161.109 120.329C162.483 122.351 163.96 124.269 165.515 126.083C168.108 126.991 170.259 126.42 171.97 124.347C172.566 127.094 171.996 129.609 170.311 131.864C170.026 131.449 169.663 131.19 169.196 131.086Z" fill="#FCAE81"/>
<path d="M133.506 78.315C123.625 75.0896 115.79 76.7516 112.308 78.3314C111.805 78.5599 111.587 79.1357 111.782 79.6527C113.325 83.7244 117.02 90.4243 121.832 90.4243C126.536 90.4243 131.595 84.0233 134.106 79.9322C134.479 79.3241 134.184 78.5365 133.506 78.315Z" fill="#FF9E18"/>
<path d="M103.687 81.6535C110.945 81.6535 116.216 76.4692 117.944 73.877C120.962 69.8525 125.039 72.0112 126.857 73.7217C126.964 73.8228 127.045 73.9449 127.107 74.0786C128.541 77.1504 133.723 82.6678 143.866 81.6535C153.526 80.6876 156.436 71.3974 156.789 65.9395C156.829 65.3088 156.321 64.7947 155.689 64.7825L90.6124 63.531C89.9632 63.5186 89.4301 64.0414 89.4301 64.6908V72.2729C89.4301 72.4747 89.4813 72.6728 89.5858 72.8455C91.459 75.9436 96.635 81.6535 103.687 81.6535Z" fill="#212121"/>
<g opacity="0.3">
<path d="M138.337 81.1373L128.353 66.1609C128.326 66.1209 128.296 66.0837 128.262 66.0497C127.802 65.5903 128.128 64.8047 128.777 64.8047H134.1C134.527 64.8047 134.919 65.039 135.122 65.4147L142.945 79.9439C143.361 80.7167 142.802 81.6538 141.924 81.6538H139.302C138.914 81.6538 138.552 81.46 138.337 81.1373Z" fill="white"/>
<path d="M145.854 80.5316L138.306 66.5146C137.89 65.7418 138.45 64.8047 139.328 64.8047H141.881C142.306 64.8047 142.696 65.0366 142.9 65.4092L149.838 78.1298C150.126 78.6573 149.963 79.3172 149.463 79.6505L147.519 80.9468C146.95 81.3261 146.178 81.1336 145.854 80.5316Z" fill="white"/>
</g>
</svg>
