<svg width="227" height="237" viewBox="0 0 227 237" fill="none" xmlns="http://www.w3.org/2000/svg">
<path d="M155.73 66.3178C153.547 70.6849 154.821 72.3832 155.73 72.6865C156.183 72.9473 220.327 72.6865 223.966 72.6865C226.878 72.6865 226.999 73.8996 226.696 74.5061C224.876 82.6944 199.401 93.6121 194.852 95.4318C190.303 97.2514 157.55 109.989 151.181 118.177C144.813 126.365 141.173 147.291 139.354 156.389C137.534 165.487 108.42 208.248 104.781 211.887C101.142 215.527 105.691 222.805 105.691 229.174C105.691 235.543 105.691 233.723 90.2241 236.452C74.7573 239.182 75.6671 228.264 76.5769 224.625C77.4867 220.986 82.0358 218.256 80.2161 217.346C78.3965 216.437 70.2082 214.617 59.2905 210.068C48.3728 205.519 40.1845 194.601 38.3649 192.781C36.5452 190.962 36.5452 190.962 32.906 191.872C29.2668 192.781 21.9883 198.24 8.34112 194.601C-5.30603 190.962 1.06264 171.856 4.70188 165.487C8.34112 159.118 21.9883 169.126 25.6275 171.856C28.5389 174.039 29.8733 172.159 30.1766 170.946C28.6602 167.004 27.4472 154.387 34.7256 135.463C43.8237 111.808 59.2905 102.71 61.1101 98.1612C62.9298 93.6121 56.5611 82.6944 52.9219 75.4159C49.2827 68.1375 49.2827 63.5885 49.2827 60.859V60.859C49.2827 58.1295 43.8238 10.8194 49.2827 8.99977C54.7415 7.18015 66.569 38.1137 70.2083 44.4824C73.8475 50.851 88.4059 66.0076 89.1614 64.1188C90.981 59.5697 86.432 54.1108 84.6124 43.1931C82.7927 32.2754 90.0712 17.7184 93.7105 13.1694C97.3497 8.62032 110.087 -2.29741 129.193 0.432019C148.299 3.16145 158.46 11.7292 163.009 27.196C167.558 42.6628 158.46 60.859 155.73 66.3178Z" fill="#7B74DA"/>
<path d="M110.087 13.1695C89.7073 21.9036 91.5875 48.9552 95.53 60.4795C96.1366 61.9958 97.6844 66.8636 94.773 69.0471C91.1338 71.7766 79.3063 87.2434 78.3965 92.7022C77.6686 97.0693 67.782 105.44 62.9297 109.079C45.6433 128.185 43.8237 143.652 43.8237 163.667C43.8237 183.683 72.0278 195.511 82.9455 193.691C93.8632 191.872 99.3221 192.781 116.608 173.675C133.895 154.569 133.895 136.373 135.715 126.365C137.534 116.357 139.354 118.177 144.813 106.349C150.271 94.5218 149.209 80.4953 146.479 76.8561C144.296 73.9447 145.266 71.3972 145.57 70.4874C150.119 64.1188 154.668 61.3893 156.487 42.2833C158.307 23.1773 135.562 2.25174 110.087 13.1695Z" fill="#FCF9F7"/>
<ellipse cx="108.267" cy="53.201" rx="6.36867" ry="3.63924" fill="#EDB7CD"/>
<ellipse cx="139.201" cy="53.201" rx="6.36867" ry="3.63924" fill="#EDB7CD"/>
<path d="M123.734 51.3813C117.143 51.3813 114.333 54.1109 112.817 55.9305C112.817 58.66 116.456 64.1187 123.734 65.0285C127.624 65.5147 133.742 61.3893 135.562 56.8402C134.955 55.0206 131.013 51.3813 123.734 51.3813Z" fill="#FF9E18"/>
<path d="M116.609 43.7146C115.396 42.5015 112.06 40.2573 108.42 40.9851C104.781 41.713 101.445 43.1081 100.232 43.7146M130.256 43.7146C131.469 42.8048 134.623 40.9851 137.534 40.9851C140.446 40.9851 146.026 42.8048 148.452 43.7146" stroke="#212121" stroke-width="1.13404" stroke-linecap="round"/>
</svg>
