<svg width="160" height="268" viewBox="0 0 160 268" fill="none" xmlns="http://www.w3.org/2000/svg">
<path d="M15.8088 105.354C23.5014 103.256 60.3913 85.8308 77.8746 77.3805C77.8746 73.8836 73.2124 69.5132 70.8813 67.7651C56.8946 47.6592 65.4887 22.4075 76.0525 13.1791C80.7998 9.03185 105.15 -9.96705 135.496 6.80238C168.714 25.1595 155.675 65.1422 153.053 75.6322C150.43 86.1222 153.053 89.6189 153.053 105.354C153.053 121.089 153.053 141.195 159.172 180.532C165.291 219.87 135.57 235.605 132.947 240.85C130.325 246.095 131.199 250.465 135.57 254.836C139.94 259.207 138.192 263.578 132.947 263.578C127.702 263.578 123.331 269.697 118.086 267.075C112.841 264.452 109.345 267.949 104.1 267.075C99.9036 266.375 104.1 255.71 106.722 250.465C102.643 249.883 93.4348 248.717 89.2388 248.717H63.0138C55.1463 248.717 34.1663 249.591 40.2854 244.346C46.4046 239.101 68.2588 242.598 64.7621 239.101C61.2654 235.605 54.2721 218.995 49.9013 205.883C46.4046 195.393 50.1927 145.566 52.5238 121.963C51.6496 122.546 47.2788 123.886 36.7888 124.586C23.6763 125.46 0.947939 116.718 0.0737725 113.221C-0.800394 109.725 6.19294 107.976 15.8088 105.354Z" fill="#7B74DA"/>
<path d="M53.398 121.961C54.7967 100.981 66.8019 85.2461 72.6297 80.0011C80.3223 78.6023 78.1661 74.1733 76.1263 72.1336C66.5105 61.6436 67.3108 49.636 67.3108 45.2652C67.3108 40.8944 73.43 22.7679 85.6683 19.9145C98.6354 16.8911 115.39 14.4395 130.251 23.1811C145.112 31.9228 144.311 80.0011 132.073 80.0011C119.835 80.0011 104.1 63.3919 97.1063 59.8952C90.113 56.3986 78.7488 59.0211 78.7488 61.6436C78.7488 64.2661 115.464 113.219 118.961 115.842C122.457 118.464 126.828 121.961 122.457 128.08C118.961 132.976 121 156.928 122.457 168.292C122.166 194.517 113.016 244.519 78.7488 234.729C35.9147 222.49 51.6497 148.186 53.398 121.961Z" fill="#FCF9F7"/>
<path d="M123.331 59.0218C119.252 57.8562 109.869 55.8748 104.974 57.2735M90.9872 55.5255C87.4905 54.9429 79.4482 54.302 75.2522 56.3997" stroke="black" stroke-width="0.8"/>
<path d="M90.1129 33.6714C92.9102 37.168 90.1129 49.115 88.3646 54.6514C85.5672 53.9519 79.0401 54.3599 76.1262 54.6514C74.3779 52.9029 72.6296 40.6647 76.1262 33.6714C79.6229 26.678 86.6162 29.3005 90.1129 33.6714Z" fill="#212121"/>
<path d="M122.727 35.3664C125.525 38.8631 122.457 52.6123 120.709 58.1487C117.911 57.4492 110.51 56.1089 107.596 56.4003C105.848 54.6518 104.1 42.3595 107.596 35.3662C111.093 28.3729 119.231 30.9956 122.727 35.3664Z" fill="#212121"/>
<ellipse cx="125.08" cy="64.2674" rx="7.8675" ry="3.49667" fill="#EDB7CD"/>
<path d="M79.6229 63.3934C78.2242 61.2954 79.0401 60.7709 79.6229 60.7709C79.9143 60.4795 79.0984 59.8967 73.5037 59.8967C67.9091 59.8967 70.0071 63.9762 71.7554 66.0159C74.9607 66.0159 81.0216 65.4914 79.6229 63.3934Z" fill="#EDB7CD"/>
<ellipse cx="111.893" cy="45.2656" rx="3.49667" ry="8.74166" fill="#FCF9F7"/>
<ellipse cx="80.4233" cy="43.5171" rx="3.49667" ry="8.74166" fill="#FCF9F7"/>
<circle cx="117.138" cy="38.2721" r="3.49667" fill="#FCF9F7"/>
<path d="M79.5491 60.1262C79.4834 60.2576 79.4165 60.3902 79.3486 60.5239C78.9326 62.5728 83.7776 69.0595 85.6683 71.4904C82.1716 74.1129 79.6911 72.5064 76.9267 69.7421C75.244 68.0594 77.61 63.9476 79.3486 60.5239C79.3814 60.3624 79.4469 60.2284 79.5491 60.1262Z" fill="#FAA32B"/>
<circle cx="85.6683" cy="38.2721" r="3.49667" fill="#FCF9F7"/>
</svg>
