<svg width="200" height="242" viewBox="0 0 200 242" fill="none" xmlns="http://www.w3.org/2000/svg">
<path d="M51.3302 84.4508C63.1028 70.9122 103.571 50.6044 140.361 62.377C177.151 74.1497 194.81 129.334 199.224 158.03C203.639 186.726 190.395 230.873 128.588 239.703C66.7818 248.532 15.2764 225.723 4.23948 202.913C-6.7974 180.104 5.71106 164.652 18.9553 149.2C32.1996 133.749 36.6143 101.374 51.3302 84.4508Z" fill="#FDD8A4"/>
<path opacity="0.4" d="M158.756 117.561C157.579 99.9022 146.493 90.5821 141.097 88.1295C119.759 77.0926 80.0261 91.0726 79.2903 107.996C78.5545 124.919 28.5207 166.859 19.6912 170.538C10.8617 174.217 9.39007 188.933 41.7649 208.064C74.1398 227.194 120.495 215.421 135.211 204.385C149.926 193.348 137.418 187.461 151.398 180.839C165.378 174.217 166.85 174.217 162.435 164.652C158.02 155.087 160.227 139.635 158.756 117.561Z" fill="#FAA32B"/>
<g opacity="0.4">
<path d="M185.98 165.387C181.86 161.855 174.943 166.858 172 169.802C168.321 173.48 172.736 173.481 175.679 173.481C178.622 173.481 191.131 169.802 185.98 165.387Z" fill="#FAA32B"/>
<path d="M183.037 182.31C182.448 177.601 177.887 176.915 175.679 177.16C171.264 177.896 176.415 184.518 178.622 186.725C180.83 188.933 183.773 188.197 183.037 182.31Z" fill="#FAA32B"/>
</g>
<path d="M52.0661 59.433C57.3638 66.4966 60.1598 77.5825 60.8956 82.2425C61.8104 86.6571 55.0092 104.316 47.6513 108.731C40.2934 113.146 25.5776 141.842 18.2197 155.822C10.8617 169.802 26.3134 192.611 36.6145 202.913C46.9156 213.214 77.083 213.949 107.986 206.592C138.89 199.234 137.418 186.725 145.512 166.859C153.605 146.992 146.983 96.9585 142.569 88.129C138.154 79.2995 136.682 65.3195 137.418 51.3395C138.154 37.3594 137.418 26.3223 129.324 15.2854C121.231 4.24856 100.628 -6.05252 73.4041 4.24856C46.1798 14.5497 45.444 50.6035 52.0661 59.433Z" fill="#7B74DA"/>
<path d="M64.5744 78.5638C69.8721 82.0956 72.6681 85.9217 73.4039 87.3933C73.4039 90.3364 70.4608 85.9218 67.5176 88.8649C64.5745 91.8081 64.5744 100.638 64.5744 106.524C64.5744 112.41 35.8785 150.671 29.9922 158.029C24.1058 165.387 29.2564 179.367 31.4638 181.575C33.6711 183.782 34.4069 172.745 35.1427 169.802C35.8785 166.859 38.0859 169.066 40.2933 170.538C42.5006 172.009 44.708 170.538 47.6512 170.538C50.5944 170.538 49.8586 172.745 52.0659 175.688C54.2733 178.632 60.8955 175.688 61.6313 180.103C62.3671 184.518 53.5376 191.14 54.2734 196.291C55.0092 201.441 80.0261 201.441 80.7619 198.498C81.4977 195.555 74.8755 179.367 78.5545 180.103C82.2335 180.839 87.384 180.103 88.8556 177.16C90.3272 174.217 94.0061 172.745 96.2135 175.688C98.4209 178.632 104.307 175.688 107.986 177.16C111.665 178.632 107.25 188.933 107.986 191.14C108.722 193.347 113.873 194.083 120.495 186.725C127.117 179.367 124.909 171.274 127.853 160.237C130.796 149.2 127.853 135.22 122.702 134.484C117.551 133.748 94.7419 155.822 94.0061 145.521C93.2703 135.22 113.137 99.166 113.873 94.0155C114.608 88.8649 105.779 90.3365 104.307 84.4502C102.836 78.5638 116.08 78.5638 120.495 77.0923C124.909 75.6207 127.853 68.9985 124.909 59.4333C121.966 49.868 113.873 49.1321 110.929 34.4163C107.986 19.7004 77.8187 14.5499 64.5744 32.2089C51.3302 49.8679 57.9523 74.149 64.5744 78.5638Z" fill="#FCF9F7"/>
<path d="M63.1028 57.9616C63.6915 60.9048 67.7629 60.6595 69.725 60.169C74.2752 60.169 73.404 53.5468 73.404 49.8679C73.404 46.1889 70.4608 45.4531 66.046 45.4531C61.6313 45.4531 62.367 54.2826 63.1028 57.9616Z" fill="#212121"/>
<path d="M97.5055 57.9616C98.0942 60.9048 102.166 60.6595 104.128 60.169C108.678 60.169 107.807 53.5468 107.807 49.8679C107.807 46.1889 104.863 45.4531 100.449 45.4531C96.034 45.4531 96.7698 54.2826 97.5055 57.9616Z" fill="#212121"/>
<path d="M93.2703 66.791C88.5612 63.2592 79.045 64.3383 74.8755 65.3194C68.9892 72.6771 78.5545 80.7712 81.4976 80.7712C84.4408 80.7712 99.1566 71.2057 93.2703 66.791Z" fill="#FAA32B"/>
<path d="M95.4778 167.595L116.08 141.842C122.202 134.19 118.631 132.277 116.08 132.277H52.8018L24.106 158.765C42.0102 162.199 79.2904 169.213 85.1767 169.802C91.063 170.391 94.4967 168.576 95.4778 167.595Z" fill="#4A4A4A"/>
<path d="M93.4456 147.895C91.974 143.479 98.8414 127.783 101.539 121.406C112.086 118.953 130.529 120.082 119.934 135.386C109.339 150.691 97.8603 150.102 93.4456 147.895Z" fill="#7B74DA"/>
<path d="M74.1398 105.052L16.0122 99.9019C7.77132 99.1717 7.18269 103.031 7.91848 105.052C11.5974 119.768 19.2497 150.23 20.4269 154.351C21.6042 158.471 24.8417 159.501 26.3133 159.501C42.2554 162.69 75.9057 169.214 82.9693 169.802C90.0329 170.391 91.3083 166.123 91.063 163.916C89.3461 148.219 85.7653 115.648 85.1767 110.939C84.588 106.23 77.5735 105.052 74.1398 105.052Z" fill="#212121"/>
<path d="M51.3302 84.4508C63.1028 70.9122 103.571 50.6044 140.361 62.377C177.151 74.1497 194.81 129.334 199.224 158.03C203.639 186.726 190.395 230.873 128.588 239.703C66.7818 248.532 15.2764 225.723 4.23948 202.913C-6.7974 180.104 5.71106 164.652 18.9553 149.2C32.1996 133.749 36.6143 101.374 51.3302 84.4508Z" fill="#FDD8A4"/>
<path opacity="0.4" d="M158.756 117.561C157.579 99.9022 146.493 90.5821 141.097 88.1295C119.759 77.0926 80.0261 91.0726 79.2903 107.996C78.5545 124.919 28.5207 166.859 19.6912 170.538C10.8617 174.217 9.39007 188.933 41.7649 208.064C74.1398 227.194 120.495 215.421 135.211 204.385C149.926 193.348 137.418 187.461 151.398 180.839C165.378 174.217 166.85 174.217 162.435 164.652C158.02 155.087 160.227 139.635 158.756 117.561Z" fill="#FAA32B"/>
<g opacity="0.4">
<path d="M185.98 165.387C181.86 161.855 174.943 166.858 172 169.802C168.321 173.48 172.736 173.481 175.679 173.481C178.622 173.481 191.131 169.802 185.98 165.387Z" fill="#FAA32B"/>
<path d="M183.037 182.31C182.448 177.601 177.887 176.915 175.679 177.16C171.264 177.896 176.415 184.518 178.622 186.725C180.83 188.933 183.773 188.197 183.037 182.31Z" fill="#FAA32B"/>
</g>
<path d="M52.0661 59.433C57.3638 66.4966 60.1598 77.5825 60.8956 82.2425C61.8104 86.6571 55.0092 104.316 47.6513 108.731C40.2934 113.146 25.5776 141.842 18.2197 155.822C10.8617 169.802 26.3134 192.611 36.6145 202.913C46.9156 213.214 77.083 213.949 107.986 206.592C138.89 199.234 137.418 186.725 145.512 166.859C153.605 146.992 146.983 96.9585 142.569 88.129C138.154 79.2995 136.682 65.3195 137.418 51.3395C138.154 37.3594 137.418 26.3223 129.324 15.2854C121.231 4.24856 100.628 -6.05252 73.4041 4.24856C46.1798 14.5497 45.444 50.6035 52.0661 59.433Z" fill="#7B74DA"/>
<path d="M64.5744 78.5638C69.8721 82.0956 72.6681 85.9217 73.4039 87.3933C73.4039 90.3364 70.4608 85.9218 67.5176 88.8649C64.5745 91.8081 64.5744 100.638 64.5744 106.524C64.5744 112.41 35.8785 150.671 29.9922 158.029C24.1058 165.387 29.2564 179.367 31.4638 181.575C33.6711 183.782 34.4069 172.745 35.1427 169.802C35.8785 166.859 38.0859 169.066 40.2933 170.538C42.5006 172.009 44.708 170.538 47.6512 170.538C50.5944 170.538 49.8586 172.745 52.0659 175.688C54.2733 178.632 60.8955 175.688 61.6313 180.103C62.3671 184.518 53.5376 191.14 54.2734 196.291C55.0092 201.441 80.0261 201.441 80.7619 198.498C81.4977 195.555 74.8755 179.367 78.5545 180.103C82.2335 180.839 87.384 180.103 88.8556 177.16C90.3272 174.217 94.0061 172.745 96.2135 175.688C98.4209 178.632 104.307 175.688 107.986 177.16C111.665 178.632 107.25 188.933 107.986 191.14C108.722 193.347 113.873 194.083 120.495 186.725C127.117 179.367 124.909 171.274 127.853 160.237C130.796 149.2 127.853 135.22 122.702 134.484C117.551 133.748 94.7419 155.822 94.0061 145.521C93.2703 135.22 113.137 99.166 113.873 94.0155C114.608 88.8649 105.779 90.3365 104.307 84.4502C102.836 78.5638 116.08 78.5638 120.495 77.0923C124.909 75.6207 127.853 68.9985 124.909 59.4333C121.966 49.868 113.873 49.1321 110.929 34.4163C107.986 19.7004 77.8187 14.5499 64.5744 32.2089C51.3302 49.8679 57.9523 74.149 64.5744 78.5638Z" fill="#FCF9F7"/>
<path d="M63.1028 57.9616C63.6915 60.9048 67.7629 60.6595 69.725 60.169C74.2752 60.169 73.404 53.5468 73.404 49.8679C73.404 46.1889 70.4608 45.4531 66.046 45.4531C61.6313 45.4531 62.367 54.2826 63.1028 57.9616Z" fill="#212121"/>
<path d="M97.5055 57.9616C98.0942 60.9048 102.166 60.6595 104.128 60.169C108.678 60.169 107.807 53.5468 107.807 49.8679C107.807 46.1889 104.863 45.4531 100.449 45.4531C96.034 45.4531 96.7698 54.2826 97.5055 57.9616Z" fill="#212121"/>
<path d="M93.2703 66.791C88.5612 63.2592 79.045 64.3383 74.8755 65.3194C68.9892 72.6771 78.5545 80.7712 81.4976 80.7712C84.4408 80.7712 99.1566 71.2057 93.2703 66.791Z" fill="#FAA32B"/>
<path d="M95.4778 167.595L116.08 141.842C122.202 134.19 118.631 132.277 116.08 132.277H52.8018L24.106 158.765C42.0102 162.199 79.2904 169.213 85.1767 169.802C91.063 170.391 94.4967 168.576 95.4778 167.595Z" fill="#4A4A4A"/>
<path d="M93.4456 147.895C91.974 143.479 98.8414 127.783 101.539 121.406C112.086 118.953 130.529 120.082 119.934 135.386C109.339 150.691 97.8603 150.102 93.4456 147.895Z" fill="#7B74DA"/>
<path d="M74.1398 105.052L16.0122 99.9019C7.77132 99.1717 7.18269 103.031 7.91848 105.052C11.5974 119.768 19.2497 150.23 20.4269 154.351C21.6042 158.471 24.8417 159.501 26.3133 159.501C42.2554 162.69 75.9057 169.214 82.9693 169.802C90.0329 170.391 91.3083 166.123 91.063 163.916C89.3461 148.219 85.7653 115.648 85.1767 110.939C84.588 106.23 77.5735 105.052 74.1398 105.052Z" fill="#212121"/>
</svg>
