<svg width="243" height="254" viewBox="0 0 243 254" fill="none" xmlns="http://www.w3.org/2000/svg">
<path d="M3.53685 65.4172C4.8672 80.0511 27.9266 94.2415 39.29 99.5075H32.6382C29.0352 100.062 19.3347 103.499 9.35709 112.811C-3.11495 124.452 -0.620541 133.598 2.70534 139.418C5.36604 144.074 16.0088 152.999 20.9977 156.879C20.7205 160.205 20.3325 169.185 20.9977 178.497C21.8291 190.138 28.4809 211.756 27.6494 214.25C26.818 216.745 20.1662 215.082 14.3459 217.576C8.52562 220.071 11.02 229.217 16.0088 230.88C20.9977 232.543 17.6718 238.363 20.1662 240.026C22.6606 241.689 25.9865 237.532 30.1438 239.194C34.3012 240.857 30.1438 247.509 36.7956 248.341C42.117 249.006 50.0991 241.966 53.425 238.363C57.3052 239.749 67.3937 242.52 76.7061 242.52C86.0186 242.52 105.53 235.314 114.122 231.711C114.399 233.928 113.79 238.529 109.133 239.194C103.313 240.026 96.6614 246.678 101.65 246.678C106.639 246.678 108.302 246.678 114.954 250.835C121.605 254.992 124.931 252.498 129.92 250.835C134.909 249.172 140.729 254.992 143.224 246.678C145.718 238.363 135.74 216.745 134.078 212.587C132.415 208.43 137.403 194.295 140.729 182.655C144.055 171.014 133.246 136.092 134.078 135.261C134.909 134.429 139.066 136.924 152.37 145.238C165.673 153.553 189.786 143.575 188.954 142.744C188.123 141.913 175.651 130.272 172.325 125.283C168.999 120.294 124.931 86.2041 121.605 84.5411C118.28 82.8782 106.639 69.5746 98.3243 40.4732C90.0096 11.3717 58.4138 -7.75209 30.9753 3.05702C3.53684 13.8661 1.87391 47.1249 3.53685 65.4172Z" fill="#7B74DA"/>
<path d="M14.3459 66.2482C18.337 75.5607 33.7469 86.7578 40.9529 91.1923C42.3387 92.8553 44.1125 97.0127 40.1215 100.339C35.1326 104.496 30.1438 118.631 31.8068 123.62C33.1371 127.611 48.4362 145.238 55.9194 153.553C60.631 157.156 66.7285 164.528 53.425 165.193C36.7956 166.025 31.8068 150.227 30.1438 166.856C28.4809 183.486 39.29 207.598 44.2788 213.418C49.2676 219.239 72.5488 227.553 90.8411 215.913C109.133 204.272 112.459 171.845 109.133 136.923C105.808 102.002 83.3579 100.339 79.2005 91.1923C75.0432 82.046 84.1893 77.8889 85.8523 67.9113C87.5152 57.9337 73.3802 49.619 68.3914 47.1246C63.4026 44.6302 63.4026 37.9783 40.9529 34.6524C18.5033 31.3265 9.35711 54.6077 14.3459 66.2482Z" fill="#FCF9F7"/>
<path d="M10.1885 77.0577L70.8858 47.9563C76.7061 53.7766 73.3802 62.9227 65.0655 69.5745C56.7508 76.2263 45.1103 68.743 40.9529 71.2374C36.7956 73.7319 43.4473 77.0577 32.6382 84.541C23.9909 90.5275 14.0687 82.0465 10.1885 77.0577Z" fill="#212121"/>
<g opacity="0.3">
<path d="M45.1103 60.4284L58.4138 71.2375L63.4026 70.406L50.9306 57.934L45.1103 60.4284Z" fill="white"/>
<path d="M52.5935 56.271L65.0656 68.7431L69.2229 66.2487L58.4138 53.7766L52.5935 56.271Z" fill="white"/>
</g>
<path d="M49.2677 141.912C49.9329 140.582 45.6647 135.26 43.4474 132.766C38.4586 131.103 39.2901 133.597 30.1439 134.429C22.827 135.094 20.4434 140.803 20.1663 143.575L13.5145 152.721C14.346 153.83 16.8404 156.712 20.1663 159.373C24.3236 162.699 24.3236 155.216 28.481 154.384C32.6383 153.553 37.6271 149.395 40.953 145.238C44.2789 141.081 48.4362 143.575 49.2677 141.912Z" fill="#020202"/>
<path d="M139.066 171.014L202.258 103.665L224.708 122.789L223.876 126.114L243 144.407L185.629 211.756L164.01 190.969L160.685 192.632L139.066 171.014Z" fill="#212121"/>
<path d="M194.564 143.844C195.894 141.849 185.141 135.807 179.598 133.035L176.272 130.541C167.68 133.866 152.991 142.347 162.968 149.664C175.44 158.81 192.901 146.338 194.564 143.844Z" fill="#7B74DA"/>
<path d="M200.595 148.564C200.595 147.234 216.67 132.489 224.708 125.283V122.789L221.382 120.294L195.606 148.564C196.438 151.613 197.602 158.542 195.606 161.868C193.611 165.194 186.46 164.916 183.134 164.362L160.685 186.812L138.235 171.014L160.685 193.464L164.01 190.969L184.797 212.587L189.786 206.767C182.58 200.67 168.168 188.142 168.168 186.812C168.168 185.481 179.254 173.508 184.797 167.688C187.569 168.242 194.11 168.353 198.101 164.362C203.089 159.373 200.595 150.227 200.595 148.564Z" fill="#020202"/>
<path d="M177.314 133.598C181.305 132.933 182.857 127.777 183.134 125.283C158.19 125.283 153.201 151.89 153.201 154.384C153.201 156.879 164.01 156.047 164.01 150.227C164.01 144.407 172.325 134.429 177.314 133.598Z" fill="#020202"/>
<path d="M32.6383 137.755C29.9776 137.089 27.0952 138.586 25.9866 139.418C21.8292 144.407 27.6495 148.564 29.3124 148.564C30.9754 148.564 34.3013 149.395 35.9642 145.238C37.6271 141.08 35.9642 138.586 32.6383 137.755Z" fill="#FCF9F7"/>
<path d="M189.786 159.373C191.782 159.373 192.835 158.265 193.112 157.71C194.775 152.722 188.955 151.89 187.292 154.385C185.629 156.879 187.292 159.373 189.786 159.373Z" fill="#020202"/>
<path d="M30.1438 138.586L29.3123 143.575L26.8179 148.564L30.9753 143.575L30.1438 138.586Z" fill="black"/>
<path d="M36.7955 82.8775C37.4607 78.8865 45.9417 74.5628 50.099 72.8999C60.0766 72.8999 46.7732 96.181 45.1103 97.0125C43.4473 97.844 43.4473 97.0125 42.6158 97.0125C41.7843 97.0125 35.9641 87.8664 36.7955 82.8775Z" fill="#FF9E18"/>
</svg>
