<svg width="90.157135" height="99.573181" viewBox="0 0 90.1571 99.5732" fill="none" xmlns="http://www.w3.org/2000/svg" xmlns:xlink="http://www.w3.org/1999/xlink">
	<desc>
			Created with Pixso.
	</desc>
	<defs/>
	<path id="Vector" d="M38.23 0.77C41.63 0.84 45.03 0.91 48.44 0.99C50.32 1.35 52.26 1.58 54.25 1.69C55.72 1.76 57.17 1.89 58.62 2.08C60.68 2.69 62.8 3.13 65.01 3.38C66 3.9 67.06 4.31 68.19 4.62C73.11 6.38 75.85 9.84 76.43 15C76.31 24.96 76 34.87 75.5 44.73C74.68 43.36 73.54 42.31 72.07 41.59C70.2 40.86 68.37 40.04 66.58 39.14C66.19 38.94 65.8 38.93 65.41 39.12C65.05 39.51 64.66 39.84 64.22 40.11C64.29 38.94 63.87 37.96 62.97 37.17C62.93 36.88 62.89 36.58 62.85 36.29C64.57 32.11 65.2 27.75 64.73 23.21C64.29 20.32 63.03 17.86 60.95 15.84C60.53 15.45 60.14 15.44 59.78 15.81C51.34 7.86 42.74 7.67 33.98 15.26C30.85 19.31 29.88 23.86 31.07 28.91C31.53 30.28 32.13 31.55 32.88 32.74C33.27 33.86 33.73 34.93 34.27 35.97C34.3 39.23 32.7 41.09 29.49 41.56C25.15 43.9 21.92 47.28 19.79 51.7C18.97 54.05 19.17 56.29 20.38 58.43C18.9 58.87 17.67 59.71 16.68 60.97C15.57 62.5 14.47 64.04 13.37 65.57C12.96 75.57 12.75 85.58 12.73 95.59C13.27 96.59 14.09 97.19 15.17 97.4C15.16 97.59 15.06 97.69 14.87 97.68C10.7 97.87 6.52 97.88 2.33 97.7C1.35 97.03 0.64 96.14 0.2 95.03C0.21 85.31 0.42 75.6 0.82 65.88C4.39 62.27 7.97 58.65 11.55 55.03C12.5 54.15 13.16 53.1 13.52 51.86C14.01 38.6 14.48 25.29 14.95 11.94C14.96 11.74 14.96 11.55 14.96 11.35C15.51 10.59 15.82 9.73 15.9 8.75C16.36 8.29 16.57 7.71 16.52 7.01C17.13 6.71 17.53 6.23 17.71 5.58C18.29 4.7 19.08 4.08 20.09 3.73C22.11 3.25 24.16 2.95 26.23 2.84C26.96 2.74 27.65 2.56 28.28 2.3C29.73 1.95 31.19 1.69 32.67 1.52C34.58 1.35 36.43 1.1 38.23 0.77Z" fill="#D6261E" fill-opacity="1.000000" fill-rule="evenodd"/>
	<path id="Vector" d="M17.71 5.58C17.53 6.23 17.13 6.71 16.52 7.01C16.7 6.36 17.1 5.88 17.71 5.58Z" fill="#D56059" fill-opacity="1.000000" fill-rule="evenodd"/>
	<path id="Vector" d="M16.52 7.01C16.57 7.71 16.36 8.29 15.9 8.75C15.84 8.05 16.05 7.47 16.52 7.01Z" fill="#D6665E" fill-opacity="1.000000" fill-rule="evenodd"/>
	<path id="Vector" d="M59.78 15.81C60.43 16.83 61.14 17.82 61.91 18.77C62.22 19.34 62.45 19.92 62.6 20.54C62.8 23.45 62.83 26.37 62.7 29.29C61.97 31.71 60.85 33.92 59.35 35.93C59.44 34.74 59.36 33.57 59.14 32.42C59.08 31.87 58.8 31.47 58.29 31.24C59.29 30.18 59.9 28.93 60.12 27.48C60.1 26.95 59.92 26.56 59.56 26.31C58.36 25.99 57.1 25.87 55.78 25.93C55.56 24.22 55.16 22.56 54.57 20.95C52.97 19.84 51.29 18.93 49.53 18.22C47.64 17.84 45.7 17.75 43.7 17.95C43.53 18.05 43.43 18.2 43.4 18.38C39.13 18.94 36.55 21.32 35.66 25.5C35.01 25.4 34.43 25.49 33.91 25.76C33.82 26.94 33.9 28.11 34.12 29.26C33.7 29.98 33.4 30.75 33.2 31.58C32.92 31.88 32.81 32.27 32.88 32.74C32.13 31.55 31.53 30.28 31.07 28.91C29.88 23.86 30.85 19.31 33.98 15.26C42.74 7.67 51.34 7.86 59.78 15.81Z" fill="#FCA87C" fill-opacity="1.000000" fill-rule="evenodd"/>
	<path id="Vector" d="M15.9 8.75C15.82 9.73 15.51 10.59 14.96 11.35C14.99 10.36 15.3 9.49 15.9 8.75Z" fill="#D47773" fill-opacity="1.000000" fill-rule="evenodd"/>
	<path id="Vector" d="M64.22 40.11C63.62 40.79 63.02 41.46 62.43 42.12C60.01 40.86 58.98 38.89 59.35 36.22C59.35 36.12 59.35 36.02 59.35 35.93C60.85 33.92 61.97 31.71 62.7 29.29C63.1 26.72 63.2 24.1 63.02 21.42C62.96 21.06 62.82 20.77 62.6 20.54C62.45 19.92 62.22 19.34 61.91 18.77C61.14 17.82 60.43 16.83 59.78 15.81C60.14 15.44 60.53 15.45 60.95 15.84C63.03 17.86 64.29 20.32 64.73 23.21C65.2 27.75 64.57 32.11 62.85 36.29C62.89 36.58 62.93 36.88 62.97 37.17C63.87 37.96 64.29 38.94 64.22 40.11Z" fill="#A81B12" fill-opacity="1.000000" fill-rule="evenodd"/>
	<path id="Vector" d="M14.95 11.94C14.48 25.29 14.01 38.6 13.52 51.86C13.74 38.94 14.07 26.01 14.49 13.09C14.56 12.64 14.72 12.25 14.95 11.94Z" fill="#D47673" fill-opacity="1.000000" fill-rule="evenodd"/>
	<path id="Vector" d="M49.53 18.22C47.47 18.1 45.43 18.15 43.4 18.38C43.43 18.2 43.53 18.05 43.7 17.95C45.7 17.75 47.64 17.84 49.53 18.22Z" fill="#FED6C1" fill-opacity="1.000000" fill-rule="evenodd"/>
	<path id="Vector" d="M49.53 18.22C51.29 18.93 52.97 19.84 54.57 20.95C55.16 22.56 55.56 24.22 55.78 25.93C49.07 25.79 42.37 25.65 35.66 25.5C36.55 21.32 39.13 18.94 43.4 18.38C45.43 18.15 47.47 18.1 49.53 18.22Z" fill="#FEFDFC" fill-opacity="1.000000" fill-rule="evenodd"/>
	<path id="Vector" d="M62.6 20.54C62.82 20.76 62.96 21.06 63.02 21.42C63.2 24.1 63.1 26.72 62.7 29.29C62.83 26.37 62.8 23.45 62.6 20.54Z" fill="#D5664B" fill-opacity="1.000000" fill-rule="evenodd"/>
	<path id="Vector" d="M33.91 25.76C39.25 25.87 44.6 25.99 49.94 26.1C49.9 26.91 50.03 27.69 50.33 28.44C51.34 29.77 52.04 31.24 52.42 32.86C51.72 32.86 51.04 32.75 50.39 32.53C50.1 32.33 49.81 32.13 49.52 31.92C48.79 31.49 48.12 30.99 47.51 30.42C46.7 30.07 45.83 30.01 44.89 30.22C44.73 30.33 44.63 30.47 44.59 30.65C43.9 30.88 43.31 31.26 42.82 31.78C41.89 32 41.01 32.28 40.18 32.6C39.14 32.96 38.07 32.94 36.97 32.53C36.01 31.43 35.06 30.34 34.12 29.26C33.9 28.11 33.82 26.94 33.91 25.76Z" fill="#060504" fill-opacity="1.000000" fill-rule="evenodd"/>
	<path id="Vector" d="M59.56 26.31C59.92 26.56 60.1 26.95 60.12 27.48C59.9 28.93 59.29 30.18 58.29 31.24C57.99 31.43 57.7 31.61 57.4 31.8C57.11 31.79 56.82 31.79 56.53 31.78C56.01 30.29 55.41 28.82 54.73 27.37C54.3 26.65 53.68 26.35 52.85 26.45C53.25 27.51 53.67 28.59 54.09 29.69C54.66 30.72 55.27 31.71 55.92 32.64C55.92 32.84 55.82 32.93 55.63 32.93C55.43 32.93 55.24 32.92 55.04 32.92C53.93 30.77 52.81 28.61 51.68 26.43C54.31 26.19 56.93 26.15 59.56 26.31Z" fill="#060505" fill-opacity="1.000000" fill-rule="evenodd"/>
	<path id="Vector" d="M33.91 25.76C34.43 25.49 35.01 25.4 35.66 25.5C42.37 25.65 49.07 25.79 55.78 25.93C57.1 25.87 58.36 25.99 59.56 26.31C56.93 26.15 54.31 26.19 51.68 26.43C52.81 28.61 53.93 30.77 55.04 32.92C54.17 32.9 53.29 32.88 52.42 32.86C52.04 31.24 51.34 29.77 50.33 28.44C50.03 27.69 49.9 26.91 49.94 26.1C44.6 25.99 39.25 25.87 33.91 25.76Z" fill="#4F4D4C" fill-opacity="1.000000" fill-rule="evenodd"/>
	<path id="Vector" d="M57.4 31.8C56.97 32.15 56.47 32.43 55.92 32.64C55.27 31.71 54.66 30.72 54.09 29.69C53.67 28.59 53.25 27.51 52.85 26.45C53.68 26.35 54.3 26.65 54.73 27.37C55.41 28.82 56.01 30.29 56.53 31.78C56.82 31.79 57.11 31.79 57.4 31.8Z" fill="#3A3A3A" fill-opacity="1.000000" fill-rule="evenodd"/>
	<path id="Vector" d="M76.43 15C76.5 24.97 76.39 34.98 76.08 45.03C75.79 45.08 75.59 44.98 75.5 44.73C76 34.87 76.31 24.96 76.43 15Z" fill="#D18080" fill-opacity="1.000000" fill-rule="evenodd"/>
	<path id="Vector" d="M47.51 30.42C46.52 30.36 45.55 30.43 44.59 30.65C44.63 30.47 44.73 30.33 44.89 30.22C45.83 30.01 46.7 30.07 47.51 30.42Z" fill="#9D694E" fill-opacity="1.000000" fill-rule="evenodd"/>
	<path id="Vector" d="M34.12 29.26C35.06 30.34 36.01 31.43 36.97 32.53C38.07 32.94 39.14 32.96 40.18 32.6C41.06 32.66 41.89 32.49 42.67 32.07C42.71 32.62 42.85 33.11 43.07 33.54C43.4 35.33 44.14 36.95 45.3 38.4C46.48 38.52 47.32 38 47.81 36.85C48.42 35.21 48.99 33.57 49.52 31.92C49.81 32.13 50.1 32.33 50.39 32.53C50.41 32.71 50.51 32.85 50.67 32.97C52.37 33.24 54.02 33.23 55.63 32.93C55.82 32.93 55.92 32.84 55.92 32.64C56.47 32.43 56.97 32.15 57.4 31.8C57.7 31.61 57.99 31.43 58.29 31.24C58.8 31.47 59.08 31.87 59.14 32.42C57.43 34.34 55.55 36.05 53.49 37.55C52.12 37.34 51.33 37.91 51.12 39.25C55.32 39.05 57.51 41.04 57.7 45.22C57.64 46.85 57.27 48.4 56.58 49.87C56.32 50.79 56.35 51.67 56.67 52.49C56.31 53.15 56.29 53.83 56.62 54.53C56.67 55.6 56.94 56.58 57.44 57.47C57.71 60.46 58.23 63.39 59 66.25C59.27 67.34 59.1 68.41 58.49 69.45C58.06 71.59 58.76 73.25 60.57 74.45C59.68 76.6 58.28 78.37 56.38 79.76C54.16 80.46 52.01 81.24 49.91 82.1C48.78 82.49 47.61 82.66 46.4 82.61C44.33 82.46 42.29 82.12 40.3 81.6C39.59 81.58 38.91 81.42 38.26 81.12C32.71 77.15 29.52 71.79 28.69 65.02C28.82 65.9 29.19 66.68 29.81 67.38C31.06 67.79 32.32 68.21 33.57 68.62C34.41 68.54 34.86 68.06 34.92 67.19C35.13 66.32 35.15 65.45 34.97 64.57C34.78 64.22 34.54 63.92 34.26 63.68C35.15 63.89 35.78 63.61 36.18 62.85C36.87 58.97 35.77 55.74 32.88 53.15C32.7 52.47 32.72 51.79 32.93 51.11C33.33 50.54 33.73 49.96 34.13 49.39C34.48 46.7 35.11 44.08 36.05 41.55C37.23 39.81 38.85 38.97 40.91 39.03C40.92 38.74 40.93 38.45 40.93 38.16C39.29 37.88 37.64 37.6 35.99 37.32C35.46 37.12 35.08 36.77 34.85 36.28C36.29 37.05 37.84 37.43 39.49 37.4C37.56 35.38 35.61 33.34 33.64 31.29C33.53 31.45 33.38 31.55 33.2 31.58C33.4 30.75 33.7 29.98 34.12 29.26Z" fill="#FEFDFD" fill-opacity="1.000000" fill-rule="evenodd"/>
	<path id="Vector" d="M47.51 30.42C48.12 30.99 48.79 31.49 49.52 31.92C48.99 33.57 48.42 35.21 47.81 36.85C47.32 38 46.48 38.52 45.3 38.4C44.14 36.95 43.4 35.33 43.07 33.54C43.17 32.89 43.09 32.3 42.82 31.78C43.31 31.26 43.9 30.88 44.59 30.65C45.55 30.43 46.52 30.36 47.51 30.42Z" fill="#FCAA7F" fill-opacity="1.000000" fill-rule="evenodd"/>
	<path id="Vector" d="M34.85 36.28C34.66 36.18 34.46 36.07 34.27 35.97C33.73 34.93 33.27 33.86 32.88 32.74C32.81 32.27 32.92 31.88 33.2 31.58C33.38 31.55 33.53 31.45 33.64 31.29C35.61 33.34 37.56 35.38 39.49 37.4C37.84 37.43 36.29 37.05 34.85 36.28Z" fill="#CEEFF9" fill-opacity="1.000000" fill-rule="evenodd"/>
	<path id="Vector" d="M50.39 32.53C51.04 32.75 51.72 32.86 52.42 32.86C53.29 32.88 54.17 32.9 55.04 32.92C55.24 32.92 55.43 32.93 55.63 32.93C54.02 33.23 52.37 33.24 50.67 32.97C50.51 32.85 50.41 32.71 50.39 32.53Z" fill="#7B7B7B" fill-opacity="1.000000" fill-rule="evenodd"/>
	<path id="Vector" d="M59.14 32.42C59.36 33.57 59.44 34.74 59.35 35.93C59.35 36.02 59.35 36.12 59.35 36.22C58.44 36.56 57.56 36.98 56.7 37.47C55.63 37.6 54.56 37.62 53.49 37.55C55.55 36.05 57.43 34.34 59.14 32.42Z" fill="#CFF1FA" fill-opacity="1.000000" fill-rule="evenodd"/>
	<path id="Vector" d="M42.82 31.78C43.09 32.3 43.17 32.89 43.07 33.54C42.85 33.11 42.71 32.62 42.67 32.07C41.89 32.49 41.06 32.66 40.18 32.6C41.01 32.28 41.89 32 42.82 31.78Z" fill="#CBC1BB" fill-opacity="1.000000" fill-rule="evenodd"/>
	<path id="Vector" d="M59.35 36.22C58.98 38.89 60.01 40.86 62.43 42.12C61.64 43.07 60.75 43.92 59.75 44.68C59.35 46.32 58.66 46.5 57.7 45.22C57.51 41.04 55.32 39.05 51.12 39.25C51.33 37.91 52.12 37.34 53.49 37.55C54.56 37.62 55.63 37.6 56.7 37.47C57.56 36.98 58.44 36.56 59.35 36.22Z" fill="#FCAC82" fill-opacity="1.000000" fill-rule="evenodd"/>
	<path id="Vector" d="M34.27 35.97C34.46 36.07 34.66 36.18 34.85 36.28C35.08 36.77 35.46 37.12 35.99 37.32C37.64 37.6 39.29 37.88 40.93 38.16C40.93 38.45 40.92 38.74 40.91 39.03C38.85 38.97 37.23 39.81 36.05 41.55C35.11 44.08 34.48 46.7 34.13 49.39C33.73 49.96 33.33 50.54 32.93 51.11C32.72 51.79 32.7 52.47 32.88 53.15C35.77 55.74 36.87 58.97 36.18 62.85C35.78 63.61 35.15 63.89 34.26 63.68C33.32 63.06 32.26 62.74 31.07 62.74C30.27 62.43 29.4 62.32 28.46 62.39C28.35 63.13 28.44 63.82 28.7 64.44C28.7 64.63 28.7 64.83 28.69 65.02C29.52 71.79 32.71 77.15 38.26 81.12C38.91 81.42 39.59 81.58 40.3 81.6C42.2 82.46 44.23 82.89 46.39 82.9C47.17 82.87 47.95 82.83 48.73 82.8C49.26 82.75 49.65 82.52 49.91 82.1C52.01 81.24 54.16 80.46 56.38 79.76C58.28 78.37 59.68 76.6 60.57 74.45C61.11 73.34 61.72 72.28 62.39 71.28C64.41 71.04 66.45 70.99 68.52 71.12C68.17 74.9 66.74 78.23 64.22 81.09C64.31 81.39 64.51 81.54 64.8 81.54C66.27 82.83 67.6 84.27 68.79 85.85C67.95 86.94 67.01 87.94 65.95 88.86C65.25 90.28 64.44 91.62 63.53 92.89C62.45 92.54 61.33 92.32 60.19 92.23C58.73 92.45 57.27 92.56 55.81 92.58C55.42 91.3 54.91 90.07 54.28 88.9C54.03 88.04 53.9 87.16 53.9 86.27C51.71 86.99 49.46 87.58 47.16 88.02C45.01 88.17 42.87 88.08 40.75 87.73C40.14 87.44 39.46 87.33 38.71 87.4C38.43 89.03 38.3 90.68 38.32 92.35C37.93 92.44 37.53 92.53 37.14 92.62C34.21 92.47 31.29 92.6 28.39 93.01C27.13 91.26 25.56 89.86 23.66 88.83C23.46 88.01 23.57 87.23 24 86.5C25.45 84.93 26.89 83.35 28.33 81.78C26.09 78.31 24.27 74.62 22.88 70.73C22.6 69.77 22.47 68.8 22.51 67.8C22.81 65.48 23.05 63.16 23.24 60.82C22.03 60.35 21.07 59.55 20.38 58.43C19.17 56.29 18.97 54.05 19.79 51.7C21.92 47.28 25.15 43.9 29.49 41.56C32.7 41.09 34.3 39.23 34.27 35.97Z" fill="#FDA97D" fill-opacity="1.000000" fill-rule="evenodd"/>
	<path id="Vector" d="M75.5 44.73C75.59 44.98 75.79 45.08 76.08 45.03C75.94 46.66 76.54 47.94 77.89 48.86C78.23 49.51 78.36 50.19 78.28 50.91C78.36 51.79 78.06 52.46 77.37 52.94C76.73 52.99 76.24 53.28 75.89 53.78C75.09 54.12 74.4 54.64 73.81 55.34C73.3 55.51 72.81 55.46 72.36 55.16C72.16 54.89 71.87 54.79 71.49 54.85C71.38 55.43 71.27 56.01 71.16 56.59C70.93 56.78 70.64 56.87 70.28 56.87C69.74 56.9 69.36 56.7 69.13 56.26C69.16 55.81 68.97 55.52 68.56 55.37C68.47 55.08 68.28 54.88 67.99 54.78C67.93 54.6 67.78 54.5 67.56 54.48C67.04 54.69 66.59 55.02 66.23 55.47C65.85 55.6 65.46 55.64 65.06 55.59C64.87 55.29 64.68 55 64.49 54.7C64.5 54.51 64.5 54.31 64.51 54.12C64.69 54.16 64.83 54.26 64.94 54.42C65.59 53.55 65.81 52.58 65.58 51.52C64.92 52.32 64.09 52.54 63.09 52.19C62.49 51.49 61.92 50.75 61.39 49.97C60.42 50.32 60.06 50.99 60.32 51.99C61.38 52.74 62.28 53.63 63.04 54.67C62.68 55.38 62.09 55.66 61.27 55.51C60.63 54.93 59.91 54.43 59.11 54C58.83 53.55 58.69 53.06 58.71 52.54C58.03 52.52 57.35 52.51 56.67 52.49C56.35 51.67 56.32 50.79 56.58 49.87C57.27 48.4 57.64 46.85 57.7 45.22C58.66 46.5 59.35 46.32 59.75 44.68C60.75 43.92 61.64 43.07 62.43 42.12C63.02 41.46 63.62 40.79 64.22 40.11C64.66 39.84 65.05 39.51 65.41 39.12C65.8 38.93 66.19 38.94 66.58 39.14C68.37 40.04 70.2 40.86 72.07 41.59C73.54 42.31 74.68 43.36 75.5 44.73Z" fill="#F9DDA8" fill-opacity="1.000000" fill-rule="evenodd"/>
	<path id="Vector" d="M65.33 43.05C66.3 43.78 67.31 44.48 68.34 45.16C68.68 47.19 68.78 49.23 68.65 51.29C71.24 51.01 72.28 52.1 71.79 54.57C71.12 53.91 70.55 53.17 70.09 52.34C69.23 52.1 68.51 51.65 67.93 50.98C67.92 49.85 67.7 48.77 67.27 47.76C67.57 46.9 67.64 46.03 67.47 45.14C66.02 45.17 65.31 44.47 65.33 43.05Z" fill="#FDB284" fill-opacity="1.000000" fill-rule="evenodd"/>
	<path id="Vector" d="M69.63 46.35C70.61 46.43 71.58 46.59 72.54 46.85C73.31 47.39 73.25 47.73 72.37 47.87C71.63 47.48 70.86 47.17 70.06 46.95C69.76 46.84 69.62 46.64 69.63 46.35Z" fill="#FDB485" fill-opacity="1.000000" fill-rule="evenodd"/>
	<path id="Vector" d="M64.37 47.12C65.56 47.57 66.22 48.46 66.35 49.78C64.69 49.64 64.03 48.76 64.37 47.12Z" fill="#FDB284" fill-opacity="1.000000" fill-rule="evenodd"/>
	<path id="Vector" d="M64.51 54.12C64.44 53.94 64.3 53.84 64.08 53.82C63.73 54.12 63.38 54.4 63.04 54.67C62.28 53.63 61.38 52.74 60.32 51.99C60.06 50.99 60.42 50.32 61.39 49.97C61.92 50.75 62.49 51.49 63.09 52.19C64.09 52.54 64.92 52.32 65.58 51.52C65.81 52.58 65.59 53.55 64.94 54.42C64.83 54.26 64.69 54.16 64.51 54.12Z" fill="#FCAE81" fill-opacity="1.000000" fill-rule="evenodd"/>
	<path id="Vector" d="M78.28 50.91C78.57 50.92 78.87 50.93 79.16 50.93C79.1 51.91 78.99 52.88 78.8 53.84C78.56 53.94 78.46 54.13 78.5 54.42C77.91 55.27 77.17 56.03 76.26 56.7C75.62 57.83 75.06 58.98 74.59 60.17C74.17 60.3 73.97 60.58 73.98 61.03C73.49 62.3 73.56 63.51 74.2 64.68C74.77 64.84 75.35 64.9 75.94 64.86C75.7 65.61 75.59 66.39 75.6 67.19C74.68 68.74 73.4 69.88 71.74 70.61C69.01 70.64 66.29 70.49 63.58 70.14C62.8 68.69 62.1 67.21 61.49 65.72C60.96 62.88 60.39 60.05 59.77 57.23C59.81 56.95 59.91 56.71 60.08 56.5C60.82 56.32 61.5 56.09 62.14 55.82C62.54 55.87 62.93 55.83 63.31 55.7C63.67 55.3 64.06 54.97 64.49 54.7C64.68 55 64.87 55.29 65.06 55.59C65.47 55.92 65.96 55.98 66.51 55.77C66.9 55.25 67.39 54.92 67.99 54.78C68.28 54.88 68.47 55.08 68.56 55.37C68.53 55.82 68.72 56.11 69.13 56.26C69.36 56.7 69.74 56.9 70.28 56.87C70.64 56.87 70.93 56.78 71.16 56.59C71.46 56.02 71.86 55.54 72.36 55.16C72.81 55.46 73.3 55.51 73.81 55.34C74.4 54.64 75.09 54.12 75.89 53.78C76.57 53.77 77.07 53.49 77.37 52.94C78.06 52.46 78.36 51.79 78.28 50.91Z" fill="#1F4DB6" fill-opacity="1.000000" fill-rule="evenodd"/>
	<path id="Vector" d="M56.67 52.49C57.35 52.51 58.03 52.52 58.71 52.54C58.69 53.06 58.83 53.55 59.11 54C59.91 54.43 60.63 54.93 61.27 55.51C61.47 55.78 61.76 55.88 62.14 55.82C61.5 56.09 60.82 56.32 60.08 56.5C59.91 56.71 59.81 56.95 59.77 57.23C60.39 60.05 60.96 62.88 61.49 65.72C62.1 67.21 62.8 68.69 63.58 70.14C66.29 70.49 69.01 70.64 71.74 70.61C70.72 70.87 69.65 70.94 68.52 70.83C66.48 70.79 64.44 70.74 62.4 70.7C61.57 69.88 60.66 69.08 59.68 68.31C59.59 67.55 59.36 66.86 59 66.25C58.23 63.39 57.71 60.46 57.44 57.47C57.39 56.4 57.12 55.42 56.62 54.53C56.29 53.83 56.31 53.15 56.67 52.49Z" fill="#1D3684" fill-opacity="1.000000" fill-rule="evenodd"/>
	<path id="Vector" d="M77.37 52.94C77.07 53.49 76.57 53.77 75.89 53.78C76.24 53.28 76.73 52.99 77.37 52.94Z" fill="#5A71B4" fill-opacity="1.000000" fill-rule="evenodd"/>
	<path id="Vector" d="M64.51 54.12C64.5 54.31 64.5 54.51 64.49 54.7C64.06 54.97 63.67 55.3 63.31 55.7C62.93 55.83 62.54 55.87 62.14 55.82C61.76 55.88 61.47 55.78 61.27 55.51C62.09 55.66 62.68 55.38 63.04 54.67C63.38 54.4 63.73 54.12 64.08 53.82C64.3 53.84 64.44 53.94 64.51 54.12Z" fill="#364286" fill-opacity="1.000000" fill-rule="evenodd"/>
	<path id="Vector" d="M78.5 54.42C78.83 54.9 79.16 55.4 79.49 55.9C79.76 57.38 80.07 58.85 80.42 60.29C79.39 61.1 78.64 62.15 78.16 63.45C77.53 64.11 76.8 64.58 75.94 64.86C75.35 64.9 74.77 64.84 74.2 64.68C73.56 63.51 73.49 62.3 73.98 61.03C74.4 60.9 74.6 60.61 74.59 60.17C75.06 58.98 75.62 57.83 76.26 56.7C77.17 56.03 77.91 55.27 78.5 54.42Z" fill="#F8A77F" fill-opacity="1.000000" fill-rule="evenodd"/>
	<path id="Vector" d="M72.36 55.16C71.86 55.54 71.46 56.02 71.16 56.59C71.27 56.01 71.38 55.43 71.49 54.85C71.87 54.79 72.16 54.89 72.36 55.16Z" fill="#838DAF" fill-opacity="1.000000" fill-rule="evenodd"/>
	<path id="Vector" d="M67.99 54.78C67.39 54.92 66.9 55.25 66.51 55.77C65.96 55.98 65.47 55.92 65.06 55.59C65.46 55.64 65.85 55.6 66.23 55.47C66.59 55.02 67.04 54.69 67.56 54.48C67.78 54.5 67.93 54.6 67.99 54.78Z" fill="#5970B4" fill-opacity="1.000000" fill-rule="evenodd"/>
	<path id="Vector" d="M68.56 55.37C68.97 55.52 69.16 55.81 69.13 56.26C68.72 56.11 68.53 55.82 68.56 55.37Z" fill="#8F96B1" fill-opacity="1.000000" fill-rule="evenodd"/>
	<path id="Vector" d="M56.62 54.53C57.12 55.42 57.39 56.4 57.44 57.47C56.94 56.58 56.67 55.6 56.62 54.53Z" fill="#8C9CC2" fill-opacity="1.000000" fill-rule="evenodd"/>
	<path id="Vector" d="M20.38 58.43C21.07 59.55 22.03 60.35 23.24 60.82C23.05 63.16 22.81 65.48 22.51 67.8C20.96 71.39 18.9 74.65 16.32 77.59C15.55 83.19 15.24 88.82 15.38 94.48C15.86 95.04 16.38 95.54 16.95 95.98C16.95 96.07 16.94 96.17 16.94 96.27C16.15 96.38 15.56 96.75 15.17 97.4C14.09 97.19 13.27 96.59 12.73 95.59C12.75 85.58 12.96 75.57 13.37 65.57C14.47 64.04 15.57 62.5 16.68 60.97C17.67 59.71 18.9 58.87 20.38 58.43Z" fill="#A6150F" fill-opacity="1.000000" fill-rule="evenodd"/>
	<path id="Vector" d="M80.42 60.29C83.18 63.28 85.94 66.25 88.68 69.22C88.56 78.75 88.26 88.27 87.78 97.78C87.78 97.88 87.78 97.98 87.77 98.07C84.18 98.3 80.58 98.42 76.98 98.43C76.69 98.22 76.4 98.02 76.11 97.82C76.49 97.08 76.85 96.31 77.18 95.51C77.56 86.97 77.74 78.41 77.73 69.86C77.29 68.75 76.58 67.86 75.6 67.19C75.59 66.39 75.7 65.61 75.94 64.86C76.8 64.58 77.53 64.11 78.16 63.45C78.64 62.15 79.4 61.1 80.42 60.29Z" fill="#D5261D" fill-opacity="1.000000" fill-rule="evenodd"/>
	<path id="Vector" d="M74.59 60.17C74.6 60.61 74.4 60.9 73.98 61.03C73.97 60.58 74.17 60.3 74.59 60.17Z" fill="#9D8197" fill-opacity="1.000000" fill-rule="evenodd"/>
	<path id="Vector" d="M31.07 62.74C30.3 62.72 29.52 62.7 28.74 62.69C28.73 63.27 28.72 63.85 28.7 64.44C28.44 63.82 28.35 63.13 28.46 62.39C29.4 62.32 30.27 62.44 31.07 62.74Z" fill="#E7CAB7" fill-opacity="1.000000" fill-rule="evenodd"/>
	<path id="Vector" d="M31.07 62.74C32.26 62.74 33.32 63.06 34.26 63.68C34.54 63.92 34.78 64.22 34.97 64.57C35.15 65.45 35.13 66.32 34.92 67.19C34.86 68.06 34.41 68.54 33.57 68.62C32.32 68.21 31.06 67.79 29.81 67.38C29.19 66.68 28.82 65.9 28.69 65.02C28.7 64.83 28.7 64.63 28.7 64.44C28.72 63.85 28.73 63.27 28.74 62.69C29.52 62.7 30.3 62.72 31.07 62.74Z" fill="#CDF1FB" fill-opacity="1.000000" fill-rule="evenodd"/>
	<path id="Vector" d="M75.6 67.19C76.58 67.86 77.29 68.75 77.73 69.86C77.74 78.41 77.56 86.97 77.18 95.51C76.85 96.31 76.49 97.08 76.11 97.82C75.43 97.27 74.66 96.86 73.81 96.61C73.71 96.36 73.52 96.26 73.23 96.3C73.4 90.67 73.47 85.03 73.45 79.39C72.81 77.19 71.74 75.22 70.22 73.49C69.97 73.17 69.68 73.11 69.35 73.33C69.21 75.91 68.62 78.37 67.58 80.73C66.83 81.49 65.9 81.76 64.8 81.54C64.51 81.54 64.31 81.39 64.22 81.09C66.74 78.23 68.17 74.9 68.52 71.12C68.52 71.02 68.52 70.93 68.52 70.83C69.65 70.94 70.72 70.87 71.74 70.61C73.4 69.88 74.68 68.74 75.6 67.19Z" fill="#A51610" fill-opacity="1.000000" fill-rule="evenodd"/>
	<path id="Vector" d="M59 66.25C59.36 66.86 59.59 67.55 59.68 68.31C60.66 69.08 61.57 69.88 62.4 70.7C62.4 70.89 62.39 71.09 62.39 71.28C61.72 72.28 61.11 73.34 60.57 74.45C58.76 73.25 58.06 71.59 58.49 69.45C59.1 68.41 59.27 67.34 59 66.25Z" fill="#CAEEFB" fill-opacity="1.000000" fill-rule="evenodd"/>
	<path id="Vector" d="M22.51 67.8C22.47 68.8 22.6 69.77 22.88 70.73C24.27 74.62 26.09 78.31 28.33 81.78C26.89 83.35 25.45 84.93 24 86.5C23.57 87.23 23.46 88.01 23.66 88.83C25.56 89.86 27.13 91.26 28.39 93.01C28.81 93.21 29.29 93.32 29.84 93.33C32.31 93.03 34.74 92.79 37.14 92.62C37.53 92.53 37.93 92.44 38.32 92.35C38.59 90.84 38.81 89.29 39 87.7C39.58 87.71 40.16 87.72 40.75 87.73C42.87 88.08 45.01 88.17 47.16 88.02C49.46 87.58 51.71 86.99 53.9 86.27C53.9 87.16 54.03 88.04 54.28 88.9C54.91 90.07 55.42 91.3 55.81 92.58C57.27 92.56 58.73 92.45 60.19 92.23C61.33 92.32 62.45 92.54 63.53 92.89C64.44 91.62 65.25 90.28 65.95 88.86C67.01 87.94 67.95 86.94 68.79 85.85C67.6 84.27 66.27 82.83 64.8 81.54C65.9 81.76 66.83 81.49 67.58 80.73C68.62 78.37 69.21 75.91 69.35 73.33C69.68 73.11 69.97 73.17 70.22 73.49C71.74 75.22 72.81 77.19 73.45 79.39C73.47 85.03 73.4 90.67 73.23 96.3C67.59 96.14 61.95 96.12 56.32 96.23C43.39 95.91 30.47 95.68 17.54 95.55C17.38 95.76 17.18 95.9 16.95 95.98C16.38 95.54 15.86 95.04 15.38 94.48C15.24 88.82 15.55 83.19 16.32 77.59C18.9 74.65 20.96 71.39 22.51 67.8Z" fill="#D6271E" fill-opacity="1.000000" fill-rule="evenodd"/>
	<path id="Vector" d="M62.4 70.7C64.44 70.74 66.48 70.79 68.52 70.83C68.52 70.93 68.52 71.02 68.52 71.12C66.45 70.99 64.41 71.04 62.39 71.28C62.39 71.09 62.4 70.89 62.4 70.7Z" fill="#CD9689" fill-opacity="1.000000" fill-rule="evenodd"/>
	<path id="Vector" d="M40.3 81.6C42.29 82.12 44.33 82.46 46.4 82.61C47.61 82.66 48.78 82.49 49.91 82.1C49.65 82.52 49.26 82.75 48.73 82.8C47.95 82.83 47.17 82.87 46.39 82.9C44.23 82.89 42.2 82.46 40.3 81.6Z" fill="#FFD2BB" fill-opacity="1.000000" fill-rule="evenodd"/>
	<path id="Vector" d="M40.75 87.73C40.16 87.72 39.58 87.71 39 87.7C38.81 89.29 38.59 90.84 38.32 92.35C38.3 90.68 38.43 89.03 38.71 87.4C39.46 87.33 40.14 87.44 40.75 87.73Z" fill="#E86148" fill-opacity="1.000000" fill-rule="evenodd"/>
	<path id="Vector" d="M37.14 92.62C34.74 92.79 32.31 93.03 29.84 93.33C29.29 93.32 28.81 93.21 28.39 93.01C31.29 92.6 34.21 92.47 37.14 92.62Z" fill="#E3533C" fill-opacity="1.000000" fill-rule="evenodd"/>
</svg>
