<svg width="114.216064" height="94.899414" viewBox="0 0 114.216 94.8994" fill="none" xmlns="http://www.w3.org/2000/svg" xmlns:xlink="http://www.w3.org/1999/xlink">
	<desc>
			Created with Pixso.
	</desc>
	<defs/>
	<path id="Vector" d="M60.69 8.69C60.72 9.54 60.43 10.26 59.84 10.86C60.74 11.54 61.73 11.98 62.81 12.17C64.48 12.35 66.17 12.46 67.91 12.49C67.73 12.65 67.58 12.83 67.49 13.04C64.97 13.83 62.42 14.48 59.84 14.99C57.99 13.6 56.72 11.79 56.01 9.56C53.9 6.63 51.07 5.44 47.52 5.98C46.08 6.26 44.66 6.62 43.27 7.06C40.96 8.56 39.58 10.69 39.12 13.47C38.44 14.1 37.7 14.64 36.89 15.1C34.77 17.05 33.95 19.48 34.45 22.38C34.64 24.11 35.31 25.6 36.47 26.83C37.69 27.62 38.93 28.38 40.19 29.11C40.38 29.76 40.27 30.34 39.87 30.85C37.18 30.95 34.94 32.04 33.18 34.11C31.07 36.94 29.79 40.13 29.35 43.67C23.24 46.67 18.78 51.3 15.97 57.58C14.43 62.92 14.71 68.13 16.82 73.22C18.02 76.65 20.11 79.37 23.08 81.36C24.5 82.01 25.99 82.26 27.55 82.13C28.5 82.27 29.49 82.34 30.52 82.34C31.99 82.38 33.4 82.24 34.77 81.91C35.58 81.85 36.36 81.67 37.11 81.36C39.47 79.31 41.77 77.17 44.01 74.96C45 73.36 46 71.77 46.99 70.18C47.98 66.83 49.04 63.5 50.17 60.18C50.87 57.04 51.44 53.85 51.87 50.62C52.4 49.26 53.03 47.96 53.78 46.71C55.26 42.93 55.33 39.09 54 35.2C53.75 34.55 53.39 33.97 52.93 33.46C52.79 33.17 52.79 32.88 52.93 32.59C53.44 30.83 54.4 29.35 55.8 28.14C56.87 27.45 57.93 26.76 58.99 26.07C59.02 27.02 58.99 27.96 58.88 28.9C58.03 29.41 57.43 30.13 57.08 31.07C56.63 31.31 56.35 31.67 56.23 32.16C56.09 32.55 56.02 32.98 56.01 33.46C57.2 37.44 57.52 41.49 56.97 45.63C56.02 46.85 55.17 48.16 54.42 49.54C54.28 52.72 54.14 55.91 54 59.1C53.45 60.6 53.35 62.12 53.68 63.66C52.36 69.03 50.2 74.03 47.2 78.65C44.35 82.03 40.99 84.71 37.11 86.69C34.42 87.04 31.73 87.36 29.03 87.67C28.48 87.75 27.98 87.93 27.55 88.21C25.65 87.9 23.74 87.71 21.81 87.67C20.82 87.3 19.82 86.94 18.84 86.58C16.83 85.34 14.77 84.21 12.67 83.21C11.1 81.56 9.54 79.86 8 78.11C7.8 78 7.59 77.96 7.36 78C7.4 77.56 7.36 77.12 7.26 76.69C6.62 75.48 6.09 74.25 5.66 73C5.31 70.85 5.17 68.67 5.24 66.48C5.55 62.44 6.76 58.75 8.85 55.4C8.82 55.56 8.86 55.71 8.96 55.84C11.39 52.7 14.05 49.76 16.92 47.04C18.26 46.03 19.53 44.95 20.75 43.78C21.9 43.04 23.1 42.43 24.36 41.93C23.17 41.05 22.07 40.03 21.07 38.89C18.8 35.85 16.53 32.81 14.27 29.77C13.82 29.2 13.29 28.76 12.67 28.46C10.06 24.2 7.83 19.71 5.98 14.99C5.69 13.77 5.62 12.54 5.77 11.3C6.93 10.45 8.1 10.49 9.27 11.41C11.05 13.3 12.89 15.11 14.8 16.84C19.9 19.92 24.78 23.29 29.46 26.94C29.68 27.47 29.82 27.47 29.88 26.94C30.05 27.18 30.16 27.47 30.2 27.81C31.78 29.18 33.59 30.05 35.62 30.42C35.62 30.03 35.51 29.66 35.3 29.33C33.77 27.7 32.5 25.89 31.48 23.9C30.67 20.92 30.21 17.88 30.1 14.78C29.95 14.94 29.81 15.08 29.67 15.21C31.22 7.43 35.75 2.47 43.27 0.33C51.02 -1.03 56.83 1.76 60.69 8.69Z" fill="#FCA97F" fill-opacity="1.000000" fill-rule="evenodd"/>
	<path id="Vector" d="M91.71 17.38C91.45 19.16 91.24 20.97 91.07 22.81C90.71 23.56 90.42 24.36 90.22 25.2C90.02 25.54 89.88 25.9 89.8 26.29C89.46 26.75 89.18 27.25 88.95 27.81C89.5 27.84 89.92 27.55 90.22 26.94C92.87 25.07 95.49 23.15 98.08 21.18C103.44 18.55 108.33 15.22 112.74 11.19C113.09 11.05 113.45 11.05 113.8 11.19C114.31 12.28 114.35 13.41 113.91 14.56C113.39 15.7 112.93 16.86 112.53 18.03C112.12 18.69 111.84 19.41 111.68 20.21C111.12 20.82 110.59 21.47 110.08 22.16C106.71 28.19 102.82 33.84 98.4 39.11C97.64 40.16 96.93 41.24 96.27 42.37C96.15 43.18 96.22 43.98 96.49 44.76C97.44 46.7 98.5 48.59 99.67 50.41C100.2 51.69 100.66 52.99 101.06 54.32C101.26 55.16 101.54 55.96 101.91 56.71C101.91 56.78 101.91 56.85 101.91 56.92C101.96 57.93 102.17 58.87 102.54 59.75C102.49 60.49 102.56 61.22 102.76 61.92C102.84 65.05 102.7 68.16 102.33 71.26C102.13 71.49 102.06 71.78 102.12 72.13C101.76 72.88 101.47 73.67 101.27 74.52C100.65 75.63 100.16 76.79 99.78 78C97.93 80.18 96.16 82.42 94.47 84.73C93.24 85.76 91.97 86.74 90.64 87.67C89.18 88.46 87.69 89.15 86.18 89.73C84.02 90.24 81.82 90.46 79.6 90.38C77.96 90.4 76.33 90.33 74.71 90.16C72.42 88.65 69.94 87.57 67.27 86.9C65.79 85.21 64.34 83.47 62.92 81.69C62.33 80.71 61.8 79.69 61.33 78.65C60.69 76.92 60.19 75.19 59.84 73.43C59.71 72.23 59.5 71.07 59.2 69.96C59.04 66.78 58.97 63.59 58.99 60.4C59.11 59.46 59.18 58.52 59.2 57.58C59.22 56.18 59.36 54.8 59.63 53.45C60 52.79 60.22 52.07 60.26 51.27C60.66 50.17 61.08 49.08 61.54 48.02C61.22 47.55 61.01 47.04 60.9 46.49C61.04 46.33 61.11 46.11 61.11 45.84C60.98 44.64 60.73 43.48 60.37 42.37C60.2 40.82 60.34 39.3 60.8 37.8C61.37 36.16 62.04 34.57 62.81 33.03C63.25 32.75 63.32 32.39 63.03 31.94C61.69 31.05 60.46 30.03 59.31 28.9C59.2 27.67 59.17 26.44 59.2 25.2C59.2 24.84 59.2 24.48 59.2 24.12C59.61 22.73 59.82 21.28 59.84 19.77C59.84 18.18 59.84 16.59 59.84 14.99C62.42 14.48 64.97 13.83 67.49 13.04C68 13 68.21 12.71 68.12 12.17C66.35 12.17 64.58 12.17 62.81 12.17C61.73 11.98 60.74 11.54 59.84 10.86C60.43 10.26 60.72 9.54 60.69 8.69C63.91 3.13 68.72 0.23 75.14 0C83.64 0.19 89.13 4.4 91.6 12.6C91.71 14.19 91.74 15.79 91.71 17.38Z" fill="#04087E" fill-opacity="1.000000" fill-rule="evenodd"/>
	<path id="Vector" d="M59.84 14.99C59.84 16.59 59.84 18.18 59.84 19.77C59.43 21.16 59.22 22.61 59.2 24.12C59.2 24.48 59.2 24.84 59.2 25.2C59 25.44 58.93 25.73 58.99 26.07C57.93 26.76 56.87 27.45 55.8 28.14C54.4 29.35 53.44 30.83 52.93 32.59C52.79 32.88 52.79 33.17 52.93 33.46C53.39 33.97 53.75 34.55 54 35.2C55.33 39.09 55.26 42.93 53.78 46.71C53.03 47.96 52.4 49.26 51.87 50.62C51.44 53.85 50.87 57.04 50.17 60.18C49.04 63.5 47.98 66.83 46.99 70.18C46 71.77 45 73.36 44.01 74.96C41.77 77.17 39.47 79.31 37.11 81.36C36.36 81.67 35.58 81.85 34.77 81.91C32.37 82.08 29.96 82.15 27.55 82.13C25.99 82.26 24.5 82.01 23.08 81.36C20.11 79.37 18.02 76.65 16.82 73.22C14.71 68.13 14.43 62.92 15.97 57.58C18.78 51.3 23.24 46.67 29.35 43.67C29.79 40.13 31.07 36.94 33.18 34.11C34.94 32.04 37.18 30.95 39.87 30.85C40.27 30.34 40.38 29.76 40.19 29.11C38.93 28.38 37.69 27.62 36.47 26.83C35.31 25.6 34.64 24.11 34.45 22.38C33.95 19.48 34.77 17.05 36.89 15.1C37.7 14.64 38.44 14.1 39.12 13.47C39.58 10.69 40.96 8.56 43.27 7.06C44.66 6.62 46.08 6.26 47.52 5.98C51.07 5.44 53.9 6.63 56.01 9.56C56.72 11.79 57.99 13.6 59.84 14.99Z" fill="#FEFEFE" fill-opacity="1.000000" fill-rule="evenodd"/>
	<path id="Vector" d="M81.51 12.39C80.36 12.88 80.43 13.17 81.72 13.25C82.15 13.56 82.65 13.71 83.21 13.69C83.35 13.69 83.49 13.69 83.63 13.69C83.92 13.91 83.92 14.12 83.63 14.34C82.46 14.93 81.19 15.15 79.81 14.99C79.38 14.68 78.89 14.54 78.32 14.56C77.68 14.17 76.98 13.95 76.2 13.91C75.35 13.45 74.43 13.16 73.44 13.04C72.77 12.93 72.27 12.57 71.95 11.95C71.98 11.82 72.05 11.75 72.16 11.73C73.71 11.93 75.27 12 76.84 11.95C77.83 11.99 78.82 11.95 79.81 11.84C80.73 11.44 81.65 11.05 82.57 10.65C82.88 10.7 82.98 10.84 82.89 11.08C82.32 11.41 81.86 11.84 81.51 12.39Z" fill="#DDBC2A" fill-opacity="1.000000" fill-rule="evenodd"/>
	<path id="Vector" d="M72.16 11.73C72.25 11.6 72.39 11.53 72.59 11.52C74.03 11.65 75.45 11.79 76.84 11.95C75.27 12 73.71 11.93 72.16 11.73Z" fill="#463D63" fill-opacity="1.000000" fill-rule="evenodd"/>
	<path id="Vector" d="M62.81 12.17C64.58 12.17 66.35 12.17 68.12 12.17C68.21 12.71 68 13 67.49 13.04C67.58 12.83 67.73 12.65 67.91 12.49C66.18 12.46 64.48 12.35 62.81 12.17Z" fill="#91627E" fill-opacity="1.000000" fill-rule="evenodd"/>
	<path id="Vector" d="M73.44 13.04C74.43 13.16 75.35 13.45 76.2 13.91C75.21 13.79 74.29 13.5 73.44 13.04Z" fill="#88734D" fill-opacity="1.000000" fill-rule="evenodd"/>
	<path id="Vector" d="M81.51 12.39C81.23 12.75 81.3 13.04 81.72 13.25C80.43 13.17 80.36 12.88 81.51 12.39Z" fill="#3D306A" fill-opacity="1.000000" fill-rule="evenodd"/>
	<path id="Vector" d="M81.72 13.25C82.29 13.24 82.78 13.38 83.21 13.69C82.65 13.71 82.15 13.56 81.72 13.25Z" fill="#584A5D" fill-opacity="1.000000" fill-rule="evenodd"/>
	<path id="Vector" d="M76.2 13.91C76.98 13.95 77.68 14.17 78.32 14.56C77.54 14.51 76.84 14.29 76.2 13.91Z" fill="#8C764B" fill-opacity="1.000000" fill-rule="evenodd"/>
	<path id="Vector" d="M83.63 13.69C84.2 13.91 84.2 14.12 83.63 14.34C83.92 14.12 83.92 13.91 83.63 13.69Z" fill="#594A5E" fill-opacity="1.000000" fill-rule="evenodd"/>
	<path id="Vector" d="M78.32 14.56C78.89 14.54 79.38 14.68 79.81 14.99C79.25 15.01 78.75 14.87 78.32 14.56Z" fill="#7D6A4F" fill-opacity="1.000000" fill-rule="evenodd"/>
	<path id="Vector" d="M29.88 26.94C29.68 25.42 29.43 23.9 29.14 22.38C29.03 21.01 29 19.63 29.03 18.25C29.33 17.28 29.55 16.27 29.67 15.21C29.81 15.08 29.95 14.94 30.1 14.78C30.21 17.88 30.67 20.92 31.48 23.9C32.5 25.89 33.77 27.7 35.3 29.33C35.51 29.66 35.62 30.03 35.62 30.42C33.59 30.05 31.78 29.18 30.2 27.81C30.16 27.47 30.05 27.18 29.88 26.94Z" fill="#E0885E" fill-opacity="1.000000" fill-rule="evenodd"/>
	<path id="Vector" d="M42.42 15.86C42.84 15.86 43.27 15.86 43.69 15.86C44.11 16.08 44.53 16.29 44.97 16.51C45.52 17.65 45.52 18.77 44.97 19.88C43.76 20.03 42.56 20.03 41.36 19.88C41.17 19.73 41.03 19.55 40.93 19.34C40.84 18.47 41.02 17.67 41.46 16.95C41.51 17.29 41.61 17.58 41.78 17.82C42.19 18.39 42.62 18.39 43.06 17.82C43.26 17.43 43.33 17 43.27 16.51C42.98 16.55 42.69 16.51 42.42 16.4C42.18 16.24 42.18 16.06 42.42 15.86Z" fill="#111283" fill-opacity="1.000000" fill-rule="evenodd"/>
	<path id="Vector" d="M43.69 15.86C44.29 15.76 44.71 15.98 44.97 16.51C44.53 16.29 44.11 16.08 43.69 15.86Z" fill="#A5A4D1" fill-opacity="1.000000" fill-rule="evenodd"/>
	<path id="Vector" d="M54.1 16.08C56.51 15.97 57.53 17.12 57.18 19.56C57.01 19.74 56.83 19.92 56.65 20.1C55.52 20.24 54.39 20.24 53.25 20.1C53.15 19.99 53.04 19.88 52.93 19.77C52.5 18.22 52.89 16.99 54.1 16.08Z" fill="#1F1A87" fill-opacity="1.000000" fill-rule="evenodd"/>
	<path id="Vector" d="M64.09 16.08C64.09 16.51 64.09 16.95 64.09 17.38C63.36 18.56 62.72 18.48 62.18 17.17C62.25 17.02 62.32 16.87 62.39 16.73C62.81 16.19 63.38 15.97 64.09 16.08Z" fill="#EEE9E7" fill-opacity="1.000000" fill-rule="evenodd"/>
	<path id="Vector" d="M64.09 16.08C66.06 16.71 66.77 18.08 66.21 20.21C65.67 20.27 65.17 20.2 64.73 19.99C64.73 19.92 64.73 19.84 64.73 19.77C64.5 19.53 64.35 19.24 64.3 18.9C64.61 18.45 64.75 17.95 64.73 17.38C64.51 17.38 64.3 17.38 64.09 17.38C64.09 16.95 64.09 16.51 64.09 16.08Z" fill="#DAB829" fill-opacity="1.000000" fill-rule="evenodd"/>
	<path id="Vector" d="M42.42 15.86C42.18 16.06 42.18 16.24 42.42 16.4C42.69 16.51 42.98 16.55 43.27 16.51C43.33 17 43.26 17.43 43.06 17.82C43.06 17.45 43.06 17.09 43.06 16.73C42.11 16.5 41.69 16.86 41.78 17.82C41.61 17.58 41.51 17.29 41.46 16.95C41.02 17.67 40.84 18.47 40.93 19.34C40.37 17.73 40.87 16.57 42.42 15.86Z" fill="#4F49A1" fill-opacity="1.000000" fill-rule="evenodd"/>
	<path id="Vector" d="M43.06 17.82C42.62 18.39 42.19 18.39 41.78 17.82C41.69 16.86 42.11 16.5 43.06 16.73C43.06 17.09 43.06 17.45 43.06 17.82Z" fill="#E0E0EF" fill-opacity="1.000000" fill-rule="evenodd"/>
	<path id="Vector" d="M75.77 16.73C77.52 16.42 78.58 17.14 78.96 18.9C78.8 19.57 78.38 19.93 77.69 19.99C77.32 19.52 77.14 18.94 77.15 18.25C76.94 18.11 76.73 17.96 76.52 17.82C76.76 19.41 76.16 19.92 74.71 19.34C74.4 19.04 74.26 18.68 74.29 18.25C74.41 17.76 74.69 17.4 75.14 17.17C75.46 17.18 75.67 17.04 75.77 16.73Z" fill="#DBB827" fill-opacity="1.000000" fill-rule="evenodd"/>
	<path id="Vector" d="M75.77 16.73C75.67 17.04 75.46 17.18 75.14 17.17C75.24 16.86 75.45 16.71 75.77 16.73Z" fill="#8A754C" fill-opacity="1.000000" fill-rule="evenodd"/>
	<path id="Vector" d="M54.1 16.95C55.22 16.98 55.43 17.45 54.74 18.36C54.47 18.51 54.22 18.47 54 18.25C53.89 17.81 53.93 17.37 54.1 16.95Z" fill="#A9CAE9" fill-opacity="1.000000" fill-rule="evenodd"/>
	<path id="Vector" d="M62.39 16.73C62.32 16.87 62.25 17.02 62.18 17.17C62.72 18.48 63.36 18.56 64.09 17.38C64.3 17.38 64.51 17.38 64.73 17.38C64.75 17.95 64.61 18.45 64.3 18.9C64.35 19.25 64.5 19.53 64.73 19.77C63.64 19.79 62.58 19.64 61.54 19.34C61.51 18.67 61.58 18.02 61.75 17.38C61.75 16.95 61.96 16.73 62.39 16.73Z" fill="#874416" fill-opacity="1.000000" fill-rule="evenodd"/>
	<path id="Vector" d="M61.75 17.38C61.58 18.02 61.51 18.67 61.54 19.34C61.3 18.8 61.26 18.22 61.43 17.6C61.51 17.48 61.62 17.41 61.75 17.38Z" fill="#462140" fill-opacity="1.000000" fill-rule="evenodd"/>
	<path id="Vector" d="M77.69 19.99C76.68 20.18 75.66 20.4 74.6 20.64C74.01 20.49 73.77 20.09 73.86 19.45C73.84 18.96 73.98 18.57 74.29 18.25C74.26 18.68 74.4 19.04 74.71 19.34C76.16 19.92 76.76 19.41 76.52 17.82C76.73 17.96 76.94 18.11 77.15 18.25C77.14 18.94 77.32 19.52 77.69 19.99Z" fill="#7E3F17" fill-opacity="1.000000" fill-rule="evenodd"/>
	<path id="Vector" d="M43.27 18.47C43.55 18.47 43.83 18.47 44.12 18.47C44.18 18.87 44.03 19.16 43.69 19.34C43.35 19.16 43.21 18.87 43.27 18.47Z" fill="#819ACF" fill-opacity="1.000000" fill-rule="evenodd"/>
	<path id="Vector" d="M61.54 19.34C62.58 19.64 63.64 19.79 64.73 19.77C64.73 19.84 64.73 19.92 64.73 19.99C63.57 20.1 62.51 19.88 61.54 19.34Z" fill="#522537" fill-opacity="1.000000" fill-rule="evenodd"/>
	<path id="Vector" d="M47.73 21.94C48.59 21.83 49.37 22.01 50.07 22.49C50.85 23.29 51.41 24.23 51.77 25.31C50.87 26.55 49.81 27.6 48.58 28.46C48.11 28.31 47.72 28.02 47.41 27.59C46.64 26.53 45.83 25.52 44.97 24.55C44.97 24.22 45.12 23.97 45.39 23.79C46.19 23.17 46.96 22.56 47.73 21.94Z" fill="#FCAD84" fill-opacity="1.000000" fill-rule="evenodd"/>
	<path id="Vector" d="M59.84 19.77C59.82 21.28 59.61 22.73 59.2 24.12C59.22 22.61 59.43 21.16 59.84 19.77Z" fill="#6F6DB4" fill-opacity="1.000000" fill-rule="evenodd"/>
	<path id="Vector" d="M64.09 24.33C64.44 24 64.86 23.78 65.36 23.68C66.36 23.31 67.38 23.02 68.44 22.81C69.69 23.07 70.86 23.54 71.95 24.23C72.94 24.3 73.93 24.37 74.92 24.44C73.66 26.9 71.75 28.56 69.19 29.44C68.83 29.59 68.48 29.59 68.12 29.44C66.59 27.9 65.24 26.2 64.09 24.33Z" fill="#F3790A" fill-opacity="1.000000" fill-rule="evenodd"/>
	<path id="Vector" d="M48.58 23.47C49.48 23.73 50.11 24.31 50.49 25.2C50.08 26.03 49.47 26.68 48.69 27.16C46.06 25.93 46.02 24.7 48.58 23.47Z" fill="#E0875D" fill-opacity="1.000000" fill-rule="evenodd"/>
	<path id="Vector" d="M65.36 23.68C64.86 23.78 64.44 24 64.09 24.33C63.9 24.18 63.83 23.96 63.88 23.68C64.37 23.68 64.87 23.68 65.36 23.68Z" fill="#8D4839" fill-opacity="1.000000" fill-rule="evenodd"/>
	<path id="Vector" d="M65.58 25.42C65.73 25.19 65.95 25.15 66.21 25.31C66.91 25.99 67.69 26.53 68.55 26.94C69.71 26.54 70.84 26.07 71.95 25.53C72.3 25.42 72.65 25.39 73.01 25.42C73.07 25.74 73 26.03 72.8 26.29C71.46 27.17 70.08 27.97 68.66 28.68C68.12 28.57 67.7 28.28 67.38 27.81C66.77 27 66.17 26.2 65.58 25.42Z" fill="#8A3F08" fill-opacity="1.000000" fill-rule="evenodd"/>
	<path id="Vector" d="M12.67 28.46C13.29 28.76 13.82 29.2 14.27 29.77C16.53 32.81 18.8 35.85 21.07 38.89C22.07 40.03 23.17 41.05 24.36 41.93C23.1 42.43 21.9 43.04 20.75 43.78C19.53 44.95 18.26 46.03 16.92 47.04C14.05 49.76 11.39 52.7 8.96 55.84C8.86 55.71 8.82 55.56 8.85 55.4C10.32 53.35 11.84 51.32 13.42 49.32C15.91 46.52 18.35 43.7 20.75 40.85C18.06 36.72 15.37 32.59 12.67 28.46Z" fill="#E08A61" fill-opacity="1.000000" fill-rule="evenodd"/>
	<path id="Vector" d="M57.08 31.07C57.36 31.14 57.64 31.21 57.93 31.29C58.36 31.6 58.85 31.74 59.41 31.72C60.53 32 61.59 32.37 62.6 32.81C60.62 32.84 58.63 32.81 56.65 32.7C56.39 32.61 56.24 32.43 56.23 32.16C56.35 31.67 56.63 31.31 57.08 31.07Z" fill="#22157E" fill-opacity="1.000000" fill-rule="evenodd"/>
	<path id="Vector" d="M84.48 49.1C84.41 49.75 84.63 50.26 85.12 50.62C85.38 51.26 85.59 51.91 85.76 52.58C85.74 53.15 85.88 53.66 86.18 54.1C86.18 54.17 86.18 54.24 86.18 54.32C86.24 55.32 86.45 56.26 86.82 57.14C87.07 58.4 87.21 59.7 87.25 61.05C87.2 62.05 87.34 62.99 87.67 63.88C88.89 70.12 87.26 75.44 82.78 79.84C81.21 81.01 79.51 81.95 77.69 82.67C74.11 83.36 70.92 82.56 68.12 80.28C64.96 77.13 63.12 73.33 62.6 68.87C62.21 65.92 62 62.95 61.96 59.96C62.81 56.71 63.66 53.45 64.51 50.19C64.85 49.84 64.99 49.41 64.94 48.88C65.06 48.12 65.2 47.36 65.36 46.6C64.86 45.3 64.4 43.96 63.98 42.58C63.81 40.81 63.84 39.07 64.09 37.37C64.42 37.02 64.56 36.59 64.51 36.07C65.02 35.08 65.65 34.17 66.43 33.35C67.56 33.24 68.69 33.21 69.82 33.24C71.27 33.49 72.76 33.53 74.29 33.35C74.99 33.31 75.62 33.13 76.2 32.81C77.5 32.5 78.85 32.39 80.23 32.48C80.68 32.73 81.07 33.06 81.4 33.46C82.87 36.31 83.36 39.35 82.89 42.58C82.61 43.21 82.44 43.86 82.36 44.54C83.13 46.04 83.84 47.56 84.48 49.1Z" fill="#FDFDFE" fill-opacity="1.000000" fill-rule="evenodd"/>
	<path id="Vector" d="M56.23 32.16C56.24 32.43 56.39 32.61 56.65 32.7C58.63 32.81 60.62 32.84 62.6 32.81C62.74 32.81 62.81 32.88 62.81 33.03C62.04 34.57 61.37 36.16 60.8 37.8C60.34 39.3 60.2 40.82 60.37 42.37C60.73 43.48 60.98 44.64 61.11 45.84C61.11 46.11 61.04 46.33 60.9 46.49C58.11 46.42 56.24 47.72 55.27 50.41C55.24 54.93 54.71 59.35 53.68 63.66C53.35 62.12 53.45 60.6 54 59.1C54.14 55.91 54.28 52.72 54.42 49.54C55.17 48.16 56.02 46.85 56.97 45.63C57.52 41.49 57.2 37.44 56.01 33.46C56.02 32.98 56.09 32.55 56.23 32.16Z" fill="#DD855E" fill-opacity="1.000000" fill-rule="evenodd"/>
	<path id="Vector" d="M76.2 32.81C75.62 33.13 74.99 33.31 74.29 33.35C72.76 33.53 71.27 33.49 69.82 33.24C71.96 33.3 74.09 33.16 76.2 32.81Z" fill="#7476B8" fill-opacity="1.000000" fill-rule="evenodd"/>
	<path id="Vector" d="M64.51 36.07C64.56 36.59 64.42 37.02 64.09 37.37C64.04 36.85 64.18 36.41 64.51 36.07Z" fill="#8B8BC4" fill-opacity="1.000000" fill-rule="evenodd"/>
	<path id="Vector" d="M84.48 49.1C84.82 49.54 85.03 50.05 85.12 50.62C84.63 50.26 84.41 49.75 84.48 49.1Z" fill="#A2A1CF" fill-opacity="1.000000" fill-rule="evenodd"/>
	<path id="Vector" d="M64.94 48.88C64.99 49.41 64.85 49.84 64.51 50.19C64.46 49.67 64.6 49.23 64.94 48.88Z" fill="#8888C2" fill-opacity="1.000000" fill-rule="evenodd"/>
	<path id="Vector" d="M85.76 52.58C86.06 53.02 86.2 53.52 86.18 54.1C85.88 53.66 85.74 53.15 85.76 52.58Z" fill="#8382BF" fill-opacity="1.000000" fill-rule="evenodd"/>
	<path id="Vector" d="M86.18 54.32C86.34 54.41 86.44 54.55 86.5 54.75C86.62 55.55 86.72 56.34 86.82 57.14C86.45 56.26 86.24 55.32 86.18 54.32Z" fill="#8484C0" fill-opacity="1.000000" fill-rule="evenodd"/>
	<path id="Vector" d="M87.25 61.05C87.58 61.93 87.72 62.88 87.67 63.88C87.34 62.99 87.2 62.05 87.25 61.05Z" fill="#6869B1" fill-opacity="1.000000" fill-rule="evenodd"/>
	<path id="Vector" d="M61.96 59.96C62 62.95 62.21 65.92 62.6 68.87C62.27 67.76 62.02 66.6 61.86 65.4C61.68 63.55 61.72 61.74 61.96 59.96Z" fill="#8D8DC4" fill-opacity="1.000000" fill-rule="evenodd"/>
	<path id="Vector" d="M7.36 78C7.59 77.96 7.8 78 8 78.11C9.54 79.86 11.1 81.56 12.67 83.21C11.43 83.91 10.79 85 10.76 86.47C10.24 87.39 10.03 88.4 10.12 89.51C9.78 90.38 9.5 91.28 9.27 92.23C8.28 92.33 7.29 92.29 6.3 92.12C6.02 91.82 5.85 91.46 5.77 91.03C5.66 87.2 5.63 83.36 5.66 79.52C5.97 78.71 6.54 78.2 7.36 78Z" fill="#DF865C" fill-opacity="1.000000" fill-rule="evenodd"/>
	<path id="Vector" d="M99.78 78C99.99 77.96 100.13 78.03 100.21 78.21C100.03 79.12 99.92 80.06 99.89 81.04C98.44 84.12 97.77 87.38 97.87 90.82C97.31 89.33 96.78 87.81 96.27 86.25C95.76 85.62 95.16 85.11 94.47 84.73C96.16 82.42 97.93 80.18 99.78 78Z" fill="#823C0F" fill-opacity="1.000000" fill-rule="evenodd"/>
	<path id="Vector" d="M100.21 78.21C101.82 78.66 103.13 79.6 104.14 81.04C106.26 84.23 108.39 87.41 110.51 90.6C110.61 90.95 110.65 91.32 110.62 91.68C109.9 91.8 109.19 91.98 108.49 92.23C107.53 92.83 106.61 93.48 105.73 94.18C104.54 94.06 103.33 93.95 102.12 93.86C101.3 93.89 100.49 93.96 99.67 94.07C99.37 94.06 99.09 93.99 98.82 93.86C98.5 92.82 98.18 91.8 97.87 90.82C97.77 87.38 98.44 84.12 99.89 81.04C99.92 80.06 100.03 79.12 100.21 78.21Z" fill="#FD7F07" fill-opacity="1.000000" fill-rule="evenodd"/>
	<path id="Vector" d="M5.66 79.52C5.63 83.36 5.66 87.2 5.77 91.03C5.85 91.46 6.02 91.82 6.3 92.12C5.44 92.27 4.59 92.48 3.75 92.77C2.7 91.73 1.5 90.89 0.14 90.27C-0.08 89.59 -0.05 88.9 0.25 88.21C2 85.26 3.81 82.36 5.66 79.52Z" fill="#FBA980" fill-opacity="1.000000" fill-rule="evenodd"/>
	<path id="Vector" d="M34.77 81.91C33.4 82.24 31.99 82.38 30.52 82.34C29.49 82.34 28.5 82.27 27.55 82.13C29.96 82.15 32.37 82.08 34.77 81.91Z" fill="#FECDB4" fill-opacity="1.000000" fill-rule="evenodd"/>
	<path id="Vector" d="M37.11 86.69C38.55 86.9 40.04 86.98 41.57 86.9C41.57 87.3 41.46 87.66 41.25 87.99C40.08 88.9 39.05 89.95 38.17 91.14C37.57 91.52 36.93 91.77 36.26 91.9C33.3 90.77 30.4 89.54 27.55 88.21C27.98 87.93 28.48 87.75 29.03 87.67C31.73 87.36 34.42 87.04 37.11 86.69Z" fill="#DF875D" fill-opacity="1.000000" fill-rule="evenodd"/>
	<path id="Vector" d="M67.27 86.9C69.94 87.57 72.42 88.65 74.71 90.16C74.14 90.45 73.58 90.74 73.01 91.03C72.99 90.9 72.92 90.79 72.8 90.71C69.27 90.17 65.8 89.37 62.39 88.32C62.08 88.24 61.87 88.05 61.75 87.77C62.95 87.62 64.15 87.52 65.36 87.45C66.05 87.4 66.69 87.22 67.27 86.9Z" fill="#823D0F" fill-opacity="1.000000" fill-rule="evenodd"/>
	<path id="Vector" d="M37.11 86.69C38.74 86.69 40.36 86.69 41.99 86.69C42.11 87.28 42.28 87.86 42.52 88.43C42.91 89.74 42.52 90.64 41.36 91.14C40.78 91.66 40.28 92.24 39.87 92.88C38.49 93.13 37.29 92.8 36.26 91.9C36.93 91.77 37.57 91.52 38.17 91.14C39.05 89.95 40.08 88.9 41.25 87.99C41.46 87.66 41.57 87.3 41.57 86.9C40.04 86.98 38.55 86.9 37.11 86.69Z" fill="#F8AA82" fill-opacity="1.000000" fill-rule="evenodd"/>
	<path id="Vector" d="M10.76 86.47C10.55 87.51 10.34 88.52 10.12 89.51C10.03 88.4 10.24 87.39 10.76 86.47Z" fill="#D6B9A9" fill-opacity="1.000000" fill-rule="evenodd"/>
	<path id="Vector" d="M61.75 87.77C61.87 88.05 62.08 88.24 62.39 88.32C65.8 89.37 69.27 90.17 72.8 90.71C72.92 90.79 72.99 90.9 73.01 91.03C69.69 92.3 66.36 93.56 63.03 94.83C62.1 95.05 61.46 94.69 61.11 93.75C60.29 92.98 59.4 92.29 58.46 91.68C58.39 90.52 58.46 89.36 58.67 88.21C58.78 88.1 58.88 87.99 58.99 87.88C59.91 87.77 60.83 87.74 61.75 87.77Z" fill="#FC7F07" fill-opacity="1.000000" fill-rule="evenodd"/>
</svg>
