<svg width="91.000031" height="157.005371" viewBox="0 0 91 157.005" fill="none" xmlns="http://www.w3.org/2000/svg" xmlns:xlink="http://www.w3.org/1999/xlink">
	<desc>
			Created with Pixso.
	</desc>
	<defs/>
	<path id="Vector" d="M90.96 30.96C89.71 35.09 89.03 39.38 88.91 43.82C87.75 46.03 87.07 48.43 86.85 51.03C87.15 58.14 87.5 65.17 87.88 72.12C88.27 80.34 88.78 88.57 89.42 96.81C89.77 101.09 89.94 105.38 89.93 109.67C89.42 122.81 84.28 133.7 74.5 142.34C76.42 145.4 78.13 148.57 79.65 151.86C79.47 152.2 79.3 152.54 79.13 152.89C75.9 154.42 72.64 155.79 69.36 157C68.32 156.27 67.12 155.92 65.76 155.97C65.58 155.97 65.41 155.97 65.24 155.97C63.46 155.47 61.57 155.3 59.58 155.46C59.58 154.77 59.58 154.09 59.58 153.4C60.17 151.92 60.51 150.38 60.61 148.77C61.1 148.04 61.27 147.18 61.13 146.2C56.32 146.18 51.52 146.01 46.72 145.68C46.04 145.68 45.35 145.68 44.66 145.68C37.72 145.19 30.69 145.19 23.57 145.68C22.04 145.44 21.44 144.59 21.77 143.11C23.74 141.97 25.89 141.28 28.2 141.05C31.28 140.81 34.37 140.64 37.46 140.54C37.58 139.87 37.41 139.36 36.95 139C33.49 135.14 31.08 130.68 29.75 125.62C29.25 123.62 28.56 121.73 27.69 119.96C27.69 119.62 27.69 119.28 27.69 118.93C27.12 116.45 27.12 114.05 27.69 111.73C29.02 121 33.14 128.81 40.03 135.14C41.26 135.75 42.46 136.35 43.63 136.94C44.2 137.48 44.89 137.91 45.69 138.22C47.68 138.64 49.56 138.55 51.35 137.97C56.47 135.62 60.5 132.02 63.44 127.16C64.83 124.29 66.29 121.46 67.81 118.68C69.91 107.53 70.43 96.3 69.36 84.98C69.23 81.86 69.4 78.78 69.87 75.72C70.33 74.63 70.93 73.61 71.67 72.63C72.01 72.12 72.01 71.6 71.67 71.09C68.37 69.86 65.63 67.8 63.44 64.92C57.83 56.14 51.75 47.74 45.18 39.71C44.72 40.13 44.55 40.65 44.66 41.25C43.46 41.25 42.26 41.25 41.06 41.25C38.89 40.92 37.95 39.72 38.23 37.65C38.43 37.37 38.69 37.19 39 37.14C40.76 37.01 42.39 37.36 43.89 38.17C45.95 37.22 48.09 36.54 50.32 36.11C52.33 35.99 54.22 36.41 55.98 37.39C59.88 39.92 63.48 42.83 66.78 46.14C69.84 48.36 73.27 49.31 77.07 48.97C77.24 47.43 76.56 46.74 75.02 46.91C75.81 44.74 76.84 42.68 78.1 40.74C78.7 37.74 78.78 34.66 78.36 31.48C78.22 31.01 77.96 30.66 77.59 30.45C77.58 29.67 77.24 29.07 76.56 28.65C75.41 27.75 74.21 26.98 72.96 26.33C72.74 25.71 72.39 25.2 71.93 24.79C71.93 24.62 71.93 24.45 71.93 24.28C71.97 23.49 71.62 22.98 70.9 22.73C70.57 21.12 69.72 19.83 68.33 18.87C63.82 15.19 58.67 13.99 52.89 15.27C50.27 16.75 47.7 18.21 45.18 19.65C44.39 19.61 43.88 19.95 43.63 20.67C42.91 20.92 42.57 21.43 42.61 22.22C41.8 23.04 41.45 24.07 41.58 25.3C41.09 26.03 40.92 26.89 41.06 27.88C40.18 28.78 39.4 29.81 38.75 30.96C38.49 26.84 38.58 22.73 39 18.62C42.27 9.1 48.78 3.01 58.55 0.35C70.89 -1.32 80.75 2.88 88.13 12.96C89.38 15.04 90.24 17.27 90.71 19.65C90.96 23.41 91.05 27.19 90.96 30.96Z" fill="#FDAB7F" fill-opacity="1.000000" fill-rule="evenodd"/>
	<path id="Vector" d="M70.9 22.73C69.05 20.97 66.82 20.11 64.21 20.16C63.16 20.11 62.3 20.45 61.64 21.19C60.73 21.58 60.22 22.27 60.1 23.25C59.29 24.07 58.94 25.1 59.07 26.33C59.07 28.22 59.07 30.11 59.07 31.99C58.9 33.53 59.41 34.73 60.61 35.59C64.18 37.85 67.52 37.51 70.64 34.56C71.39 33.24 71.99 31.87 72.44 30.45C72.94 29.19 73.12 27.82 72.96 26.33C74.21 26.98 75.41 27.75 76.56 28.65C77.24 29.07 77.58 29.67 77.59 30.45C78.02 32.49 78.1 34.55 77.84 36.62C77.01 35.95 76.24 35.95 75.53 36.62C74.47 36.78 73.35 36.95 72.19 37.14C71.36 38.47 71.28 39.84 71.93 41.25C72.57 40.97 73.17 40.63 73.73 40.22C74.28 41.14 75.05 41.4 76.04 41C76.63 40.41 77.14 39.81 77.59 39.19C78.05 39.56 78.22 40.07 78.1 40.74C76.84 42.68 75.81 44.74 75.02 46.91C76.56 46.74 77.24 47.43 77.07 48.97C73.27 49.31 69.84 48.36 66.78 46.14C63.48 42.83 59.88 39.92 55.98 37.39C54.22 36.41 52.33 35.99 50.32 36.11C50.32 35.94 50.32 35.76 50.32 35.59C51.33 34.43 51.93 33.05 52.12 31.48C52.54 28.47 52.46 25.55 51.87 22.73C51.9 21.95 51.56 21.43 50.84 21.19C50.4 20.44 49.72 20.01 48.78 19.9C47.59 19.65 46.39 19.56 45.18 19.65C47.7 18.21 50.27 16.75 52.89 15.27C58.67 13.99 63.82 15.19 68.33 18.87C69.72 19.83 70.57 21.12 70.9 22.73Z" fill="#FAF9F9" fill-opacity="1.000000" fill-rule="evenodd"/>
	<path id="Vector" d="M45.18 19.65C44.93 20.37 44.42 20.71 43.64 20.67C43.88 19.95 44.39 19.61 45.18 19.65Z" fill="#748DC5" fill-opacity="1.000000" fill-rule="evenodd"/>
	<path id="Vector" d="M45.18 19.65C46.39 19.56 47.59 19.65 48.78 19.9C49.72 20.01 50.4 20.44 50.84 21.19C50.8 21.98 51.14 22.49 51.87 22.73C52.46 25.55 52.54 28.47 52.12 31.48C51.93 33.05 51.33 34.43 50.32 35.59C48.09 35.8 45.86 35.89 43.63 35.85C43.06 34.89 42.55 33.94 42.09 33.02C41.7 30.47 41.53 27.9 41.58 25.3C42.39 24.48 42.73 23.45 42.61 22.22C43.33 21.98 43.67 21.46 43.63 20.68C44.42 20.71 44.93 20.37 45.18 19.65Z" fill="#177FF4" fill-opacity="1.000000" fill-rule="evenodd"/>
	<path id="Vector" d="M64.21 20.16C66.82 20.11 69.05 20.97 70.9 22.73C70.86 23.52 71.21 24.03 71.93 24.28C71.93 24.45 71.93 24.62 71.93 24.79C72.24 26.66 72.42 28.55 72.44 30.45C71.99 31.87 71.39 33.24 70.64 34.56C67.52 37.51 64.18 37.85 60.61 35.59C60.39 34.23 59.87 33.03 59.07 31.99C59.07 30.11 59.07 28.22 59.07 26.33C59.88 25.51 60.22 24.48 60.1 23.25C61 22.86 61.52 22.17 61.64 21.19C62.54 21.73 62.89 22.59 62.67 23.76C62.56 24.56 62.22 25.24 61.64 25.82C62.63 26.63 63.14 27.66 63.18 28.91C62.99 30.02 63.33 30.88 64.21 31.48C64.67 30.13 65.01 28.75 65.24 27.36C66.68 26.08 66.59 24.88 64.98 23.76C64.73 22.92 64.64 22.06 64.73 21.19C64.56 20.85 64.38 20.5 64.21 20.16Z" fill="#127FF4" fill-opacity="1.000000" fill-rule="evenodd"/>
	<path id="Vector" d="M64.21 20.16C64.38 20.5 64.56 20.85 64.73 21.19C64.21 21.15 63.79 21.32 63.44 21.7C63.33 22.51 63.08 23.19 62.67 23.76C62.89 22.59 62.54 21.73 61.64 21.19C62.3 20.45 63.16 20.11 64.21 20.16Z" fill="#509CF7" fill-opacity="1.000000" fill-rule="evenodd"/>
	<path id="Vector" d="M43.63 20.67C43.67 21.46 43.33 21.97 42.61 22.22C42.57 21.43 42.91 20.92 43.63 20.67Z" fill="#778FC0" fill-opacity="1.000000" fill-rule="evenodd"/>
	<path id="Vector" d="M61.64 21.19C61.52 22.17 61 22.86 60.1 23.25C60.22 22.27 60.73 21.58 61.64 21.19Z" fill="#68AAF8" fill-opacity="1.000000" fill-rule="evenodd"/>
	<path id="Vector" d="M64.73 21.19C64.64 22.06 64.73 22.92 64.98 23.76C66.59 24.88 66.68 26.08 65.24 27.36C64.49 27.8 64.06 28.48 63.96 29.42C63.76 29.13 63.5 28.96 63.18 28.91C63.14 27.66 62.63 26.63 61.64 25.82C62.22 25.24 62.56 24.56 62.67 23.76C63.08 23.19 63.33 22.51 63.44 21.7C63.79 21.32 64.21 21.15 64.73 21.19Z" fill="#E2EFFD" fill-opacity="1.000000" fill-rule="evenodd"/>
	<path id="Vector" d="M50.84 21.19C51.56 21.43 51.9 21.95 51.87 22.73C51.14 22.49 50.8 21.98 50.84 21.19Z" fill="#65ABF8" fill-opacity="1.000000" fill-rule="evenodd"/>
	<path id="Vector" d="M48.78 26.85C48.37 27.42 48.12 28.1 48.01 28.91C47.9 28.1 47.64 27.42 47.24 26.85C46.79 24.99 46.79 23.1 47.24 21.19C47.75 21.19 48.26 21.19 48.78 21.19C48.76 22.57 49.1 23.85 49.81 25.05C49.56 25.72 49.22 26.32 48.78 26.85Z" fill="#D9E9FD" fill-opacity="1.000000" fill-rule="evenodd"/>
	<path id="Vector" d="M70.9 22.73C71.62 22.98 71.97 23.49 71.93 24.28C71.21 24.03 70.86 23.52 70.9 22.73Z" fill="#9799B5" fill-opacity="1.000000" fill-rule="evenodd"/>
	<path id="Vector" d="M42.61 22.22C42.73 23.45 42.39 24.48 41.58 25.3C41.45 24.07 41.8 23.04 42.61 22.22Z" fill="#8692B9" fill-opacity="1.000000" fill-rule="evenodd"/>
	<path id="Vector" d="M60.1 23.25C60.22 24.48 59.88 25.51 59.07 26.33C58.94 25.1 59.29 24.07 60.1 23.25Z" fill="#86BCF9" fill-opacity="1.000000" fill-rule="evenodd"/>
	<path id="Vector" d="M71.93 24.79C72.39 25.2 72.74 25.71 72.96 26.33C73.12 27.82 72.94 29.19 72.44 30.45C72.42 28.55 72.24 26.66 71.93 24.79Z" fill="#72AFF4" fill-opacity="1.000000" fill-rule="evenodd"/>
	<path id="Vector" d="M69.36 29.93C68.94 29.46 68.51 28.94 68.07 28.39C67.65 29.39 67.4 30.42 67.3 31.48C66.73 30.19 66.9 28.9 67.81 27.62C68.98 27.78 69.5 28.55 69.36 29.93Z" fill="#81BAF9" fill-opacity="1.000000" fill-rule="evenodd"/>
	<path id="Vector" d="M44.66 28.91C44.15 28.22 43.63 28.22 43.12 28.91C43.41 26.26 43.92 26.26 44.66 28.91Z" fill="#74B5F8" fill-opacity="1.000000" fill-rule="evenodd"/>
	<path id="Vector" d="M39 18.62C38.58 22.73 38.49 26.84 38.75 30.96C39.4 29.81 40.18 28.78 41.06 27.88C40.98 29.43 41.06 30.97 41.32 32.51C41.52 32.79 41.77 32.96 42.09 33.02C42.55 33.94 43.06 34.89 43.63 35.85C45.86 35.89 48.09 35.8 50.32 35.59C50.32 35.76 50.32 35.94 50.32 36.11C48.09 36.54 45.95 37.22 43.89 38.17C42.39 37.36 40.76 37.01 39 37.14C38.66 33.54 38.32 29.94 37.98 26.33C37.89 23.63 38.23 21.06 39 18.62Z" fill="#F0ECEC" fill-opacity="1.000000" fill-rule="evenodd"/>
	<path id="Vector" d="M44.66 28.91C44.66 29.59 44.66 30.28 44.66 30.96C44.25 31.71 43.99 32.57 43.89 33.54C43.47 32.19 43.21 30.82 43.12 29.42C43.12 29.25 43.12 29.08 43.12 28.91C43.63 28.22 44.15 28.22 44.66 28.91Z" fill="#E4F0FD" fill-opacity="1.000000" fill-rule="evenodd"/>
	<path id="Vector" d="M69.36 29.93C70.1 30.84 69.93 31.53 68.84 31.99C68.47 32.21 68.21 32.55 68.07 33.02C67.95 32.39 67.69 31.87 67.3 31.48C67.4 30.42 67.65 29.39 68.07 28.39C68.51 28.94 68.94 29.46 69.36 29.93Z" fill="#ECF4FE" fill-opacity="1.000000" fill-rule="evenodd"/>
	<path id="Vector" d="M47.24 26.85C47.64 27.42 47.9 28.1 48.01 28.91C48.12 28.1 48.37 27.42 48.78 26.85C48.94 28.1 48.77 29.3 48.26 30.45C47.96 30.34 47.71 30.17 47.49 29.93C47.24 28.92 47.15 27.89 47.24 26.85Z" fill="#77B5F9" fill-opacity="1.000000" fill-rule="evenodd"/>
	<path id="Vector" d="M65.24 27.36C65.01 28.75 64.67 30.13 64.21 31.48C63.33 30.88 62.99 30.02 63.18 28.91C63.5 28.96 63.76 29.13 63.96 29.42C64.06 28.48 64.49 27.8 65.24 27.36Z" fill="#72B3F8" fill-opacity="1.000000" fill-rule="evenodd"/>
	<path id="Vector" d="M41.58 25.3C41.53 27.9 41.7 30.47 42.09 33.02C41.77 32.96 41.52 32.79 41.32 32.51C41.06 30.97 40.98 29.43 41.06 27.88C40.92 26.89 41.09 26.03 41.58 25.3Z" fill="#A7C3EB" fill-opacity="1.000000" fill-rule="evenodd"/>
	<path id="Vector" d="M43.12 29.42C43.21 30.82 43.47 32.19 43.89 33.54C43.99 32.57 44.25 31.71 44.66 30.96C44.66 31.99 44.66 33.02 44.66 34.05C44.15 34.05 43.63 34.05 43.12 34.05C42.67 32.42 42.67 30.87 43.12 29.42Z" fill="#59A5F7" fill-opacity="1.000000" fill-rule="evenodd"/>
	<path id="Vector" d="M67.3 31.48C67.69 31.87 67.95 32.39 68.07 33.02C68.21 32.55 68.47 32.21 68.84 31.99C68.99 32.91 68.82 33.77 68.33 34.56C67.51 33.7 67.17 32.68 67.3 31.48Z" fill="#75B5F9" fill-opacity="1.000000" fill-rule="evenodd"/>
	<path id="Vector" d="M59.07 31.99C59.87 33.03 60.39 34.23 60.61 35.59C59.41 34.73 58.9 33.53 59.07 31.99Z" fill="#BDDBFC" fill-opacity="1.000000" fill-rule="evenodd"/>
	<path id="Vector" d="M77.59 30.45C77.96 30.66 78.22 31.01 78.36 31.48C78.78 34.66 78.7 37.74 78.1 40.74C78.22 40.07 78.05 39.56 77.59 39.19C77.97 37.42 77.28 36.56 75.53 36.62C76.24 35.95 77.01 35.95 77.84 36.62C78.1 34.55 78.02 32.49 77.59 30.45Z" fill="#FFE8DC" fill-opacity="1.000000" fill-rule="evenodd"/>
	<path id="Vector" d="M69.36 37.14C69.97 37.38 70.31 37.89 70.39 38.68C70.51 39.93 70 40.78 68.84 41.25C68.21 41.05 67.87 40.62 67.81 39.97C68.13 38.89 68.65 37.95 69.36 37.14Z" fill="#FEB792" fill-opacity="1.000000" fill-rule="evenodd"/>
	<path id="Vector" d="M75.53 36.62C77.28 36.56 77.97 37.42 77.59 39.19C77.14 39.81 76.63 40.41 76.04 41C75.05 41.4 74.28 41.14 73.73 40.22C73.17 40.63 72.57 40.97 71.93 41.25C71.28 39.84 71.36 38.47 72.19 37.14C73.35 36.95 74.47 36.78 75.53 36.62Z" fill="#FEB792" fill-opacity="1.000000" fill-rule="evenodd"/>
	<path id="Vector" d="M69.87 75.72C69.55 75.78 69.3 75.95 69.1 76.23C68.68 79.24 68.76 82.16 69.36 84.98C70.43 96.3 69.91 107.53 67.81 118.68C66.29 121.46 64.83 124.29 63.44 127.16C60.5 132.02 56.47 135.62 51.35 137.97C48.7 138.07 46.13 137.73 43.63 136.94C42.46 136.35 41.26 135.75 40.03 135.14C33.14 128.81 29.02 121 27.69 111.73C27.84 110.58 27.67 109.55 27.17 108.64C27.29 96.96 27.81 85.3 28.72 73.66C28.2 73.66 27.69 73.66 27.17 73.66C27.69 73.32 28.2 72.98 28.72 72.63C29.06 72.63 29.23 72.46 29.23 72.12C29.99 68.71 30.85 65.29 31.8 61.83C32.49 58.07 34.46 55.15 37.72 53.08C38.07 52.6 37.99 52.26 37.46 52.06C39.89 50.32 42.46 48.77 45.18 47.43C44.32 45.02 42.95 42.96 41.06 41.25C42.26 41.25 43.46 41.25 44.66 41.25C44.55 40.65 44.72 40.13 45.18 39.71C51.75 47.74 57.83 56.14 63.44 64.92C65.63 67.8 68.37 69.86 71.67 71.09C72.01 71.6 72.01 72.12 71.67 72.63C70.93 73.61 70.33 74.63 69.87 75.72Z" fill="#FEFEFE" fill-opacity="1.000000" fill-rule="evenodd"/>
	<path id="Vector" d="M37.46 52.06C37.99 52.26 38.07 52.6 37.72 53.08C34.46 55.15 32.49 58.07 31.8 61.83C30.1 64.98 29.24 68.41 29.23 72.12C29.23 72.46 29.06 72.63 28.72 72.63C27.35 72.59 26.15 72.93 25.12 73.66C24.29 73.52 23.61 73.7 23.06 74.18C19.97 74.01 16.88 73.83 13.8 73.66C11.28 72.95 8.71 72.44 6.08 72.12C5.04 71.39 3.84 71.04 2.48 71.09C-0.2 70.14 -0.71 68.51 0.94 66.2C6.98 63.53 13.16 61.22 19.46 59.26C20.73 59.13 21.75 58.61 22.54 57.71C27.57 55.97 32.55 54.08 37.46 52.06Z" fill="#FDAB80" fill-opacity="1.000000" fill-rule="evenodd"/>
	<path id="Vector" d="M22.54 57.71C21.75 58.61 20.73 59.13 19.46 59.26C20.25 58.36 21.27 57.85 22.54 57.71Z" fill="#ECC4AC" fill-opacity="1.000000" fill-rule="evenodd"/>
	<path id="Vector" d="M31.8 61.83C30.85 65.29 29.99 68.71 29.23 72.12C29.24 68.41 30.1 64.98 31.8 61.83Z" fill="#FFD7C2" fill-opacity="1.000000" fill-rule="evenodd"/>
	<path id="Vector" d="M2.48 71.09C3.84 71.04 5.04 71.39 6.08 72.12C4.72 72.16 3.52 71.82 2.48 71.09Z" fill="#E8CAB6" fill-opacity="1.000000" fill-rule="evenodd"/>
	<path id="Vector" d="M69.87 75.72C69.4 78.78 69.23 81.86 69.36 84.98C68.76 82.16 68.68 79.24 69.1 76.23C69.3 75.95 69.55 75.78 69.87 75.72Z" fill="#FECBB0" fill-opacity="1.000000" fill-rule="evenodd"/>
	<path id="Vector" d="M27.17 108.64C27.67 109.55 27.84 110.58 27.69 111.73C27.12 114.05 27.12 116.45 27.69 118.93C27.32 118.72 27.06 118.38 26.92 117.9C26.49 114.72 26.58 111.64 27.17 108.64Z" fill="#E6D6CA" fill-opacity="1.000000" fill-rule="evenodd"/>
	<path id="Vector" d="M43.64 136.94C46.13 137.73 48.7 138.07 51.35 137.97C49.56 138.55 47.68 138.64 45.69 138.22C44.89 137.91 44.2 137.48 43.64 136.94Z" fill="#FED5BF" fill-opacity="1.000000" fill-rule="evenodd"/>
</svg>
